<svg xmlns="http://www.w3.org/2000/svg" xmlns:xlink="http://www.w3.org/1999/xlink" viewBox="0 0 2475 1650"><defs><style>.cls-1{fill:url(#linear-gradient);}.cls-2{fill:#91b3fa;}.cls-3{fill:#bdd0fb;}.cls-4{fill:url(#linear-gradient-2);}.cls-5{fill:url(#linear-gradient-3);}.cls-6{fill:url(#linear-gradient-4);}.cls-7{fill:url(#linear-gradient-5);}.cls-8{fill:url(#linear-gradient-6);}.cls-9{fill:url(#linear-gradient-7);}.cls-10{fill:url(#linear-gradient-8);}.cls-11{fill:url(#linear-gradient-9);}.cls-12{fill:url(#linear-gradient-10);}.cls-13{fill:url(#linear-gradient-11);}.cls-14{fill:url(#linear-gradient-12);}.cls-15{fill:url(#linear-gradient-13);}.cls-16{fill:url(#linear-gradient-14);}.cls-17{fill:#fff;}.cls-18{fill:url(#linear-gradient-15);}.cls-19{fill:url(#linear-gradient-16);}.cls-20{fill:url(#linear-gradient-17);}.cls-21{fill:url(#linear-gradient-18);}.cls-22{fill:url(#linear-gradient-19);}.cls-23{fill:url(#linear-gradient-20);}.cls-24{fill:url(#linear-gradient-21);}.cls-25{fill:url(#linear-gradient-22);}.cls-26{fill:url(#linear-gradient-23);}.cls-27{fill:url(#linear-gradient-24);}.cls-28{fill:url(#linear-gradient-25);}.cls-29{fill:url(#linear-gradient-26);}.cls-30{fill:url(#linear-gradient-27);}.cls-31{fill:#7d97f4;}.cls-32{fill:url(#linear-gradient-28);}.cls-33{fill:url(#linear-gradient-29);}.cls-34{fill:url(#linear-gradient-30);}.cls-35{fill:url(#linear-gradient-31);}.cls-36{fill:url(#linear-gradient-32);}.cls-37{fill:url(#linear-gradient-33);}.cls-38{fill:url(#linear-gradient-34);}.cls-39{fill:url(#linear-gradient-35);}.cls-40{fill:url(#linear-gradient-36);}.cls-41{fill:url(#linear-gradient-37);}.cls-42{fill:url(#linear-gradient-38);}.cls-43{fill:url(#linear-gradient-39);}.cls-44{fill:url(#linear-gradient-40);}.cls-45{fill:url(#linear-gradient-41);}.cls-46{fill:url(#linear-gradient-42);}.cls-47{fill:url(#linear-gradient-43);}.cls-48{fill:url(#linear-gradient-44);}.cls-49{fill:url(#linear-gradient-45);}.cls-50{fill:url(#linear-gradient-46);}.cls-51{fill:url(#linear-gradient-47);}.cls-52{fill:url(#linear-gradient-48);}.cls-53{fill:url(#linear-gradient-49);}.cls-54{fill:url(#linear-gradient-50);}.cls-55{fill:url(#linear-gradient-51);}.cls-56{fill:url(#linear-gradient-52);}.cls-57{fill:url(#linear-gradient-53);}.cls-58{fill:url(#linear-gradient-54);}.cls-59{fill:url(#linear-gradient-55);}.cls-60{fill:url(#linear-gradient-56);}.cls-61{fill:url(#linear-gradient-57);}.cls-62{fill:url(#linear-gradient-58);}.cls-63{fill:url(#linear-gradient-59);}.cls-64{fill:url(#linear-gradient-60);}.cls-65{fill:url(#linear-gradient-61);}.cls-66{fill:url(#linear-gradient-62);}.cls-67{fill:url(#linear-gradient-63);}.cls-68{fill:url(#linear-gradient-64);}.cls-69{fill:url(#linear-gradient-65);}.cls-70{fill:url(#linear-gradient-66);}.cls-71{fill:url(#linear-gradient-67);}.cls-72{fill:url(#linear-gradient-68);}.cls-73{fill:url(#linear-gradient-69);}.cls-74{fill:url(#linear-gradient-70);}.cls-75{fill:url(#linear-gradient-71);}.cls-76{fill:url(#linear-gradient-72);}.cls-77{fill:url(#linear-gradient-73);}.cls-78{fill:url(#linear-gradient-74);}.cls-79{fill:url(#linear-gradient-75);}.cls-80{fill:url(#linear-gradient-76);}.cls-81{fill:url(#linear-gradient-77);}.cls-82{fill:url(#linear-gradient-78);}.cls-83{fill:url(#linear-gradient-79);}</style><linearGradient id="linear-gradient" x1="2545.6" y1="102.97" x2="748.19" y2="1431.91" gradientTransform="translate(-252.59)" gradientUnits="userSpaceOnUse"><stop offset="0" stop-color="#dae3fe"/><stop offset="1" stop-color="#e9effd"/></linearGradient><linearGradient id="linear-gradient-2" x1="1594.86" y1="1308.24" x2="2126.95" y2="1308.24" gradientTransform="matrix(1, 0, 0, 1, 0, 0)" xlink:href="#linear-gradient"/><linearGradient id="linear-gradient-3" x1="1570.55" y1="775.51" x2="1975.77" y2="775.51" gradientTransform="matrix(1, 0, 0, 1, 0, 0)" xlink:href="#linear-gradient"/><linearGradient id="linear-gradient-4" x1="2209.19" y1="-122.23" x2="1445.19" y2="341.77" gradientUnits="userSpaceOnUse"><stop offset="0" stop-color="#4042e2"/><stop offset="1" stop-color="#4f52ff"/></linearGradient><linearGradient id="linear-gradient-5" x1="662.71" y1="833.02" x2="642.71" y2="517.02" gradientUnits="userSpaceOnUse"><stop offset="0" stop-color="#fe7062"/><stop offset="1" stop-color="#ff928e"/></linearGradient><linearGradient id="linear-gradient-6" x1="646.85" y1="1041.54" x2="638.85" y2="1397.53" xlink:href="#linear-gradient-5"/><linearGradient id="linear-gradient-7" x1="560.76" y1="871.28" x2="782.36" y2="724.78" xlink:href="#linear-gradient-5"/><linearGradient id="linear-gradient-8" x1="600.2" y1="943.54" x2="764.35" y2="835.02" xlink:href="#linear-gradient-5"/><linearGradient id="linear-gradient-9" x1="563.11" y1="1010.3" x2="727.26" y2="901.78" xlink:href="#linear-gradient-5"/><linearGradient id="linear-gradient-10" x1="638.5" y1="-426" x2="638.5" y2="514" xlink:href="#linear-gradient-4"/><linearGradient id="linear-gradient-11" x1="638.5" y1="-426" x2="638.5" y2="514" xlink:href="#linear-gradient-4"/><linearGradient id="linear-gradient-12" x1="1428.97" y1="511.93" x2="1221.98" y2="739.92" gradientUnits="userSpaceOnUse"><stop offset="0" stop-color="#09005d"/><stop offset="1" stop-color="#1a0f91"/></linearGradient><linearGradient id="linear-gradient-13" x1="752.05" y1="691.81" x2="1197.35" y2="691.81" gradientTransform="matrix(1, 0, 0, 1, 0, 0)" xlink:href="#linear-gradient"/><linearGradient id="linear-gradient-14" x1="751.55" y1="720.63" x2="1196.84" y2="720.63" gradientTransform="matrix(1, 0, 0, 1, 0, 0)" xlink:href="#linear-gradient"/><linearGradient id="linear-gradient-15" x1="871.79" y1="936.29" x2="1179.86" y2="936.29" gradientTransform="matrix(1, 0, 0, 1, 0, 0)" xlink:href="#linear-gradient"/><linearGradient id="linear-gradient-16" x1="369.51" y1="3684.45" x2="73.81" y2="4189.14" gradientTransform="translate(508.42 -3005.41) rotate(-0.85)" xlink:href="#linear-gradient-5"/><linearGradient id="linear-gradient-17" x1="875.25" y1="806.26" x2="1183.31" y2="806.26" gradientTransform="matrix(1, 0, 0, 1, 0, 0)" xlink:href="#linear-gradient"/><linearGradient id="linear-gradient-18" x1="764.96" y1="789.13" x2="832.02" y2="789.13" xlink:href="#linear-gradient-5"/><linearGradient id="linear-gradient-19" x1="873.63" y1="1060.4" x2="1181.7" y2="1060.4" gradientTransform="matrix(1, 0, 0, 1, 0, 0)" xlink:href="#linear-gradient"/><linearGradient id="linear-gradient-20" x1="423.65" y1="3716.17" x2="127.95" y2="4220.86" gradientTransform="translate(508.42 -3005.41) rotate(-0.85)" xlink:href="#linear-gradient-5"/><linearGradient id="linear-gradient-21" x1="869.98" y1="1179.66" x2="1178.05" y2="1179.66" gradientTransform="matrix(1, 0, 0, 1, 0, 0)" xlink:href="#linear-gradient"/><linearGradient id="linear-gradient-22" x1="463.75" y1="3835.65" x2="74.67" y2="4378.13" gradientTransform="translate(508.42 -3005.41) rotate(-0.85)" xlink:href="#linear-gradient-5"/><linearGradient id="linear-gradient-23" x1="865.22" y1="1302.66" x2="1173.29" y2="1302.66" gradientTransform="matrix(1, 0, 0, 1, 0, 0)" xlink:href="#linear-gradient"/><linearGradient id="linear-gradient-24" x1="519.92" y1="3773.46" x2="224.22" y2="4278.15" gradientTransform="translate(508.42 -3005.41) rotate(-0.85)" xlink:href="#linear-gradient-5"/><linearGradient id="linear-gradient-25" x1="1167.65" y1="-111.34" x2="938.35" y2="190.3" gradientTransform="translate(13.07 5.22) rotate(29.12)" xlink:href="#linear-gradient-12"/><linearGradient id="linear-gradient-26" x1="612.68" y1="3318.56" x2="375.98" y2="3629.93" gradientTransform="translate(519.4 -2886.89) rotate(1.01)" xlink:href="#linear-gradient-12"/><linearGradient id="linear-gradient-27" x1="582.85" y1="3337.6" x2="419.41" y2="3637.71" gradientTransform="translate(519.4 -2886.89) rotate(1.01)" xlink:href="#linear-gradient-12"/><linearGradient id="linear-gradient-28" x1="1747.87" y1="740.89" x2="1747.87" y2="845.89" xlink:href="#linear-gradient-5"/><linearGradient id="linear-gradient-29" x1="-3006.54" y1="670.23" x2="-2955.46" y2="670.23" gradientTransform="matrix(-1, 0, 0, 1, -1300.59, 0)" gradientUnits="userSpaceOnUse"><stop offset="0" stop-color="#ff928e"/><stop offset="1" stop-color="#feb3b1"/></linearGradient><linearGradient id="linear-gradient-30" x1="-3171.76" y1="1094.61" x2="-3137.69" y2="1094.61" gradientTransform="matrix(-1, 0, 0, 1, -1300.59, 0)" xlink:href="#linear-gradient-12"/><linearGradient id="linear-gradient-31" x1="-3168.3" y1="1078.78" x2="-3154.48" y2="1078.78" xlink:href="#linear-gradient-29"/><linearGradient id="linear-gradient-32" x1="-3099.3" y1="1094.07" x2="-3045.83" y2="1094.07" gradientTransform="matrix(-1, 0, 0, 1, -1300.59, 0)" xlink:href="#linear-gradient-12"/><linearGradient id="linear-gradient-33" x1="-3098.49" y1="1072.64" x2="-3084.74" y2="1072.64" xlink:href="#linear-gradient-29"/><linearGradient id="linear-gradient-34" x1="-3176.89" y1="950.74" x2="-3083.2" y2="950.74" gradientTransform="matrix(-1, 0, 0, 1, -1300.59, 0)" xlink:href="#linear-gradient-12"/><linearGradient id="linear-gradient-35" x1="1768.26" y1="711.79" x2="1823.75" y2="834.78" xlink:href="#linear-gradient-12"/><linearGradient id="linear-gradient-36" x1="1936.38" y1="587.61" x2="1702.36" y2="887.64" xlink:href="#linear-gradient-5"/><linearGradient id="linear-gradient-37" x1="-2959.14" y1="473.55" x2="-2957.64" y2="593.55" xlink:href="#linear-gradient-29"/><linearGradient id="linear-gradient-38" x1="-2911.46" y1="472.96" x2="-2909.96" y2="592.95" xlink:href="#linear-gradient-29"/><linearGradient id="linear-gradient-39" x1="-3015.04" y1="598.39" x2="-3121.92" y2="794.78" xlink:href="#linear-gradient-29"/><linearGradient id="linear-gradient-40" x1="1499.4" y1="477.45" x2="1623.4" y2="901.45" xlink:href="#linear-gradient-4"/><linearGradient id="linear-gradient-41" x1="-2734.38" y1="1261.98" x2="-2781.62" y2="1324.47" gradientTransform="matrix(-0.82, -0.58, -0.58, 0.82, 241.93, -1973.39)" xlink:href="#linear-gradient-29"/><linearGradient id="linear-gradient-42" x1="-2770.46" y1="1277.06" x2="-2714.03" y2="1277.06" gradientTransform="matrix(-0.82, -0.58, -0.58, 0.82, 241.93, -1973.39)" xlink:href="#linear-gradient-12"/><linearGradient id="linear-gradient-43" x1="-2803.57" y1="1311.47" x2="-2765.68" y2="1272.6" gradientTransform="matrix(-0.82, -0.58, -0.58, 0.82, 241.93, -1973.39)" xlink:href="#linear-gradient-29"/><linearGradient id="linear-gradient-44" x1="1394.81" y1="1285.39" x2="1886.53" y2="525.45" xlink:href="#linear-gradient-4"/><linearGradient id="linear-gradient-45" x1="1740.12" y1="1142.91" x2="711.97" y2="2146.99" xlink:href="#linear-gradient-4"/><linearGradient id="linear-gradient-46" x1="1152.21" y1="1102.83" x2="1578.6" y2="1917.78" xlink:href="#linear-gradient-4"/><linearGradient id="linear-gradient-47" x1="-1683.45" y1="1033.93" x2="-1650.92" y2="1115.53" gradientTransform="matrix(-1, 0, 0, 1, -615.03, 0)" xlink:href="#linear-gradient-12"/><linearGradient id="linear-gradient-48" x1="-1888.78" y1="25.88" x2="-1828.69" y2="162.6" gradientTransform="matrix(-0.92, -0.39, -0.39, 0.92, -572.62, 345.12)" xlink:href="#linear-gradient-29"/><linearGradient id="linear-gradient-49" x1="-1564.53" y1="1556.33" x2="-1536.95" y2="1556.33" gradientTransform="matrix(-1, 0, 0, 1, -615.03, 0)" xlink:href="#linear-gradient-4"/><linearGradient id="linear-gradient-50" x1="-1681.09" y1="1665.1" x2="-1641.39" y2="1201.17" gradientTransform="matrix(-1, 0, 0, 1, -615.03, 0)" xlink:href="#linear-gradient-29"/><linearGradient id="linear-gradient-51" x1="-1692.68" y1="1551.29" x2="-1648.05" y2="1551.29" gradientTransform="matrix(-1, 0, 0, 1, -615.03, 0)" xlink:href="#linear-gradient-4"/><linearGradient id="linear-gradient-52" x1="-1601.24" y1="1672.01" x2="-1561.53" y2="1207.96" gradientTransform="matrix(-1, 0, 0, 1, -615.03, 0)" xlink:href="#linear-gradient-29"/><linearGradient id="linear-gradient-53" x1="1056.69" y1="1217.56" x2="1276.69" y2="1023.56" xlink:href="#linear-gradient-5"/><linearGradient id="linear-gradient-54" x1="-1711.38" y1="1151.51" x2="-1574.4" y2="1627.13" gradientTransform="matrix(-1, 0, 0, 1, -615.03, 0)" xlink:href="#linear-gradient-12"/><linearGradient id="linear-gradient-55" x1="-1685.44" y1="1207.81" x2="-1677.98" y2="1153.26" gradientTransform="matrix(-1, 0, 0, 1, -615.03, 0)" xlink:href="#linear-gradient-29"/><linearGradient id="linear-gradient-56" x1="1154.19" y1="1202.48" x2="1580.58" y2="562.89" xlink:href="#linear-gradient-4"/><linearGradient id="linear-gradient-57" x1="6940.28" y1="4102.91" x2="7034.75" y2="4102.91" gradientTransform="matrix(0.45, 0.89, 0.89, -0.45, -5687.06, -3230.07)" xlink:href="#linear-gradient-29"/><linearGradient id="linear-gradient-58" x1="-1704.26" y1="1137.48" x2="-1639.2" y2="1021.7" gradientTransform="matrix(-1, 0, 0, 1, -615.03, 0)" xlink:href="#linear-gradient-29"/><linearGradient id="linear-gradient-59" x1="-1690.27" y1="1036.65" x2="-1657.74" y2="1118.25" gradientTransform="matrix(-1, 0, 0, 1, -615.03, 0)" xlink:href="#linear-gradient-12"/><linearGradient id="linear-gradient-60" x1="-1690.41" y1="1145.26" x2="-1625.35" y2="1029.48" gradientTransform="matrix(-1, 0, 0, 1, -615.03, 0)" xlink:href="#linear-gradient-29"/><linearGradient id="linear-gradient-61" x1="2174.24" y1="938.76" x2="2134.34" y2="1061.06" gradientTransform="matrix(1, 0, 0, 1, 0, 0)" xlink:href="#linear-gradient-29"/><linearGradient id="linear-gradient-62" x1="2165.79" y1="1373.38" x2="2249.86" y2="1373.38" gradientTransform="matrix(1, 0, 0, 1, 0, 0)" xlink:href="#linear-gradient-29"/><linearGradient id="linear-gradient-63" x1="2281.35" y1="1185.36" x2="2239.72" y2="1456" xlink:href="#linear-gradient-4"/><linearGradient id="linear-gradient-64" x1="2193.25" y1="1171.81" x2="2151.62" y2="1442.45" xlink:href="#linear-gradient-4"/><linearGradient id="linear-gradient-65" x1="2114.77" y1="1379.63" x2="2163.46" y2="1379.63" gradientTransform="matrix(1, 0, 0, 1, 0, 0)" xlink:href="#linear-gradient-29"/><linearGradient id="linear-gradient-66" x1="2087.49" y1="1151.07" x2="2357.51" y2="962.06" xlink:href="#linear-gradient-5"/><linearGradient id="linear-gradient-67" x1="2507.91" y1="946.17" x2="2192.88" y2="1198.2" xlink:href="#linear-gradient-12"/><linearGradient id="linear-gradient-68" x1="2129.53" y1="1061.15" x2="2159.33" y2="1061.15" gradientTransform="matrix(1, 0, 0, 1, 0, 0)" xlink:href="#linear-gradient-29"/><linearGradient id="linear-gradient-69" x1="2176.88" y1="1022.65" x2="2393.74" y2="1037.39" gradientTransform="matrix(1, 0, 0, 1, 0, 0)" xlink:href="#linear-gradient-29"/><linearGradient id="linear-gradient-70" x1="2212.53" y1="1009.58" x2="2136.19" y2="1162.24" xlink:href="#linear-gradient-12"/><linearGradient id="linear-gradient-71" x1="2176.92" y1="659.2" x2="1796.92" y2="1303.2" xlink:href="#linear-gradient-4"/><linearGradient id="linear-gradient-72" x1="2009.89" y1="1010.21" x2="2105.21" y2="1010.21" gradientTransform="matrix(1, 0, 0, 1, 0, 0)" xlink:href="#linear-gradient-29"/><linearGradient id="linear-gradient-73" x1="1902.21" y1="91.06" x2="1848.88" y2="153.06" xlink:href="#linear-gradient-5"/><linearGradient id="linear-gradient-74" x1="1825.1" y1="331.75" x2="1763.1" y2="249.75" xlink:href="#linear-gradient-4"/><linearGradient id="linear-gradient-75" x1="1815.93" y1="183.99" x2="1777.93" y2="250.99" xlink:href="#linear-gradient-4"/><linearGradient id="linear-gradient-76" x1="2449.72" y1="-438.79" x2="2233.69" y2="-186.77" xlink:href="#linear-gradient-4"/><linearGradient id="linear-gradient-77" x1="2024.93" y1="83.06" x2="1980.93" y2="163.06" xlink:href="#linear-gradient-5"/><linearGradient id="linear-gradient-78" x1="-1711.39" y1="2091.02" x2="-1676.57" y2="2091.02" gradientTransform="matrix(0.01, -1, -1, -0.01, 3992.91, -1411.05)" xlink:href="#linear-gradient-12"/><linearGradient id="linear-gradient-79" x1="-1705.69" y1="2132.12" x2="-1682.69" y2="2132.12" gradientTransform="matrix(0.01, -1, -1, -0.01, 3992.91, -1411.05)" xlink:href="#linear-gradient-12"/></defs><g id="Illustration"><path class="cls-1" d="M2254.92,725.77c-57.76-80.63-180.19-123.83-183.37-244.66C2069.48,402.6,2105.13,360,2048.09,293c-137.9-162-350.39-181-531.84-113.31s-326.33,203.27-528,195.1c-109.82-4.45-211.85-56.56-320.56-66.33-33.49-3-64.78-.43-94,7.06C464,343.63,367.11,449.11,330.64,566.3c-29.56,95,8.21,188.78-38.21,281.8C243,947.26,145.51,1016.13,121,1130.6,91.49,1268,204.07,1387.47,325,1391.21c77,2.37,219.65-9.92,285-57.4,79.62-57.81,177.45,88.84,270.27,91.06,176.65,4.21,449.72-42.25,624.09-14,149.41,24.24,180.67-4.1,332.09.46,111.21,3.34,205.59,4.85,265.76-115.9C2174.17,1151.14,2376.08,894.88,2254.92,725.77Z"/><path class="cls-2" d="M602.12,782.81s-133.55-35.75-189.52-192c-54.4-151.9-94.37-371.1-281.8-403.44a7.34,7.34,0,0,0-7.39,11.25c20.74,31.69,71.22,115.1,95.28,209.73C249.41,529.11,383.78,804,602.12,782.81Z"/><path class="cls-3" d="M179.62,235.78l.77.33.63.3c.41.19.81.39,1.19.59.78.39,1.53.8,2.28,1.21q2.23,1.23,4.4,2.56c1.45.86,2.85,1.8,4.27,2.71s2.79,1.87,4.15,2.86A189.76,189.76,0,0,1,213,258.89a212.86,212.86,0,0,1,27.21,29.34,254.26,254.26,0,0,1,21.73,33.51,272.9,272.9,0,0,1,16.27,36.4,330.77,330.77,0,0,1,11.26,38.15l2.12,9.71,1.8,9.77c.62,3.28,1.14,6.43,1.71,9.65s1.11,6.41,1.78,9.6A588.91,588.91,0,0,0,317,510.49l3.17,9.25,3.38,9.18c1.1,3.07,2.3,6.1,3.49,9.13s2.35,6.09,3.63,9.08c4.92,12.08,10.34,24,16,35.7s11.85,23.25,18.29,34.6,13.45,22.38,20.74,33.21,15.14,21.28,23.33,31.45,16.93,19.9,26.07,29.24a314.87,314.87,0,0,0,29.06,26.3A281.14,281.14,0,0,0,496.35,760a282.63,282.63,0,0,1-32.85-21.6,318.17,318.17,0,0,1-29.84-25.67,389.61,389.61,0,0,1-26.91-28.8q-12.67-15.12-24.12-31.21t-21.54-33.05C354.37,608.37,348,596.87,342,585.15s-11.53-23.67-16.68-35.79c-1.34-3-2.53-6.08-3.8-9.11s-2.51-6.09-3.67-9.17l-3.54-9.22L311,512.57a595.42,595.42,0,0,1-21.44-76.06c-.72-3.22-1.34-6.46-1.95-9.7l-1.84-9.68-1.84-9.55-2.15-9.47A320.58,320.58,0,0,0,270.47,361a262.53,262.53,0,0,0-37-67.62c-3.95-5.07-8-10.05-12.42-14.74s-8.84-9.32-13.62-13.61a181.4,181.4,0,0,0-14.87-12.14c-2.58-1.88-5.22-3.69-7.9-5.38-1.33-.86-2.69-1.67-4-2.45-.68-.39-1.36-.78-2-1.13-.34-.19-.67-.37-1-.52l-.48-.24-.35-.17-.33-.15a3.87,3.87,0,0,1,3.17-7.07Z"/><path class="cls-2" d="M1081.61,474.33a2.07,2.07,0,0,1-1.26-.43,2.1,2.1,0,0,1-.41-2.95c1.7-2.25,3.46-4.49,5.25-6.67a2.1,2.1,0,1,1,3.25,2.66c-1.74,2.14-3.48,4.35-5.15,6.55A2.09,2.09,0,0,1,1081.61,474.33Z"/><path class="cls-2" d="M1474.82,564.38a2.1,2.1,0,0,1-2.06-1.69c-1.11-5.58-2.46-11.18-4-16.66a2.1,2.1,0,0,1,4-1.14c1.58,5.58,3,11.29,4.09,17a2.11,2.11,0,0,1-1.66,2.47A1.84,1.84,0,0,1,1474.82,564.38Zm-13.4-43.3a2.12,2.12,0,0,1-1.94-1.28c-2.22-5.22-4.69-10.42-7.34-15.48a2.1,2.1,0,0,1,3.73-1.95c2.7,5.15,5.22,10.46,7.49,15.78a2.12,2.12,0,0,1-1.11,2.76A2.2,2.2,0,0,1,1461.42,521.08Zm-22-39.66a2.09,2.09,0,0,1-1.73-.9c-3.25-4.69-6.72-9.29-10.31-13.68a2.11,2.11,0,0,1,3.26-2.67c3.65,4.49,7.19,9.18,10.5,13.95a2.09,2.09,0,0,1-.53,2.92A2,2,0,0,1,1439.46,481.42ZM1106,447.15a2.13,2.13,0,0,1-1.53-.65,2.1,2.1,0,0,1,.09-3c4.2-4,8.63-7.84,13.14-11.48a2.1,2.1,0,1,1,2.65,3.27c-4.44,3.58-8.78,7.37-12.9,11.27A2.13,2.13,0,0,1,1106,447.15Zm304-.12a2.05,2.05,0,0,1-1.44-.58c-4.13-3.9-8.46-7.7-12.88-11.27a2.1,2.1,0,1,1,2.64-3.27c4.51,3.64,8.93,7.51,13.13,11.49a2.1,2.1,0,0,1-1.45,3.63Zm-268-27.48a2.11,2.11,0,0,1-1.1-3.9c4.94-3,10.06-5.94,15.19-8.59a2.1,2.1,0,1,1,1.93,3.74c-5,2.6-10.06,5.43-14.91,8.43A2.07,2.07,0,0,1,1141.91,419.55Zm232.09-.11a2.16,2.16,0,0,1-1.11-.32c-4.82-3-9.84-5.79-14.92-8.39a2.11,2.11,0,0,1,1.92-3.75c5.17,2.65,10.29,5.53,15.21,8.56a2.11,2.11,0,0,1-1.1,3.9Zm-191.29-19.66a2.11,2.11,0,0,1-.72-4.09c5.45-2,11-3.76,16.64-5.31a2.11,2.11,0,0,1,1.12,4.06c-5.48,1.51-11,3.27-16.32,5.21A2.28,2.28,0,0,1,1182.71,399.78Zm150.46,0a2.27,2.27,0,0,1-.72-.12c-5.34-1.93-10.84-3.67-16.32-5.18a2.1,2.1,0,0,1,1.11-4.06c5.59,1.54,11.19,3.31,16.64,5.28a2.1,2.1,0,0,1-.71,4.08Zm-44-10.95-.3,0c-5.62-.81-11.36-1.4-17-1.77a2.1,2.1,0,0,1-2-2.23,2.15,2.15,0,0,1,2.24-2c5.79.37,11.64,1,17.37,1.8a2.11,2.11,0,0,1-.3,4.19Zm-62.51,0a2.1,2.1,0,0,1-.29-4.18c5.74-.82,11.59-1.42,17.37-1.79a2.13,2.13,0,0,1,2.23,2,2.1,2.1,0,0,1-2,2.23c-5.67.36-11.4.95-17,1.75A1.51,1.51,0,0,1,1226.68,388.78Z"/><path class="cls-2" d="M1479,600.72a2.11,2.11,0,0,1-2.1-2c-.08-2.76-.22-5.56-.41-8.32a2.11,2.11,0,0,1,2-2.25,2.15,2.15,0,0,1,2.24,2c.19,2.81.33,5.67.42,8.48a2.12,2.12,0,0,1-2,2.17Z"/><path class="cls-2" d="M1416.74,761.55a2.11,2.11,0,0,1-1.51-3.57c1.94-2,3.85-4.05,5.69-6.09a2.1,2.1,0,1,1,3.13,2.81c-1.87,2.08-3.82,4.17-5.8,6.21A2.11,2.11,0,0,1,1416.74,761.55Z"/><path class="cls-2" d="M1258.21,828.72h-1.91a2.1,2.1,0,0,1,0-4.2h1.89c5,0,10-.17,15-.51a2.15,2.15,0,0,1,2.24,2,2.1,2.1,0,0,1-2,2.24C1268.41,828.54,1263.27,828.72,1258.21,828.72Zm-29.45-2-.29,0c-5.64-.76-11.34-1.75-16.92-2.93a2.11,2.11,0,1,1,.88-4.12c5.47,1.16,11.06,2.13,16.6,2.88a2.1,2.1,0,0,1-.27,4.19Zm72-2.18a2.1,2.1,0,0,1-.4-4.16c5.5-1.09,11-2.4,16.4-3.9a2.11,2.11,0,0,1,1.13,4.06c-5.49,1.53-11.11,2.86-16.72,4A2.73,2.73,0,0,1,1300.73,824.58Zm-115.37-8.15a2.09,2.09,0,0,1-.69-.12c-5.4-1.87-10.78-4-16-6.25a2.11,2.11,0,0,1,1.69-3.86c5.11,2.23,10.4,4.3,15.69,6.14a2.1,2.1,0,0,1-.69,4.09Zm158-4.86a2.11,2.11,0,0,1-.81-4.05c5.14-2.15,10.28-4.55,15.28-7.12a2.1,2.1,0,0,1,1.92,3.74c-5.1,2.62-10.34,5.06-15.57,7.26A2,2,0,0,1,1343.4,811.57Zm-198.48-13.94a2.11,2.11,0,0,1-1.08-.29c-4.89-2.91-9.74-6.05-14.41-9.34a2.1,2.1,0,1,1,2.42-3.44c4.58,3.23,9.34,6.31,14.14,9.16a2.1,2.1,0,0,1-1.07,3.91Zm237.67-7.39a2.1,2.1,0,0,1-1.19-3.84c4.63-3.15,9.19-6.53,13.56-10a2.11,2.11,0,0,1,2.63,3.29c-4.46,3.56-9.1,7-13.82,10.21A2.12,2.12,0,0,1,1382.59,790.24Zm-273.5-19.15a2.07,2.07,0,0,1-1.41-.55c-4.21-3.84-8.32-7.89-12.24-12.06a2.1,2.1,0,0,1,3.07-2.88c3.84,4.09,7.88,8.07,12,11.83a2.1,2.1,0,0,1-1.42,3.66Zm-29.73-33.24a2.09,2.09,0,0,1-1.7-.87c-2.64-3.63-5.21-7.39-7.64-11.19-.65-1-1.3-2-1.93-3.08a2.1,2.1,0,0,1,3.58-2.21c.62,1,1.25,2,1.89,3,2.39,3.73,4.91,7.43,7.5,11a2.09,2.09,0,0,1-.46,2.93A2.07,2.07,0,0,1,1079.36,737.85Zm-22.52-38.51a2.12,2.12,0,0,1-1.92-1.23c-2.37-5.19-4.57-10.53-6.53-15.89a2.1,2.1,0,0,1,3.95-1.45c1.93,5.26,4.08,10.5,6.41,15.59a2.1,2.1,0,0,1-1,2.79A2.07,2.07,0,0,1,1056.84,699.34ZM1042.5,657.1a2.1,2.1,0,0,1-2-1.63c-1.28-5.56-2.35-11.24-3.19-16.89a2.1,2.1,0,1,1,4.16-.62c.82,5.54,1.88,11.12,3.13,16.57a2.11,2.11,0,0,1-1.58,2.52A2.59,2.59,0,0,1,1042.5,657.1Z"/><path class="cls-2" d="M1037,612.75a2.1,2.1,0,0,1-2.1-2c-.06-2.81-.07-5.66,0-8.5a2.14,2.14,0,0,1,2.14-2.07,2.11,2.11,0,0,1,2.07,2.14c0,2.78,0,5.58,0,8.33a2.11,2.11,0,0,1-2.06,2.15Z"/><path class="cls-2" d="M1089.88,581.62a2.66,2.66,0,0,0,1.12,2.87l27,17.71a140.76,140.76,0,0,0,6.55,45.09l-20.83,24.65a2.65,2.65,0,0,0-.25,3.07l19.82,33.28a2.66,2.66,0,0,0,2.82,1.24L1157.7,703a140.72,140.72,0,0,0,36.54,27.23l2.7,32.18a2.66,2.66,0,0,0,2,2.35l37.54,9.51a2.65,2.65,0,0,0,2.87-1.11l17.7-27a140.5,140.5,0,0,0,45.1-6.55l24.65,20.83a2.65,2.65,0,0,0,3.07.25l33.28-19.82a2.64,2.64,0,0,0,1.24-2.81l-6.58-31.6a140.72,140.72,0,0,0,27.24-36.53l32.17-2.71a2.63,2.63,0,0,0,2.35-2l9.52-37.54a2.64,2.64,0,0,0-1.12-2.87l-27-17.71a140.86,140.86,0,0,0-6.55-45.1l20.83-24.64a2.65,2.65,0,0,0,.25-3.07L1395.68,501a2.66,2.66,0,0,0-2.82-1.24l-31.59,6.57a140.56,140.56,0,0,0-36.54-27.23l-2.7-32.18a2.67,2.67,0,0,0-2-2.35L1282.49,435a2.66,2.66,0,0,0-2.87,1.11l-17.7,27a140.49,140.49,0,0,0-45.1,6.54l-24.65-20.82a2.67,2.67,0,0,0-3.07-.26l-33.27,19.82a2.65,2.65,0,0,0-1.24,2.82l6.57,31.6a140.72,140.72,0,0,0-27.24,36.53l-32.17,2.71a2.64,2.64,0,0,0-2.35,2Z"/><path class="cls-3" d="M1259.49,642.18h0a37.56,37.56,0,1,1,26.56-11A37.31,37.31,0,0,1,1259.45,642.18Zm0-68.79a31.24,31.24,0,0,0,0,62.48h0a31.24,31.24,0,0,0,0-62.48Z"/><path class="cls-3" d="M1260.46,701.36a96.72,96.72,0,0,1-91.77-65.84l6-2a90.48,90.48,0,0,0,103,59.88l.2,0,.21,0A90.3,90.3,0,1,0,1180.8,561.9l-5.56-3a96.64,96.64,0,1,1,85.22,142.45Z"/><path class="cls-3" d="M2198.75,1189.66c-46.39,57.9-330.11,383.8-683.76,172.49,0,0,131.56-262.64,679.79-182.63A6.28,6.28,0,0,1,2198.75,1189.66Z"/><path class="cls-4" d="M2126.53,1208.34c-20.88,11.24-42,22-63.16,32.65s-42.51,21-63.94,31.07-43,20-64.66,29.57-43.49,18.85-65.43,27.83c-43.9,17.89-88.35,34.51-133.64,48.67q-33.93,10.72-68.61,18.93a597.74,597.74,0,0,1-70.13,12.58,1.89,1.89,0,0,1-.42-3.76h0a596.78,596.78,0,0,0,69.74-12.23q34.53-8,68.44-18.61c45.23-14,89.68-30.37,133.59-48.07q32.93-13.34,65.47-27.55t64.72-29.3q32.19-15,64-30.81c21.21-10.52,42.34-21.24,63.23-32.37h0a.8.8,0,0,1,.75,1.41Z"/><path class="cls-2" d="M1588.31,1231.08s21.84-107.37,150.18-196.76c119.08-82.93,409.13-272.15,489.72-391.45a5.89,5.89,0,0,1,10.71,4.25c-11.54,67.43-53.71,234-200.49,380.65C1849.16,1216.81,1588.31,1231.08,1588.31,1231.08Z"/><path class="cls-3" d="M2167.06,756.23c-4.57,14.44-10.94,28.25-18,41.62-.88,1.68-1.72,3.37-2.63,5l-2.81,4.93-5.63,9.87-6,9.63c-2.05,3.19-4,6.47-6.2,9.53a535.82,535.82,0,0,1-57.25,70.6c-5,5.68-10.67,10.79-16.08,16.1s-10.77,10.71-16.59,15.59l-17.11,15c-2.79,2.57-5.85,4.83-8.81,7.2l-8.93,7-8.94,7.05-4.48,3.51-4.63,3.3-18.54,13.2c-3.1,2.17-6.15,4.46-9.3,6.54l-9.46,6.26-18.92,12.52c-25.36,16.47-50.85,32.76-76.72,48.41-12.87,7.93-25.87,15.64-38.83,23.42L1772,1115.52c-26.07,15.25-52.17,30.45-77.7,46.46-6.45,3.92-12.68,8.15-19,12.27-3.18,2-6.21,4.25-9.3,6.41s-6.18,4.3-9.18,6.55c-5.92,4.64-12,9.07-17.59,14.1-5.86,4.74-11.06,10.16-16.45,15.41l0,0a.9.9,0,0,1-1.29-1.24,266.67,266.67,0,0,1,33.45-30.81c3-2.35,6.06-4.55,9.08-6.83s6.06-4.58,9.2-6.69c6.23-4.3,12.4-8.71,18.77-12.8,25.29-16.65,51.29-32.09,77.12-47.76l38.75-23.46c12.89-7.86,25.82-15.64,38.62-23.63q38.54-23.77,76.43-48.53l18.86-12.5,9.43-6.26c3.15-2.08,6.17-4.3,9.26-6.44l18.45-13,4.61-3.25,4.46-3.45,8.89-6.94a667.66,667.66,0,0,0,67.6-59.61,532.09,532.09,0,0,0,58.32-68.74c2.29-3,4.25-6.21,6.41-9.3l6.33-9.35,5.94-9.6,3-4.81c1-1.62,1.85-3.28,2.78-4.91,1.83-3.3,3.75-6.54,5.49-9.88l5.14-10.07a221.31,221.31,0,0,0,9-20.75.12.12,0,0,1,.14-.08A.11.11,0,0,1,2167.06,756.23Z"/><path class="cls-3" d="M2010.25,400c.17-6.94-9.09-9.51-12.49-3.45C1965,455.1,1874.1,606,1774.1,673.48,1611.27,783.42,1470.23,991.79,1524,1130.37,1524,1130.37,1991.37,1156.23,2010.25,400Z"/><path class="cls-5" d="M1975.74,486.53c-.64,1.91-1.37,3.55-2,5.3l-2.15,5.14-4.41,10.22c-3,6.79-6,13.56-9.1,20.31q-9.26,20.24-19,40.26c-13,26.69-26.63,53-40.7,79.18s-28.77,51.93-44,77.4l-5.7,9.56-5.82,9.48c-3.91,6.31-7.71,12.69-11.73,18.93l-11.92,18.81L1807,799.74c-32.8,49.49-68.2,97.32-106.86,142.44-1.21,1.41-2.39,2.84-3.62,4.23l-3.72,4.15-7.42,8.3-7.43,8.31c-2.51,2.73-5.09,5.4-7.63,8.11l-7.65,8.09c-2.58,2.68-5.05,5.45-7.72,8l-15.8,15.71a783.42,783.42,0,0,1-67.42,58.17.71.71,0,0,1-.88-1.12h0a840.39,840.39,0,0,0,66.22-59.15l15.59-15.81c2.63-2.6,5.07-5.39,7.61-8.08l7.55-8.14c2.51-2.72,5-5.41,7.53-8.16l7.32-8.35,7.31-8.35,3.66-4.17c1.21-1.4,2.38-2.84,3.57-4.26l14.24-17c4.71-5.71,9.26-11.55,13.9-17.31,2.3-2.9,4.64-5.77,6.91-8.7l6.74-8.82,6.74-8.83c2.25-2.93,4.49-5.88,6.66-8.88,17.71-23.74,34.47-48.16,51-72.75,32.85-49.3,63.16-100.27,91.83-152.13q21.43-38.94,41.36-78.69,10-19.86,19.57-39.92c3.16-6.7,6.31-13.4,9.38-20.14l4.56-10.14,2.22-5.09c.7-1.69,1.47-3.44,2-5l.06-.15a.7.7,0,0,1,.91-.42A.71.71,0,0,1,1975.74,486.53Z"/><path class="cls-6" d="M907.69,619.2C947.69,577,968,521.14,968,463V333.48l-329.5-9.89L309,333.48V463c0,58.12,20,114,60,156.18L538.12,798.7c17.55,18.5,17,47.5-.57,66L369.27,1044.2c-40,42.16-60.27,98.06-60.27,156.17v129.55l329.5,9.89,329.5-9.89V1200.37c0-58.11-20.31-114-60.31-156.17L738.39,864.7c-17.55-18.5-18-47.5-.5-66Z"/><path class="cls-3" d="M793.18,998.29s-87.4-63.21-100.55-166.59c13.15-103.38,100.55-166.59,100.55-166.59,211.09-148.36,132.2-331.61,132.2-331.61l-288-9.91L350.7,333.5S272.5,516.75,483.59,665.11c0,0,88,63.21,101.22,166.59C571.57,935.08,483.59,998.29,483.59,998.29,272.5,1146.64,350.7,1329.9,350.7,1329.9l286.65,9.91,288-9.91S1004.27,1146.64,793.18,998.29Z"/><path class="cls-7" d="M576.91,704.19a115.25,115.25,0,0,1,46,57.56c.57,1.57,1.1,4.81,1.59,6.34,1.93,6.09,7.58,11.91,14,11.91h.18c10,0,19-8.2,22.53-17.6a113.93,113.93,0,0,1,44.71-55.67C860.14,606.25,890.38,504,890.38,504h-497S423.5,604,576.91,704.19Z"/><path class="cls-8" d="M708.11,1130.06c-21.18-13.82-37.55-35.24-46.72-58.81-1.08-2.78-2.07-6.2-2.94-8.91a16.35,16.35,0,0,0-15.3-11.49,24.72,24.72,0,0,0-23.32,16.07c-9,24.37-25.63,47.75-47.4,61.94C410.34,1234.56,378.55,1345,378.55,1345h523S869.79,1235.57,708.11,1130.06Z"/><path class="cls-9" d="M652.08,819.18a12.52,12.52,0,1,1-12.51-12.52A12.52,12.52,0,0,1,652.08,819.18Z"/><path class="cls-10" d="M667.85,905a9.28,9.28,0,1,1-9.28-9.27A9.28,9.28,0,0,1,667.85,905Z"/><path class="cls-11" d="M630.76,971.71a9.28,9.28,0,1,1-9.28-9.27A9.27,9.27,0,0,1,630.76,971.71Z"/><rect class="cls-12" x="246" y="270" width="785" height="94" rx="45.76"/><rect class="cls-13" x="246" y="1322" width="785" height="94" rx="45.76"/><path class="cls-14" d="M698.26,594.36l514.53,9a53.31,53.31,0,0,1,52.35,51.53L1290,1401.56a39.31,39.31,0,0,1-39.27,40.62l-589.9.37a37.33,37.33,0,0,1-37.34-38L636.7,653.8A60.51,60.51,0,0,1,698.26,594.36Z"/><path class="cls-2" d="M747.24,1431.65h0l-66-2a41,41,0,0,1-39.56-41.52l1.75-99.62a1.67,1.67,0,0,1,1.71-1.65,1.7,1.7,0,0,1,1.65,1.71l-1.75,99.62a37.6,37.6,0,0,0,36.31,38.1l66,2a1.68,1.68,0,0,1-.1,3.36Z"/><path class="cls-2" d="M645.63,1259.35a1.68,1.68,0,0,1-1.64-1.71l.28-16.14a1.68,1.68,0,0,1,1.71-1.65h0a1.68,1.68,0,0,1,1.64,1.71l-.28,16.13a1.69,1.69,0,0,1-1.71,1.66Z"/><path class="cls-2" d="M700,588.34c70.1,10.76,311.2,44.47,511.24,32.64a16.26,16.26,0,0,1,17.23,15.64l26.66,750a18.69,18.69,0,0,1-17.91,19.36c-84.11,3.5-430.46,16.65-553.65,1.55a14.81,14.81,0,0,1-13-14.89l9.19-787.11A17.57,17.57,0,0,1,700,588.34Z"/><path class="cls-3" d="M707.14,607.91c67.45,10.35,299.48,42.8,492,31.41a15.64,15.64,0,0,1,16.58,15l25.67,721.75a18,18,0,0,1-17.25,18.63c-80.93,3.37-414.24,16-532.79,1.49a14.26,14.26,0,0,1-12.52-14.33l8.85-757.47A16.91,16.91,0,0,1,707.14,607.91Z"/><path class="cls-15" d="M1193.54,702.6a3.7,3.7,0,0,0,3.8-3.92l-.11-2.4a4.37,4.37,0,0,0-4.19-4.09L754.3,681c-2.2,0-2.91,1.33-1.57,3.07l5.95,7.75a9.45,9.45,0,0,0,6.44,3.24Z"/><path class="cls-16" d="M753.79,709.84c-2.2-.06-2.9,1.33-1.56,3.07l5.94,7.74a9.42,9.42,0,0,0,6.44,3.25L1193,731.42a3.7,3.7,0,0,0,3.81-3.92l-.12-2.4a4.38,4.38,0,0,0-4.19-4.1Z"/><path class="cls-17" d="M825.52,973.1h-.16l-57.91.3c-8.35,0-15.32-5.6-16.22-13.13l-5.82-48.51a10.69,10.69,0,0,1,2.41-8.08,12.87,12.87,0,0,1,8.89-4.56h0c4.88-.4,11.6-1.08,19-1.82,16.09-1.61,34.34-3.44,45.07-3.73H821c7.67-.12,14.35,4.47,16.28,11.21,3.19,11.12,3.23,32.25,3,54.76C840.21,966.93,833.6,973,825.52,973.1Zm-68.41-69.26a8.14,8.14,0,0,0-5.63,2.83,6,6,0,0,0-1.37,4.53l5.81,48.52c.61,5.14,5.56,9,11.5,9l57.92-.3h.11c5.54-.08,10.07-4,10.12-8.88.24-22.15.2-42.89-2.81-53.41-1.34-4.66-6.43-8.06-11.85-7.78-10.56.28-29.51,2.18-44.73,3.7-7.43.75-14.17,1.42-19.07,1.83Z"/><path class="cls-3" d="M763.4,908.63c12.15-1,38.55-4.09,51.09-4.43,5.31-.15,10,3,11.33,7.58,2.56,8.91,2.5,26.76,2.32,43.23,0,4.93-4.52,8.93-10,9l-46.28.24c-5.69,0-10.48-3.78-11.08-8.83l-4.64-38.76C755.61,912.61,758.89,909,763.4,908.63Z"/><path class="cls-18" d="M874.85,921.92a2.85,2.85,0,0,0-2.92,3.82l5.91,21.12a5.48,5.48,0,0,0,5.08,3.79L1176,946.31a3.91,3.91,0,0,0,3.86-4.06l-.5-13.6a4.24,4.24,0,0,0-4.15-4Z"/><path class="cls-19" d="M766,916.21h0a8.89,8.89,0,0,1,12.31,3.15L790,939.67a2.85,2.85,0,0,0,5.09-.3l27.4-63.49a3.17,3.17,0,0,1,6.07,1.28c0,19.29-4.58,56-35,87.19,0,0-17.09-6.35-31.21-36.18A9.32,9.32,0,0,1,766,916.21Z"/><path class="cls-17" d="M829,843.07h-.16l-57.92.3c-8.34,0-15.32-5.6-16.22-13.13l-5.81-48.51a10.65,10.65,0,0,1,2.41-8.08,12.87,12.87,0,0,1,8.89-4.56h0c4.88-.4,11.6-1.08,19-1.81,16.1-1.62,34.34-3.44,45.07-3.74h.24c7.68-.12,14.35,4.47,16.28,11.21,3.19,11.13,3.24,32.25,3,54.76C843.67,836.9,837.06,843,829,843.07Zm-68.42-69.26a8.1,8.1,0,0,0-5.62,2.83,6,6,0,0,0-1.38,4.54l5.81,48.51c.62,5.14,5.56,9,11.51,9l57.91-.3h.12c5.54-.08,10.06-4.05,10.11-8.88.24-22.14.2-42.89-2.81-53.41-1.33-4.66-6.42-8.06-11.85-7.78-10.55.28-29.5,2.18-44.73,3.71-7.42.74-14.17,1.42-19.07,1.82Z"/><path class="cls-3" d="M766.85,778.6c12.16-1,38.56-4.09,51.1-4.43,5.31-.15,10,3,11.33,7.58,2.55,8.92,2.5,26.76,2.32,43.23-.05,4.93-4.52,8.93-10.05,9l-46.29.24c-5.69,0-10.47-3.78-11.07-8.82l-4.65-38.77C759.06,782.58,762.35,779,766.85,778.6Z"/><path class="cls-20" d="M878.31,791.89a2.85,2.85,0,0,0-2.92,3.82l5.9,21.12a5.49,5.49,0,0,0,5.08,3.79l293.09-4.34a3.91,3.91,0,0,0,3.85-4.06l-.5-13.6a4.24,4.24,0,0,0-4.14-4Z"/><path class="cls-21" d="M769.43,786.18h0a8.89,8.89,0,0,1,12.31,3.15l11.73,20.31a2.85,2.85,0,0,0,5.09-.3L826,745.85a3.17,3.17,0,0,1,6.07,1.28c0,19.3-4.58,56-34.95,87.2,0,0-17.08-6.36-31.21-36.19A9.33,9.33,0,0,1,769.43,786.18Z"/><path class="cls-17" d="M827.36,1097.22h-.16l-57.92.3c-8.34,0-15.32-5.6-16.22-13.13l-5.81-48.51a10.69,10.69,0,0,1,2.41-8.08,12.87,12.87,0,0,1,8.89-4.56h0c4.88-.4,11.6-1.07,19-1.81,16.09-1.62,34.34-3.44,45.07-3.74h.23c7.68-.12,14.36,4.47,16.29,11.21,3.19,11.13,3.23,32.25,3,54.76C842.05,1091.05,835.44,1097.1,827.36,1097.22ZM758.94,1028a8.09,8.09,0,0,0-5.62,2.82,6,6,0,0,0-1.38,4.54l5.82,48.51c.61,5.14,5.56,9,11.5,9l57.92-.3h.11c5.54-.08,10.06-4,10.12-8.88.23-22.14.2-42.89-2.82-53.41-1.33-4.66-6.42-8-11.84-7.78-10.56.29-29.51,2.18-44.74,3.71-7.42.74-14.17,1.42-19.07,1.83Z"/><path class="cls-3" d="M765.24,1032.74c12.15-1,38.55-4.09,51.09-4.43,5.31-.15,10,3,11.33,7.58,2.56,8.92,2.5,26.76,2.32,43.23-.05,4.93-4.52,8.93-10.05,9l-46.28.24c-5.69,0-10.48-3.78-11.08-8.82l-4.64-38.77C757.45,1036.72,760.73,1033.11,765.24,1032.74Z"/><path class="cls-22" d="M876.69,1046a2.84,2.84,0,0,0-2.92,3.81l5.91,21.12a5.49,5.49,0,0,0,5.07,3.8l293.09-4.35a3.91,3.91,0,0,0,3.86-4.05l-.5-13.6a4.25,4.25,0,0,0-4.15-4Z"/><path class="cls-23" d="M767.82,1040.32h0a8.87,8.87,0,0,1,12.3,3.16l11.73,20.3a2.85,2.85,0,0,0,5.09-.3l27.4-63.49a3.17,3.17,0,0,1,6.07,1.28c0,19.3-4.58,56-34.95,87.2,0,0-17.09-6.35-31.21-36.19A9.33,9.33,0,0,1,767.82,1040.32Z"/><path class="cls-17" d="M823.7,1216.47h-.15l-57.92.3c-8.34,0-15.32-5.6-16.22-13.13l-5.81-48.51a10.65,10.65,0,0,1,2.41-8.08,12.87,12.87,0,0,1,8.89-4.56h0c4.88-.4,11.59-1.07,19-1.81,15.31-1.54,34.36-3.44,45.1-3.74,7.61-.15,14.56,4.4,16.52,11.21,3.18,11.13,3.23,32.25,3,54.76C838.4,1210.3,831.79,1216.35,823.7,1216.47Zm-68.41-69.26a8.1,8.1,0,0,0-5.62,2.83,6,6,0,0,0-1.38,4.54l5.81,48.51c.62,5.14,5.57,9,11.51,9l57.91-.3c5.46-.18,10.18-4,10.23-8.88.24-22.15.2-42.89-2.81-53.41-1.33-4.66-6.42-7.94-11.85-7.78-10.56.28-29.52,2.18-44.75,3.71-7.41.74-14.15,1.41-19.05,1.82Z"/><path class="cls-3" d="M761.58,1152c12.16-1,38.56-4.09,51.1-4.43,5.31-.15,10,3,11.33,7.58,2.55,8.91,2.5,26.76,2.32,43.23-.05,4.93-4.52,8.93-10.05,9l-46.29.24c-5.69,0-10.47-3.78-11.07-8.83L754.27,1160C753.79,1156,757.08,1152.37,761.58,1152Z"/><path class="cls-24" d="M873,1165.29a2.85,2.85,0,0,0-2.92,3.82l5.9,21.12a5.49,5.49,0,0,0,5.08,3.79l293.09-4.34a3.91,3.91,0,0,0,3.85-4.06l-.5-13.6a4.24,4.24,0,0,0-4.14-4Z"/><path class="cls-25" d="M764.16,1159.58h0a8.89,8.89,0,0,1,12.31,3.15L788.2,1183a2.85,2.85,0,0,0,5.09-.3l27.4-63.49a3.16,3.16,0,0,1,6.06,1.28c0,19.3-4.58,56-35,87.19,0,0-17.08-6.35-31.21-36.18A9.33,9.33,0,0,1,764.16,1159.58Z"/><path class="cls-17" d="M819,1339.47h-.16l-57.92.3c-8.34,0-15.31-5.6-16.22-13.13l-5.81-48.51a10.69,10.69,0,0,1,2.41-8.08,12.87,12.87,0,0,1,8.89-4.56h0c4.88-.4,11.6-1.08,19-1.82,16.1-1.61,34.35-3.44,45.08-3.73,7.87,0,14.57,4.4,16.52,11.21,3.19,11.12,3.23,32.25,3,54.76C833.64,1333.3,827,1339.35,819,1339.47Zm-68.42-69.26a8.14,8.14,0,0,0-5.62,2.83,6,6,0,0,0-1.37,4.54l5.81,48.51c.61,5.14,5.56,9,11.5,9l57.92-.3h.11c5.54-.08,10.06-4,10.12-8.88.24-22.14.2-42.89-2.81-53.41-1.34-4.66-6.42-7.88-11.85-7.78-10.56.28-29.51,2.18-44.73,3.71-7.43.74-14.17,1.41-19.08,1.82Z"/><path class="cls-3" d="M756.83,1275c12.15-1,38.55-4.09,51.09-4.43,5.31-.15,10,3,11.33,7.58,2.56,8.91,2.5,26.76,2.32,43.23-.05,4.93-4.52,8.93-10.05,9l-46.28.24c-5.69,0-10.48-3.78-11.08-8.83L749.52,1283C749,1279,752.32,1275.37,756.83,1275Z"/><path class="cls-26" d="M868.28,1288.29a2.85,2.85,0,0,0-2.92,3.82l5.91,21.12a5.46,5.46,0,0,0,5.07,3.79l293.09-4.34a3.91,3.91,0,0,0,3.86-4.06l-.5-13.6a4.25,4.25,0,0,0-4.15-4Z"/><path class="cls-27" d="M759.41,1282.58h0a8.89,8.89,0,0,1,12.31,3.15L783.44,1306a2.85,2.85,0,0,0,5.09-.3l27.4-63.49a3.17,3.17,0,0,1,6.07,1.28c0,19.29-4.58,56-35,87.19,0,0-17.09-6.35-31.21-36.18A9.32,9.32,0,0,1,759.41,1282.58Z"/><path class="cls-28" d="M989.23,497.72c-18.36-13.25-34.53-13.28-46-10.12a22.71,22.71,0,0,0-16.54,23.57l4,53.64L989,571S1025.23,523.72,989.23,497.72ZM962.8,540.47a14.56,14.56,0,1,1,14.81-14.3A14.56,14.56,0,0,1,962.8,540.47Z"/><path class="cls-2" d="M935.91,543.67a2.87,2.87,0,0,1-1.84-2.48l-.63-8.55a2.89,2.89,0,0,1,5.76-.42l.64,8.54a2.89,2.89,0,0,1-3.93,2.91Zm-1.24-16.74a2.91,2.91,0,0,1-1.84-2.48l-.48-6.49a23.15,23.15,0,0,1,16.84-24,45,45,0,0,1,22.07-.52,2.92,2.92,0,0,1,2.19,3.45,2.88,2.88,0,0,1-3.45,2.19,39.51,39.51,0,0,0-19.27.45,17.35,17.35,0,0,0-12.61,18l.48,6.48a2.89,2.89,0,0,1-2.67,3.1A3,3,0,0,1,934.67,526.93Z"/><path class="cls-29" d="M850.41,598l.48-26.92A16.43,16.43,0,0,1,868.17,555l185.51,9.62a16,16,0,0,1,15.13,15.28l1.1,25.9Z"/><path class="cls-17" d="M912.21,566.16a1.68,1.68,0,0,1,.07-3.36l8,.14a1.68,1.68,0,0,1-.06,3.36l-8-.14Z"/><path class="cls-2" d="M859.59,591a2.91,2.91,0,0,1-1.85-2.75l.19-10.9a16.77,16.77,0,0,1,17-16.45l29.35.52a2.9,2.9,0,0,1-.1,5.79l-29.35-.52a11,11,0,0,0-11.15,10.77l-.19,10.89a2.89,2.89,0,0,1-2.95,2.84A3.22,3.22,0,0,1,859.59,591Z"/><path class="cls-30" d="M792.43,587.14,1117,592.83a24,24,0,0,1,23.29,20.31l.25,1.6a20.61,20.61,0,0,1-20.73,23.76l-333-5.85a13.4,13.4,0,0,1-13.14-14.27l1-14.9A17.5,17.5,0,0,1,792.43,587.14Z"/><path class="cls-31" d="M1666.16,1486.3a5.69,5.69,0,0,0,5.75-4.34l90.79-480.59c.53-2.84-1.61-5.53-4.79-6s-6.19,1.43-6.72,4.27l-90.79,480.59c-.54,2.84,1.6,5.53,4.78,6A6.55,6.55,0,0,0,1666.16,1486.3Z"/><path class="cls-31" d="M1972.45,1486.31a6.6,6.6,0,0,0,1.16-.11c3.16-.57,5.2-3.32,4.57-6.14l-107-474.34c-.63-2.82-3.71-4.66-6.87-4.08s-5.21,3.32-4.57,6.14l107,474.34A5.72,5.72,0,0,0,1972.45,1486.31Z"/><path class="cls-31" d="M1735.44,1120.13h155.14c3.23,0,5.84-2.33,5.84-5.21s-2.61-5.21-5.84-5.21H1735.44c-3.23,0-5.84,2.33-5.84,5.21S1732.21,1120.13,1735.44,1120.13Z"/><path class="cls-31" d="M1738.25,1120.13h149.52a5.22,5.22,0,1,0,0-10.42H1738.25a5.23,5.23,0,1,0,0,10.42Z"/><path class="cls-31" d="M1735.44,1207h155.14c3.23,0,5.84-2.33,5.84-5.21s-2.61-5.22-5.84-5.22H1735.44c-3.23,0-5.84,2.34-5.84,5.22S1732.21,1207,1735.44,1207Z"/><path class="cls-31" d="M1721.35,1207h188.09c3.23,0,5.84-2.33,5.84-5.21s-2.61-5.22-5.84-5.22H1721.35c-3.22,0-5.84,2.34-5.84,5.22S1718.13,1207,1721.35,1207Z"/><path class="cls-31" d="M1735.44,1293.93h155.14c3.23,0,5.84-2.33,5.84-5.21s-2.61-5.22-5.84-5.22H1735.44c-3.23,0-5.84,2.34-5.84,5.22S1732.21,1293.93,1735.44,1293.93Z"/><path class="cls-31" d="M1703.38,1293.93h225.15c3.22,0,5.84-2.33,5.84-5.21s-2.62-5.22-5.84-5.22H1703.38c-3.22,0-5.83,2.34-5.83,5.22S1700.16,1293.93,1703.38,1293.93Z"/><path class="cls-31" d="M1735.44,1380.83h211.19c3.22,0,5.84-2.34,5.84-5.22s-2.62-5.21-5.84-5.21H1735.44c-3.23,0-5.84,2.33-5.84,5.21S1732.21,1380.83,1735.44,1380.83Z"/><path class="cls-31" d="M1688.85,1380.83h257.78c3.22,0,5.84-2.34,5.84-5.22s-2.62-5.21-5.84-5.21H1688.85c-3.22,0-5.84,2.33-5.84,5.21S1685.63,1380.83,1688.85,1380.83Z"/><path class="cls-32" d="M1738.57,701c52.29-4.34,66,6.48,66,6.48l-25.13,39.67s-51.38-1-88.2-29.39a89.86,89.86,0,0,0,14.75-22A69.18,69.18,0,0,0,1738.57,701Z"/><path class="cls-33" d="M1656.68,624.24a1.61,1.61,0,0,1,3.06-.61l6.67,14.24a14.8,14.8,0,0,1,1.18,8.82l-2.34,8.29a14.3,14.3,0,0,0,2.92,11.38c6.13,7.67,19.19,21.67,37.78,29.39a89.86,89.86,0,0,1-14.75,22c-13.51-10.41-25.06-24.5-31.38-43.59a7,7,0,0,1-4.94-6.95Z"/><path class="cls-34" d="M1866.43,1082.6s3.78,6,4.74,22.68a2.73,2.73,0,0,1-2.71,2.89h-29.61a1.75,1.75,0,0,1-1.66-2.3c1.73-5.14,7-17.66,18.69-24.81Z"/><path class="cls-35" d="M1867.71,1071.28l-1.67,14a2.64,2.64,0,0,1-2.31,2.32,23.55,23.55,0,0,1-6.26-.06,4.34,4.34,0,0,1-3.57-4.31v-13.55Z"/><path class="cls-36" d="M1793.16,1081.06a41.35,41.35,0,0,1,5.55,20.9,5.24,5.24,0,0,1-5.26,5.12h-46a2.2,2.2,0,0,1-1.26-4c8.7-6.11,25.81-17.53,38.18-22Z"/><path class="cls-37" d="M1797.9,1065.89l-3.58,17.34a3.57,3.57,0,0,1-4.23,2.82,13.3,13.3,0,0,1-4-1.69,4.1,4.1,0,0,1-1.83-4.19l3.69-21Z"/><path class="cls-38" d="M1861.15,824.74s12.42,11,14.76,24.12-6.62,227.33-6.62,227.33-12.42,2.06-18.83-1.82c0,0-7.59-139-13.36-171.09,0,0-30.28,144-38.66,170,0,0-12,1.45-15.83-.82,0,0,7.93-186.62,17.89-219.8Z"/><path class="cls-39" d="M1837.46,898.73a1.31,1.31,0,0,0,1.27-1l5.15-19.75,11-7a1.32,1.32,0,0,0-1.43-2.22l-11.4,7.31a1.3,1.3,0,0,0-.56.78l-5.28,20.24a1.32,1.32,0,0,0,1,1.61A1.24,1.24,0,0,0,1837.46,898.73Z"/><path class="cls-40" d="M1721.36,724c18.41-19.84,53.47-28.8,73.77-32.48a18.61,18.61,0,0,1,20.81,11.81c9.14,24.56,34,88.45,38.8,99.43,4,9,8.08,17.81,10.7,23.31a6.6,6.6,0,0,1-3.08,8.8c-17.08,8.23-47.81,17.54-60.27,21.18a4.28,4.28,0,0,1-5.47-4.12,13.33,13.33,0,0,0-1.91-6.87l-47.19-78.63c-29.41,32.61-55.16,35.59-75,28.45a149,149,0,0,0,6.55-30.9C1708.35,759,1721.36,724,1721.36,724Z"/><path class="cls-41" d="M1630.8,758.5l5.28-7c17.08,11.73,31.35,14.51,43,12.51a149,149,0,0,1-6.55,30.9C1646.5,785.48,1630.8,758.5,1630.8,758.5Z"/><path class="cls-42" d="M1634.52,758.63l-29.72,1.16-27.36-15.28c3.93-2.47,26.14,2.57,26.14,2.57s23.22-3.51,29.5-3.52c5.22,0,4.47,7.5,4.07,10-.08.52-.15.83-.15.83Z"/><path class="cls-43" d="M1767.21,655.09l15.68,38.26s-18,12.47-32.51,11.29l-7.83-34.41Z"/><path class="cls-44" d="M1566.63,738.23c7.21-12.71,18.07-38.7,3.14-61.52-19.47-29.79-97.19,14.85-58.48,60.79a5.22,5.22,0,0,1-4,8.56h-80.21V659.67a9.92,9.92,0,0,0-14.21-8.95c-9.28,4.44-22.09,9.5-35.32,11.39-25.55,3.65-40.73-25.55-37.4-49.89s32.53-38.94,47.13-36.5c6.78,1.13,15.79,7,23.51,13.08a9.93,9.93,0,0,0,16.06-7.8V496.63h77.49a7.68,7.68,0,0,0,6.1-12.34c-16.21-21.28-9.06-47.73,13.12-55.8,26.77-9.73,51.1-2.43,54.75,25.55a46.32,46.32,0,0,1-16.67,42.59h85l-3.07,84.74a9.93,9.93,0,0,0,15.38,8.65c8.64-5.65,20-11.39,32.52-13.09,26.77-3.65,51.1,18.26,51.1,41.37s-20.68,51.11-53.54,45a137.16,137.16,0,0,1-26.55-7.32,9.9,9.9,0,0,0-13.6,9.22v80.84h-77.68A5.23,5.23,0,0,1,1566.63,738.23Z"/><path class="cls-17" d="M1650.86,748.06h-79.68a7.23,7.23,0,0,1-6.28-10.82c7.29-12.87,17.41-37.7,3.2-59.44-4.23-6.46-11.94-9.5-21.73-8.56-17.27,1.66-35,14.45-41.25,29.75-5,12.38-2.39,25.25,7.7,37.23a7.22,7.22,0,0,1-5.55,11.84h-82.21V659.67a7.92,7.92,0,0,0-11.35-7.15c-8.74,4.19-22.07,9.59-35.9,11.57-9.88,1.41-19-1.69-26.28-9C1341.37,645,1336,627.68,1338.15,612c1.46-10.66,7.89-20.68,18.11-28.21s22.67-11.44,31.33-10c6,1,14.25,5.55,24.41,13.48a7.92,7.92,0,0,0,12.83-6.22V494.63h79.49a5.68,5.68,0,0,0,4.51-9.12c-8.43-11.07-11.26-24.21-7.79-36.05a34.7,34.7,0,0,1,21.81-22.85c16.31-5.93,31.18-5.62,41.86.87,8.62,5.24,14,14.34,15.56,26.3a48.16,48.16,0,0,1-13.39,40.85h81.81l-3.14,86.82a7.93,7.93,0,0,0,12.29,6.89c11.34-7.41,22.56-11.92,33.34-13.39a48,48,0,0,1,37.89,11.74c9.84,8.59,15.48,20.11,15.48,31.61,0,13.94-6.89,28.32-18,37.55-7.39,6.14-20,12.77-37.92,9.44a140.18,140.18,0,0,1-26.94-7.44,7.73,7.73,0,0,0-7.33.76,8,8,0,0,0-3.52,6.61Zm-101-83c9.54,0,17.13,3.67,21.63,10.54,6.6,10.1,15,31.78-3.08,63.61h0a3.21,3.21,0,0,0,0,3.24,3.14,3.14,0,0,0,2.79,1.6h75.68V665.22a12,12,0,0,1,5.29-9.93,11.83,11.83,0,0,1,11.07-1.14,136.66,136.66,0,0,0,26.16,7.21c16.43,3,27.9-3,34.63-8.59,10-8.35,16.54-21.88,16.54-34.47,0-10.35-5.14-20.77-14.11-28.6a43.92,43.92,0,0,0-34.72-10.78c-10.19,1.38-20.85,5.68-31.7,12.77a11.93,11.93,0,0,1-12.43.42,11.72,11.72,0,0,1-6-10.81l3-82.67H1555.4l5-3.63c.79-.56,19.3-14.29,15.86-40.7-1.4-10.72-6.13-18.81-13.68-23.4-9.62-5.85-23.26-6-38.41-.53a30.75,30.75,0,0,0-19.34,20.22c-3.11,10.6-.52,22.45,7.13,32.49a9.67,9.67,0,0,1-7.69,15.55h-75.49V581a11.93,11.93,0,0,1-19.3,9.38c-9.49-7.42-17.3-11.81-22.6-12.69-7.54-1.26-19.18,2.55-28.29,9.27-9.35,6.88-15.22,15.95-16.53,25.53-2,14.55,2.93,30.55,12.24,39.8,6.39,6.35,14.3,9.06,22.9,7.84,13.32-1.91,26.24-7.15,34.74-11.22a11.93,11.93,0,0,1,17.07,10.76v84.39h78.21a3.16,3.16,0,0,0,2.93-1.88,3.12,3.12,0,0,0-.44-3.39c-14-16.65-12.28-31.66-8.34-41.31,6.76-16.58,25.92-30.43,44.57-32.22C1547.3,665.13,1548.57,665.07,1549.82,665.07Z"/><path class="cls-45" d="M1740.72,629c-.36.51-11.34,40.2-11.34,40.2l22.79,5.79,16-36.07S1746.73,620.49,1740.72,629Z"/><path class="cls-46" d="M1759.59,644.4l-6.94,19.65a3.09,3.09,0,0,1-.36.7c-.94,1.34-4.52,5.7-8.76,1.77-3.85-3.57-7.41-6.76-10.71-7.34a2.9,2.9,0,0,0-3.31,2.08,127.06,127.06,0,0,0-3.83,19.15,2.9,2.9,0,0,0,2.36,3.13c4.45.84,13.89,2.36,21.77,1.81a2.91,2.91,0,0,0,2.45-1.69c2.18-4.74,8.83-19.14,11.3-22.87,2.33-3.49,8-3.4,10.41-3.18a2.85,2.85,0,0,0,2.14-.71c2.09-1.83,6.07-6.5.47-12.1a2.91,2.91,0,0,1,.07-4.19c2.4-2.26,5-6.27,1-11.23s-9.44-4.25-12.73-3a2.91,2.91,0,0,1-3.5-1.29,2.28,2.28,0,0,0-2.37-1.11A2.87,2.87,0,0,1,1756,621c.06-3.24-1.1-7.32-6.71-9.07-10-3.1-16.17,6.52-16.78,13.7s10.37,9.92,16.83,9.44c4.91-.37,8.56,4.5,10,6.85A2.88,2.88,0,0,1,1759.59,644.4Z"/><path class="cls-47" d="M1761,667.92s1.61-12.46,6.79-13.07,10.23,3.65,5.07,10.64C1766.42,674.19,1761,667.92,1761,667.92Z"/><path class="cls-48" d="M1566.22,1228.17c6,9.52,12.24,23.16,10.73,36.81-2.76,24.81-40.82,35.84-74.17,22.06-23.83-9.85-13.62-42.2-5.84-59.89a8.45,8.45,0,0,0-7.78-11.8h-85.91v-96.76a11.23,11.23,0,0,1,16.43-10c9,4.68,20.78,9.65,33.2,11.61,26.19,4.14,52.38-24.81,49.63-52.38s-29-48.25-56.52-46.87c-9.54.48-17.47,4.46-23.78,9.48-7.25,5.77-18,.27-18-9V936.89h90.88a5.91,5.91,0,0,0,4.55-9.7c-43.85-52.05,44.2-102.62,66.27-68.88,16.91,25.86,4.6,55.31-3.56,69.71a5.92,5.92,0,0,0,5.15,8.87h88v87.48c0,9.28-10.72,14.74-18,9-7.59-6-17.36-11.28-28.87-12.38-29-2.76-45.49,24.81-51.17,46.87s19.47,53.76,45.66,49.63a274.62,274.62,0,0,0,39-9.67,11.23,11.23,0,0,1,14.63,10.79l-.59,96.75h-82.76A8.43,8.43,0,0,0,1566.22,1228.17Z"/><path class="cls-17" d="M1532.86,1295.07a81.56,81.56,0,0,1-30.85-6.18,24.23,24.23,0,0,1-13.81-13.62c-5.76-14.35.58-34.52,6.91-48.92a6.26,6.26,0,0,0-.51-6,6.47,6.47,0,0,0-5.44-3h-87.91v-98.76a13.23,13.23,0,0,1,19.36-11.75c11.43,6,22.39,9.81,32.58,11.42,10.65,1.68,22.16-2.46,31.59-11.37,11.06-10.44,17.09-25.33,15.74-38.84-2.58-25.78-27.52-46.41-54.43-45.07-8,.4-15.59,3.44-22.63,9a12.81,12.81,0,0,1-13.65,1.47,13.27,13.27,0,0,1-7.59-12V934.89h92.88a3.83,3.83,0,0,0,3.56-2.28,3.76,3.76,0,0,0-.54-4.13c-15.81-18.76-13.84-35.66-9.4-46.53,7.63-18.7,29.24-34.32,50.28-36.34,12.73-1.23,22.89,2.9,28.59,11.61,7.44,11.38,16.89,35.85-3.49,71.78a4,4,0,0,0,0,4,3.9,3.9,0,0,0,3.4,1.94h90v89.48a13.24,13.24,0,0,1-7.55,12,12.86,12.86,0,0,1-13.69-1.44c-8.91-7-18.27-11.05-27.82-12-26.92-2.57-43.24,22.84-49,45.38-2.6,10.11,1.79,23.31,11.18,33.64s21.3,15.24,32.23,13.51a273.78,273.78,0,0,0,38.73-9.6,13.23,13.23,0,0,1,17.24,12.72l-.61,98.73h-84.74a6.43,6.43,0,0,0-5.69,3.37,6.21,6.21,0,0,0,.15,6.38h0c5.91,9.44,12.62,23.71,11,38.1-1,9.16-6.42,16.88-15.64,22.33C1554.81,1292.55,1544.14,1295.07,1532.86,1295.07Zm-127.61-81.72h83.91a10.48,10.48,0,0,1,8.79,4.77,10.33,10.33,0,0,1,.82,9.84c-4.93,11.21-12.38,32.07-6.85,45.82a20.33,20.33,0,0,0,11.62,11.41c19.67,8.13,42.86,7.68,57.71-1.1,8.09-4.79,12.84-11.47,13.71-19.33,1.47-13.24-4.87-26.63-10.44-35.53h0a10.18,10.18,0,0,1-.26-10.45,10.38,10.38,0,0,1,9.19-5.43h80.77l.58-94.76a9.22,9.22,0,0,0-12-8.88,278.22,278.22,0,0,1-39.33,9.74c-12.26,1.94-25.65-3.58-35.81-14.77s-15-26-12.09-37.33c6.19-24.06,23.86-51.16,53.29-48.36,10.33,1,20.39,5.29,29.92,12.8a8.81,8.81,0,0,0,9.47,1,9.31,9.31,0,0,0,5.29-8.41V938.89h-86a7.93,7.93,0,0,1-6.89-11.86c8.3-14.63,19.8-42.88,3.62-67.62-4.84-7.41-13.67-10.9-24.86-9.82-19.66,1.89-39.85,16.45-47,33.87-4,9.85-5.76,25.21,8.76,42.45a7.91,7.91,0,0,1-6.08,13h-88.88v82.57a9.3,9.3,0,0,0,5.33,8.43,8.72,8.72,0,0,0,9.42-1c7.71-6.13,16.09-9.47,24.92-9.91a57.06,57.06,0,0,1,38.93,13c11.31,9.24,18.3,21.9,19.68,35.64,1.47,14.72-5,30.87-17,42.15-10.33,9.76-23.07,14.29-35,12.41-10.62-1.68-22-5.65-33.81-11.82a9.23,9.23,0,0,0-13.51,8.2Z"/><path class="cls-49" d="M1573.37,1461.08c8.44-15,9.82-36.61-29.51-55.49-56.74-27.24-68.27,24-53.81,56.82a12.59,12.59,0,0,1-11.57,17.62h-75.23v-81a11.28,11.28,0,0,0-15.56-10.49,95.27,95.27,0,0,1-32.9,7.43c-30.12,1.38-53-23.43-48.47-57.9s33.88-42.73,48.17-38.6c7.47,2.16,20.43,10.44,31.11,17.86a11.24,11.24,0,0,0,17.65-9.24v-92.71h85.91a8.45,8.45,0,0,1,7.78,11.8c-7.78,17.69-18,50,5.84,59.89,33.35,13.78,71.41,2.75,74.17-22.06,1.51-13.65-4.77-27.29-10.73-36.81a8.43,8.43,0,0,1,7.23-12.82h82.76l-.52,84.21a12.59,12.59,0,0,1-19.75,10.23c-7.82-5.25-17.33-9.79-27.29-10.35-24.81-1.37-49.62,17.92-51.08,42.74s16.62,56.52,44.19,55.14c13-.65,26.37-7.46,36.82-14.46a12.54,12.54,0,0,1,19.54,10.5l-.52,86.67h-73.31A12.64,12.64,0,0,1,1573.37,1461.08Z"/><path class="cls-17" d="M1659.59,1482h-75.3a14.41,14.41,0,0,1-12.56-7.18,14.68,14.68,0,0,1-.1-14.75l1.74,1-1.74-1c4.6-8.2,5.74-16.12,3.4-23.53-3.41-10.8-14.19-20.61-32-29.18-20.6-9.88-36.74-10-46.68-.39-9.69,9.38-14.53,31.71-4.44,54.6a14.43,14.43,0,0,1-1.13,13.78,14.6,14.6,0,0,1-12.27,6.65h-77.23v-83a9.37,9.37,0,0,0-4.22-7.83,9,9,0,0,0-8.56-.82,97,97,0,0,1-33.59,7.59c-14.86.68-28.32-4.7-37.9-15.14-10.49-11.43-15-27.42-12.64-45,2.55-19.26,12.36-29.36,20.14-34.44,11.48-7.5,23.64-7.82,30.57-5.82,6.35,1.84,17,7.94,31.69,18.14a9.24,9.24,0,0,0,14.51-7.6v-94.71h87.91a10.48,10.48,0,0,1,8.79,4.77,10.33,10.33,0,0,1,.82,9.84c-4.93,11.21-12.38,32.07-6.85,45.82a20.33,20.33,0,0,0,11.62,11.41c19.67,8.13,42.86,7.68,57.71-1.1,8.09-4.79,12.84-11.47,13.71-19.33,1.47-13.24-4.87-26.63-10.44-35.53a10.18,10.18,0,0,1-.26-10.45,10.38,10.38,0,0,1,9.19-5.43h84.77l-.53,86.23a14.26,14.26,0,0,1-7.68,12.7,14.79,14.79,0,0,1-15.19-.83c-9.22-6.18-18.06-9.55-26.28-10a48.57,48.57,0,0,0-32.92,11.1c-9.69,7.92-15.39,18.49-16.06,29.76-.86,14.72,5.52,31.64,15.88,42.09,5.27,5.32,14.1,11.53,26.22,10.93,10.56-.53,22.6-5.28,35.8-14.13a14.55,14.55,0,0,1,22.66,12.18Zm-144.24-86.16c7.74,0,17.39,2.16,29.38,7.92,18.88,9.06,30.35,19.68,34.11,31.57,2.69,8.51,1.44,17.5-3.72,26.7a10.74,10.74,0,0,0,.06,10.77,10.45,10.45,0,0,0,9.11,5.2h71.32l.51-84.69a10.54,10.54,0,0,0-16.43-8.82c-13.81,9.25-26.54,14.23-37.83,14.8-10.76.53-20.88-3.65-29.26-12.11-11.29-11.39-18-29.11-17-45.15,1.48-25.26,26.35-46.1,53.19-44.61,9,.49,18.47,4.09,28.29,10.68a10.68,10.68,0,0,0,11.09.62,10.34,10.34,0,0,0,5.55-9.2l.5-82.2h-80.74a6.43,6.43,0,0,0-5.69,3.37,6.21,6.21,0,0,0,.15,6.38c5.91,9.44,12.62,23.71,11,38.1-1,9.16-6.42,16.88-15.64,22.33-16.13,9.54-40.18,10.07-61.28,1.36a24.23,24.23,0,0,1-13.81-13.62c-5.76-14.35.58-34.52,6.91-48.92a6.26,6.26,0,0,0-.51-6,6.47,6.47,0,0,0-5.44-3h-83.91v90.71a13.2,13.2,0,0,1-7.11,11.74,13,13,0,0,1-13.68-.85c-14.13-9.82-24.68-15.89-30.52-17.59-6.6-1.9-17.59-1-27.27,5.33-7.08,4.62-16,13.86-18.37,31.62-2.17,16.4,2,31.25,11.63,41.79,8.76,9.55,21.11,14.47,34.76,13.84a92.93,92.93,0,0,0,32.22-7.27,13.06,13.06,0,0,1,12.33,1.16,13.38,13.38,0,0,1,6,11.17v79h73.23a10.61,10.61,0,0,0,8.92-4.84,10.31,10.31,0,0,0,.82-10c-8.08-18.33-9-45.27,5.32-59.09C1498,1399.77,1505,1395.87,1515.35,1395.87Z"/><path class="cls-50" d="M1318.36,1461.49a75.16,75.16,0,0,0,7.69-22.53c8-48.13-51.62-41.64-75.44-16.83-12.12,12.64-8.07,27.52-1.17,39.09a12.64,12.64,0,0,1-10.75,19.24h-81.07v-77.65a11.65,11.65,0,0,1,17.12-10.24,77.55,77.55,0,0,0,35.52,8.89c31.7,0,39.29-42.74,40.32-56.52.94-12.51-21.79-62.44-75.34-31.49a11.62,11.62,0,0,1-17.44-10v-90.11H1241a8.43,8.43,0,0,0,6.73-13.47c-19.32-26.55-2.36-64.24,12.15-70.62,17.24-7.59,52.39-9.65,62.73,28.94,5.39,20.16.42,34.86-5.57,44.31a8.4,8.4,0,0,0,7.12,12.9h79.09v92.71a11.24,11.24,0,0,1-17.65,9.24c-10.68-7.42-23.64-15.7-31.11-17.86-14.29-4.13-43.6,4.14-48.17,38.6s18.35,59.28,48.47,57.9a95.27,95.27,0,0,0,32.9-7.43,11.28,11.28,0,0,1,15.56,10.49v81h-73.74A12.62,12.62,0,0,1,1318.36,1461.49Z"/><path class="cls-17" d="M1238.69,1482.46h-83.07v-79.65a13.44,13.44,0,0,1,6.48-11.57,13.75,13.75,0,0,1,13.56-.45,74.91,74.91,0,0,0,34.6,8.67c33.86,0,38.16-52.44,38.33-54.67.49-6.62-6.43-24.45-20.89-33.52-14-8.8-31.81-7.45-51.46,3.91a13.62,13.62,0,0,1-20.44-11.78v-92.11H1241a6.25,6.25,0,0,0,5.67-3.46,6.43,6.43,0,0,0-.56-6.83c-12-16.54-9.49-35.07-6.91-44.64,3.72-13.75,11.7-25.4,19.88-29,10.34-4.55,27.6-7.37,42.24-.35,11.44,5.49,19.25,15.79,23.22,30.62,5.71,21.33,0,36.73-5.81,45.89a6.4,6.4,0,0,0,5.43,9.83h81.09v94.71a13.2,13.2,0,0,1-7.11,11.74,13,13,0,0,1-13.68-.85c-14.13-9.82-24.68-15.89-30.52-17.59-6.6-1.9-17.59-1-27.27,5.33-7.08,4.62-16,13.86-18.37,31.62-2.17,16.4,2,31.25,11.63,41.79,8.76,9.55,21.1,14.47,34.76,13.84a92.93,92.93,0,0,0,32.22-7.27,13.06,13.06,0,0,1,12.33,1.16,13.38,13.38,0,0,1,6,11.17v83h-75.74a14.62,14.62,0,0,1-12.92-21.47h0a73.14,73.14,0,0,0,7.49-21.93c2.44-14.76-1.59-25.22-11.66-30.27-15.91-8-45.24-.6-60.36,15.16-9.32,9.71-9.62,22-.9,36.68a14.64,14.64,0,0,1,.19,14.91A14.39,14.39,0,0,1,1238.69,1482.46Zm-79.07-4h79.07a10.41,10.41,0,0,0,9.18-5.33,10.69,10.69,0,0,0-.15-10.88c-9.62-16.14-9.12-30.49,1.45-41.5,16.47-17.16,47.47-24.76,65-16,14.9,7.46,15.74,22.88,13.82,34.5a77.3,77.3,0,0,1-7.9,23.13,10.64,10.64,0,0,0,.31,10.52,10.51,10.51,0,0,0,9.07,5.09h71.74v-79a9.37,9.37,0,0,0-4.22-7.83,9,9,0,0,0-8.56-.82,97,97,0,0,1-33.59,7.59c-14.86.68-28.32-4.7-37.9-15.14-10.49-11.43-15-27.42-12.64-45,2.55-19.26,12.36-29.36,20.14-34.44,11.48-7.5,23.64-7.82,30.57-5.82,6.35,1.84,17,7.94,31.69,18.14a9.24,9.24,0,0,0,14.51-7.6v-90.71h-77.09a10.41,10.41,0,0,1-8.81-16c5.38-8.48,10.67-22.78,5.32-42.72-3.65-13.65-10.75-23.08-21.08-28-13.41-6.43-29.34-3.8-38.9.41-7,3.08-14.26,13.93-17.62,26.37-2.4,8.89-4.78,26.06,6.27,41.24a10.52,10.52,0,0,1,.9,11,10.2,10.2,0,0,1-9.24,5.65h-81.2v88.11a9.62,9.62,0,0,0,14.44,8.32c14.65-8.47,36.2-16,55.59-3.84,16,10,23.32,29.56,22.75,37.2-1.62,21.68-12.36,58.38-42.32,58.38a78.92,78.92,0,0,1-36.43-9.11,9.77,9.77,0,0,0-9.64.3,9.47,9.47,0,0,0-4.57,8.16Z"/><path class="cls-51" d="M1049.12,1077.82s-11,5.34-13,11.46c-1.62,4.92-13.74,5.55-14.94,15.22a11.1,11.1,0,0,1-9.29,9.76c-12.38,1.89-31.47,8.33-34.52,29.83-2.33,16.41,6,22.63,14.82,24.79a12.43,12.43,0,0,1,9.43,14.36c-1.25,6.25.61,13.47,11.43,19.18,24.25,12.79,48.46-30.31,48.46-30.31l5-75.26Z"/><path class="cls-52" d="M1197.26,1080.7s-62,66-121.36,69.62c0,0,5,33.49,12.76,38.72,0,0,80.74-44.6,109.4-97.11Z"/><path class="cls-53" d="M949.47,1549.72l-1.57,12.89a5.33,5.33,0,0,1-4.68,4.66,81.69,81.69,0,0,1-17.26.27,4.55,4.55,0,0,1-3.83-5.91c1.58-5,4.48-12.46,8.65-16.85h14.31A4.41,4.41,0,0,1,949.47,1549.72Z"/><path class="cls-54" d="M1061.53,1398.63l2.41,14.2s-8.08,81.92-9.52,114.68a25.58,25.58,0,0,0,3.8,14.59l14.06,22.84-35.74-21.09-.71-4.36,5.85-8-7.66-91.77a28.15,28.15,0,0,1,3.2-15.57l7.39-13.89Z"/><path class="cls-55" d="M1074.63,1568.25h-11.4a6.86,6.86,0,0,1-5.45-2.67c-3.56-4.62-10.92-13.64-14.45-13.87-4.74-.32-4.13,16.54-4.13,16.54h-2.66l-3.36-21a12.39,12.39,0,0,1,6.5-13h0s1.09,8,7,11.56,23.92,16.25,23.92,16.25a16.12,16.12,0,0,1,4.63.12A3,3,0,0,1,1074.63,1568.25Z"/><path class="cls-56" d="M1012.58,1405.37s-47.38,89.87-54.91,110.39S947.5,1553.4,947.4,1555c-.16,2.53-3.31,5-12,5-4.48,0-6.68-1.8-7.75-3.54a5,5,0,0,1-.19-4.9c2.74-5.55,11.43-23.27,14.66-31.31,3.84-9.6,12.11-53.09,16.65-68.22s9.67-31.53,29.42-46.64C988.2,1405.37,1001.76,1392.09,1012.58,1405.37Z"/><path class="cls-57" d="M1042.51,1258.12c12.22-51.79-18.74-81.08-18.74-81.08,19.53-18.75,55.13-27.28,55.13-27.28s34,24.83,29.93,44.27c-2.36,11.39-23.87,68.22-23.87,68.22S1065.07,1271.67,1042.51,1258.12Z"/><path class="cls-58" d="M1015.41,1283.76c5-15,27.1-25.64,27.1-25.64,22.56,13.55,42.45,4.13,42.45,4.13s4.46,17,1.38,32.9-22.4,117.68-22.4,117.68c-30.43,6.17-77.24-6.2-77.24-6.2C1006.08,1372.21,1010.44,1298.74,1015.41,1283.76Z"/><path class="cls-59" d="M1056.69,1115.54l-9.93,44.63c-1,3.93,2.63,3.29,6.6,2.54,6.51-1.23,14.9-3.76,17.71-8.82a4.94,4.94,0,0,0,.5-1.68l4.27-31a5.55,5.55,0,0,0-3.25-5.84l-8.24-3.66A5.57,5.57,0,0,0,1056.69,1115.54Z"/><path class="cls-60" d="M1307.18,1160.54c6-9.45,11-24.15,5.57-44.3-10.34-38.6-45.49-36.54-62.73-29-14.51,6.38-31.47,44.07-12.15,70.62a8.43,8.43,0,0,1-6.73,13.47h-83.2v-97.57a11.6,11.6,0,0,0-16.73-10.43,93.53,93.53,0,0,1-34.2,9.43c-33.09,2.76-48.77-26.19-47.13-55.14,1.42-25.11,37.9-56.44,77.24-29.23a11.61,11.61,0,0,0,18.14-9.61V892.71h102c-31.71,26.68-23.44,65.68,8.27,80.85s60.65,2.75,63.41-31.71c1.42-17.74-4.87-29.64-11.32-37a5.92,5.92,0,0,1,4.42-9.86h82.31v84.57c0,9.28,10.74,14.77,18,9,6.3-5,14.23-9,23.77-9.48,27.57-1.38,53.76,19.3,56.52,46.87s-23.44,56.52-49.63,52.39c-12.42-2-24.22-6.94-33.19-11.62a11.24,11.24,0,0,0-16.44,10v96.76H1314.3A8.4,8.4,0,0,1,1307.18,1160.54Z"/><path class="cls-17" d="M1395.39,1175.44H1314.3a10.41,10.41,0,0,1-8.81-16h0c5.38-8.48,10.67-22.78,5.33-42.72-3.66-13.65-10.75-23.08-21.09-28-13.41-6.43-29.34-3.8-38.9.41-7,3.08-14.26,13.93-17.62,26.37-2.4,8.89-4.77,26.06,6.27,41.24a10.52,10.52,0,0,1,.9,11,10.17,10.17,0,0,1-9.24,5.65h-85.2v-99.57a9.58,9.58,0,0,0-4.58-8.21,9.47,9.47,0,0,0-9.26-.43,95.38,95.38,0,0,1-34.93,9.63c-13.38,1.12-25.08-2.79-33.81-11.29-10.73-10.44-16.51-27.62-15.48-46,.81-14.22,11.92-29.3,27-36.69,9.8-4.79,29.77-10.39,53.36,5.92a9.35,9.35,0,0,0,9.82.58,9.49,9.49,0,0,0,5.18-8.54V890.71h109.49l-4.19,3.53c-14.23,12-21,27.07-19,42.52,1.88,14.77,11.92,27.85,26.85,35,15.91,7.61,31.58,8.2,43,1.62,10.15-5.85,16.38-17.1,17.55-31.68,1.4-17.53-5.12-29-10.83-35.53a7.9,7.9,0,0,1-1.28-8.56,7.81,7.81,0,0,1,7.2-4.62h84.31v86.57a9.31,9.31,0,0,0,5.33,8.43,8.74,8.74,0,0,0,9.42-1c7.71-6.13,16.09-9.47,24.92-9.91a57.1,57.1,0,0,1,38.93,13c11.31,9.24,18.3,21.9,19.68,35.64,1.47,14.72-5,30.87-17,42.15-10.34,9.76-23.08,14.29-35,12.41-10.62-1.68-22-5.65-33.81-11.82a9.23,9.23,0,0,0-13.51,8.2Zm-86.52-13.83a6.4,6.4,0,0,0,5.43,9.83h77.09v-94.76a13.23,13.23,0,0,1,19.36-11.75c11.43,6,22.39,9.81,32.58,11.42,10.64,1.68,22.16-2.46,31.59-11.37,11.06-10.44,17.09-25.33,15.74-38.84-2.58-25.78-27.51-46.42-54.43-45.07-8,.4-15.59,3.44-22.63,9a12.81,12.81,0,0,1-13.65,1.47,13.26,13.26,0,0,1-7.59-12V897h-80.31a3.81,3.81,0,0,0-3.56,2.28,3.87,3.87,0,0,0,.65,4.26c6.22,7.12,13.32,19.57,11.81,38.49-1.28,15.94-8.22,28.3-19.54,34.82-12.59,7.25-29.62,6.71-46.73-1.47-16.17-7.73-27-22-29.1-38.1-1.92-15.1,4.06-30.36,16.51-42.55h-94.83v84.12a13.63,13.63,0,0,1-7.32,12.09,13.31,13.31,0,0,1-14-.84c-21.91-15.15-40.31-10-49.32-5.61-13.87,6.77-24.06,20.47-24.78,33.31-1,17.19,4.36,33.22,14.27,42.86,7.88,7.68,18.49,11.2,30.69,10.18a91.45,91.45,0,0,0,33.47-9.23,13.61,13.61,0,0,1,19.63,12.22v95.57h81.2a6.28,6.28,0,0,0,5.68-3.46,6.46,6.46,0,0,0-.57-6.83c-12-16.54-9.49-35.07-6.9-44.64,3.71-13.75,11.69-25.4,19.87-29,10.34-4.56,27.61-7.38,42.24-.36,11.44,5.49,19.25,15.79,23.22,30.62,5.72,21.33,0,36.73-5.81,45.89Z"/><path class="cls-61" d="M1018.28,1190.83s90.88,111,158.78-15.38a15.56,15.56,0,0,0,.49-7.9c-.41-2.35,1.15-10.7,2-15a2.35,2.35,0,0,0-2.09-2.8h0a3.21,3.21,0,0,0-2.84,1.21l-12.4,15.8a6.64,6.64,0,0,0,3.51,7.86h0a3.26,3.26,0,0,1,1.21,4.93c-51.64,67.69-138-6.59-139.59-5.72C1021.74,1177,1015.26,1180.38,1018.28,1190.83Z"/><path class="cls-62" d="M1068.35,1073.05s11.77,5,19.77,22,2,24.85-5.48,25.93-18.73.92-30.6-10.07S1053.05,1067.16,1068.35,1073.05Z"/><path class="cls-63" d="M1060,1101.8s-8.88-24.87,13.18-25.17l5.19,3.63s8.09-13.79-5.19-20.38-28.83-1.14-34.48,16.75-6.62,29.88,2.78,38.44,13.28-1.15,13.28-1.15-5.12-8-3-12.29,6.89.89,6.89.89Z"/><path class="cls-64" d="M1057.55,1104.57s-4.49-12.81-10.48-7.71,4.87,11.84,9.12,14Z"/><path class="cls-65" d="M2135.39,947.8s-55.51,71.07,7.82,143.36l23.81-2.22s-45.83-73.6-25.42-132.26l33.73,2.46L2194,947Z"/><path class="cls-66" d="M2165.79,1295.77s45,98,68.57,138.62c0,0,4.69,25.55,0,33.58l-4,1.78,18.64-.56s1.65-34.36.36-36.28a4.73,4.73,0,0,0-3.88-1.79s-8-63.33-31.14-76.84L2191.92,1277Z"/><path class="cls-67" d="M2222.41,1474.56c0,.45,14.55.25,22.47.1a6.31,6.31,0,0,0,6-5l6-31.43a5.65,5.65,0,0,0-4.29-6.56l-3.34-.77s-4.77,6.54-3.27,12.69,2.84,22.09-1,24-14.69,2.18-14.69,2.18S2222.66,1470.51,2222.41,1474.56Z"/><path class="cls-68" d="M2123.16,1475.13a1.65,1.65,0,0,0,.83,3.08c13.26-.14,43-.56,45.61-1.65,3.4-1.42-1.25-13.67-6.14-17.81l-27,8.82Z"/><path class="cls-69" d="M2114.77,1289.51s29.07,140.61,37.29,168l-19.45,12.21s9.75-1.66,17-2.18,13.88-8.82,13.88-8.82l-2.33-3.72s-7.29-139.83-5.51-155.71Z"/><path class="cls-70" d="M2102.89,1066.59c11.14,3.09,48.88,13,72.44,12.62l-14.46,81.63,1.15,13.32-47.17-.22s-13.28-30.83-23.75-46.2c-3-4.44-.78-9.74.94-14.83l-2.36-1.57a6.43,6.43,0,0,1-2.54-7.33l11.49-35.14A3.5,3.5,0,0,1,2102.89,1066.59Z"/><path class="cls-71" d="M2111.07,1167l.93,8.06s-13.33,39.92,6.66,133.15c0,0,43.31,12.27,78.9-17.08,0,0-10-88-12.79-92.1-13.65-20.42-22.75-24.85-22.75-24.85l-.41-8.82S2123.54,1172.23,2111.07,1167Z"/><path class="cls-72" d="M2129.53,1073.17c-.16-.22,9.85-30.23,9.85-30.23l14.34,1.31,5.61,34S2136.85,1082.83,2129.53,1073.17Z"/><path class="cls-73" d="M2150.29,995.62c-1,.59-30.65,12.86-24.27,43.69a5.81,5.81,0,0,0,3.29,4.12,50.37,50.37,0,0,0,25,4.13c15.55-1.58,25.74-28.72,25.31-36.62S2159.77,989.72,2150.29,995.62Z"/><path class="cls-74" d="M2159.33,983.63c-.78.11-17.16,5.81-9,17.68s11.17,18.85,7.33,24.06c-3.5,4.75-11.26,2-10.58,11.92a5.53,5.53,0,0,1-2.36,5c-7.31,4.94-25.13,20.17-7.47,41.87a5.52,5.52,0,0,1,.62,6.19c-5.17,9.28-16,36.45,23.3,51.53,38.87,14.89,52.9-10.51,56.82-20.67a5.43,5.43,0,0,1,5.36-3.43c4.27.21,10.32-.51,10.05-6.21-.17-3.47-2.34-6.58-4.89-9.07a5.41,5.41,0,0,1,1-8.52,10.63,10.63,0,0,0,5.24-6.59c2.35-8.73-2.35-34.83-27.36-39.25a5.91,5.91,0,0,1-4.58-4.42s0-.06,0-.09a5.39,5.39,0,0,1,2-5.32c4-2.93,9.11-8.83,5-18.29-3.69-8.39-10.77-11.22-16-12.12a5.46,5.46,0,0,1-4.47-6.52C2191.05,993.05,2189.5,979.68,2159.33,983.63Z"/><path class="cls-75" d="M1966.92,865.52a81.42,81.42,0,0,1-29.59,8c-27.23,2.18-33.77-18.52-33.77-40.31s21.79-34.86,38.13-32.68c7.82,1,16.89,6.15,24.23,11.2a8.88,8.88,0,0,0,13.9-7.34V736.29H2045a8.56,8.56,0,0,0,7.42-12.9c-4-6.58-7.26-16.35-7.26-30.67,0-37,43.58-52.29,55.88-21.79,8.16,20.23,5.5,42.37,2.78,55a8.57,8.57,0,0,0,8.4,10.37h69.11v66.08a9.91,9.91,0,0,1-15.23,8.39c-8.15-5.22-17.86-10.77-24.56-12.37-13.65-3.27-38.64,12-39.73,38.13s12,37,38.13,39.22a45.62,45.62,0,0,0,26.69-6c6.55-3.75,14.7,1.22,14.7,8.76v70.89h-63.2a11.53,11.53,0,0,1-11-15c5.46-17.61,8-44.84-27.09-47.76-43-3.59-41.51,21.14-30,46.5a11.52,11.52,0,0,1-10.54,16.22h-59.64v-75.9A8.9,8.9,0,0,0,1966.92,865.52Z"/><path class="cls-17" d="M2183.35,951.35h-65.2a13.53,13.53,0,0,1-12.93-17.55c3.12-10.07,5.48-24.1-1-33.76-4.46-6.6-12.64-10.44-24.32-11.42-16.33-1.36-27,1.36-31.77,8.08-5,7.1-3.75,19.08,3.72,35.61a13.51,13.51,0,0,1-12.36,19h-61.64v-77.9a6.71,6.71,0,0,0-3.23-5.82,6.94,6.94,0,0,0-6.78-.32h0a83,83,0,0,1-30.32,8.24c-10.42.83-18.73-1.53-24.69-7-7.46-6.89-11.24-18.75-11.24-35.26A33.31,33.31,0,0,1,1913.29,808c8.07-7.07,19-10.66,28.66-9.38,6.86.92,15.31,4.8,25.1,11.54a6.88,6.88,0,0,0,10.77-5.69V734.29H2045a6.57,6.57,0,0,0,5.79-3.4,6.31,6.31,0,0,0-.08-6.46c-5-8.25-7.55-18.92-7.55-31.71a42,42,0,0,1,9.13-26.83,35.54,35.54,0,0,1,20.56-12.7c13.27-2.57,24.78,3.94,30.05,17,8.49,21.06,5.45,44.23,2.87,56.17a6.57,6.57,0,0,0,6.45,7.94h71.11v68.08A11.92,11.92,0,0,1,2165,812.45c-10.38-6.66-18.66-10.85-23.95-12.12-5.9-1.41-14.33,1.16-21.47,6.56a39.28,39.28,0,0,0-15.79,29.71c-1,23.83,9.86,34.94,36.29,37.14a43.34,43.34,0,0,0,25.54-5.78,11.57,11.57,0,0,1,11.67.08,11.94,11.94,0,0,1,6,10.42Zm-111.07-67.06c2.5,0,5.14.11,7.93.35,12.94,1.08,22.13,5.51,27.29,13.17,7.4,11,4.92,26.27,1.54,37.18a9.53,9.53,0,0,0,9.11,12.36h61.2V878.46a8,8,0,0,0-4-7,7.62,7.62,0,0,0-7.68-.07,47.3,47.3,0,0,1-27.85,6.3c-28.73-2.4-41.05-15.13-40-41.3a43.27,43.27,0,0,1,17.38-32.73c8.18-6.18,17.69-9,24.82-7.26,5.79,1.39,14.26,5.64,25.17,12.64a7.76,7.76,0,0,0,8,.27,7.84,7.84,0,0,0,4.14-7V738.29h-67.11a10.57,10.57,0,0,1-10.36-12.79c2.48-11.48,5.42-33.75-2.67-53.82-4.58-11.34-14.14-16.78-25.58-14.56-13.14,2.55-26.45,15.6-26.45,35.6,0,12,2.34,22,7,29.63a10.33,10.33,0,0,1,.15,10.51,10.54,10.54,0,0,1-9.28,5.43h-63.2v66.14a10.87,10.87,0,0,1-5.83,9.65,10.7,10.7,0,0,1-11.21-.67c-9.14-6.28-17.21-10-23.36-10.86-8.5-1.13-18.27,2.09-25.49,8.42a29.34,29.34,0,0,0-10.37,22.28c0,15.35,3.35,26.22,10,32.32,5.11,4.72,12.4,6.73,21.66,6a79.34,79.34,0,0,0,28.87-7.83h0a10.93,10.93,0,0,1,10.67.5,10.79,10.79,0,0,1,5.11,9.22v73.9h57.64a9.54,9.54,0,0,0,8-4.38,9.29,9.29,0,0,0,.68-9c-8.1-17.92-9.23-31.23-3.35-39.56C2049.58,887.68,2058.79,884.29,2072.28,884.29Z"/><path class="cls-76" d="M2042.63,957.42s-4,73.14,62.58,110.51l-16,36.57s-60.28-36.47-58.05-135.92a11.59,11.59,0,0,0-2.83-7.79l-12.82-14.87a23,23,0,0,1-4.89-20.6l1.69-6.74a3.5,3.5,0,0,1,5.15-2.17l1.34.78a23.55,23.55,0,0,1,9.66,10.73l6.29,14.07a13.51,13.51,0,0,0,13.5,7.94l3.89-.33Z"/><path class="cls-31" d="M1686.65,272.81s.29-.49.85-1.37a1.08,1.08,0,0,1,1.49-.33,1,1,0,0,1,.45.58l1.57-.4a1.08,1.08,0,0,1,.51,2.09c-1.63.4-2.79.76-3.34.93l-.33.09-2.57.7Zm3.91-5.89c1-1.46,2.11-2.93,3.22-4.38a1.09,1.09,0,0,1,1.52-.2,1.08,1.08,0,0,1,.2,1.51c-1.09,1.43-2.16,2.88-3.18,4.32a1.08,1.08,0,0,1-1.5.25.85.85,0,0,1-.22-.2A1.07,1.07,0,0,1,1690.56,266.92Zm4.94,4.54a1.08,1.08,0,0,1,.91-1.23,52.76,52.76,0,0,1,5.48-.52,1.08,1.08,0,1,1,.09,2.15c-1.7.08-3.47.25-5.26.51a1.09,1.09,0,0,1-1-.39A1.21,1.21,0,0,1,1695.5,271.46Zm10.76-.67a1.08,1.08,0,0,1,1.16-1,36.18,36.18,0,0,1,5.49.87,1.08,1.08,0,0,1-.51,2.1,33.11,33.11,0,0,0-5.16-.82,1,1,0,0,1-.75-.4A1,1,0,0,1,1706.26,270.79Zm-9.1-12.51c1.16-1.4,2.35-2.8,3.54-4.13a1.08,1.08,0,0,1,1.52-.09,1.07,1.07,0,0,1,.09,1.52c-1.17,1.32-2.34,2.69-3.48,4.07a1.07,1.07,0,0,1-1.52.15l-.16-.16A1.08,1.08,0,0,1,1697.16,258.28ZM1716.77,273a1.09,1.09,0,0,1,1.43-.54,24.69,24.69,0,0,1,3.5,1.94c.44.28.86.55,1.28.8a1.1,1.1,0,0,1,.37,1.49,1.09,1.09,0,0,1-1.49.36c-.44-.27-.89-.55-1.34-.85a24.31,24.31,0,0,0-3.21-1.77,1,1,0,0,1-.4-.31A1.08,1.08,0,0,1,1716.77,273Zm14.69,15.27a1.06,1.06,0,0,1,1.14-.24,7.89,7.89,0,0,1,3.24-.22,1.08,1.08,0,1,1-.23,2.14,4.77,4.77,0,0,0-3.47.68l-1.38-1.66Zm-5.24-10.11a1.08,1.08,0,0,1,1.4-.6,20.15,20.15,0,0,0,4.92,1.31,1.08,1.08,0,1,1-.25,2.14,21.29,21.29,0,0,1-5.47-1.45,1,1,0,0,1-.44-.32A1.1,1.1,0,0,1,1726.22,278.17Zm-21.84-28c1.26-1.31,2.56-2.61,3.85-3.84a1.08,1.08,0,1,1,1.49,1.55c-1.27,1.22-2.54,2.49-3.78,3.79a1.07,1.07,0,0,1-1.52,0l-.1-.11A1.09,1.09,0,0,1,1704.38,250.15Zm30.85,34.28c1.45-1.5,2.69-2.81,3.7-3.91a1.08,1.08,0,0,1,1.59,1.45c-1,1.12-2.27,2.45-3.73,4a1.09,1.09,0,0,1-1.53,0l-.09-.11A1.07,1.07,0,0,1,1735.23,284.43Zm4.72,5.33a1.08,1.08,0,0,1,1.3-.8c1.53.37,3.23.76,5.19,1.06a1.08,1.08,0,0,1,.9,1.23,1.07,1.07,0,0,1-1.23.9c-2-.31-3.79-.71-5.37-1.09a1.11,1.11,0,0,1-.59-.37A1.09,1.09,0,0,1,1740,289.76Zm-3.23-9.89a1.07,1.07,0,0,1,.74-1.33,13.34,13.34,0,0,0,3.66-1.73c.33-.21.61-.37.82-.48l.31-.12a1,1,0,0,1,1.33.68,1.11,1.11,0,0,1-.7,1.39,5.18,5.18,0,0,0-.61.36,15.68,15.68,0,0,1-4.22,2,1.09,1.09,0,0,1-1.14-.36A1.23,1.23,0,0,1,1736.72,279.87Zm-24.47-37.24c1.22-1.07,2.47-2.12,3.7-3.11l.48-.38a1.09,1.09,0,0,1,1.52.17h0a1.07,1.07,0,0,1-.18,1.51l-.47.38c-1.21,1-2.43,2-3.63,3a1.09,1.09,0,0,1-1.53-.1l0,0A1.07,1.07,0,0,1,1712.25,242.63Zm38.31,48.95a1.09,1.09,0,0,1,1.12-1,51.81,51.81,0,0,0,5.28,0,1.08,1.08,0,0,1,.13,2.15,53.29,53.29,0,0,1-5.5.05,1.09,1.09,0,0,1-.8-.4A1.13,1.13,0,0,1,1750.56,291.58Zm10.76-.41a1.07,1.07,0,0,1,.9-1.22l1.14-.18a37.44,37.44,0,0,0,4-.9A1.08,1.08,0,1,1,1768,291a39,39,0,0,1-4.24.95l-1.17.18a1.07,1.07,0,0,1-1-.39A1.16,1.16,0,0,1,1761.32,291.17Zm-40.78-53.79a1.08,1.08,0,0,1,.26-1.5c1.51-1.06,3-2.08,4.56-3a1.08,1.08,0,1,1,1.13,1.84c-1.48.91-3,1.9-4.45,2.93a1.07,1.07,0,0,1-1.46-.21Zm51.19,51.11a1.08,1.08,0,0,1,.54-1.43,34.6,34.6,0,0,0,4.57-2.53,1.08,1.08,0,0,1,1.18,1.81,37.73,37.73,0,0,1-4.86,2.69,1.07,1.07,0,0,1-1.29-.31A1.28,1.28,0,0,1,1771.73,288.49Zm-42.07-56.86a1.08,1.08,0,0,1,.46-1.46c1.63-.86,3.3-1.65,4.94-2.35a1.09,1.09,0,0,1,1.42.57,1.07,1.07,0,0,1-.57,1.41c-1.59.69-3.21,1.45-4.79,2.28a1.08,1.08,0,0,1-1.35-.28A1,1,0,0,1,1729.66,231.63ZM1781,281.35a38.27,38.27,0,0,0,3.67-3.75,1.08,1.08,0,1,1,1.64,1.4,39.26,39.26,0,0,1-3.88,4,1.07,1.07,0,0,1-1.52-.09s0,0,0,0A1.09,1.09,0,0,1,1781,281.35Zm-41.48-54.11a1.08,1.08,0,0,1,.68-1.36c1.76-.57,3.54-1.07,5.29-1.46a1.08,1.08,0,0,1,.48,2.1c-1.69.38-3.4.86-5.09,1.41a1.07,1.07,0,0,1-1.18-.35A1,1,0,0,1,1739.51,227.24Zm48.26,46.15a22.84,22.84,0,0,0,2.27-4.32l.34-2.36a1.08,1.08,0,1,1,2.14.31l-.34,2.3h0c-.23,1.55-2.54,5.19-2.57,5.23a1.07,1.07,0,0,1-1.48.33,1.05,1.05,0,0,1-.27-.24A1.08,1.08,0,0,1,1787.77,273.39ZM1750,224.67a1.07,1.07,0,0,1,.94-1.19,51,51,0,0,1,5.5-.37,1.1,1.1,0,0,1,1.09,1.07,1.08,1.08,0,0,1-1.07,1.09,49.07,49.07,0,0,0-5.26.35,1.11,1.11,0,0,1-1-.4A1.13,1.13,0,0,1,1750,224.67Zm10.76-.35a1.08,1.08,0,0,1,1.18-1,53.39,53.39,0,0,1,5.44.84,1.08,1.08,0,0,1-.45,2.12,46.21,46.21,0,0,0-5.21-.81,1.05,1.05,0,0,1-.73-.4A1.07,1.07,0,0,1,1760.72,224.32Zm30.43,37.05.78-5.34a1.08,1.08,0,0,1,2.14.31l-.78,5.34a1.07,1.07,0,0,1-1.22.91,1.12,1.12,0,0,1-.69-.39A1.1,1.1,0,0,1,1791.15,261.37Zm-19.86-35.06a1.08,1.08,0,0,1,1.36-.7c1.7.55,3.43,1.2,5.13,1.94a1.08,1.08,0,1,1-.85,2c-1.64-.71-3.31-1.34-4.94-1.87a1,1,0,0,1-.51-.35A1.08,1.08,0,0,1,1771.29,226.31Zm21.41,24.38.78-5.34a1.08,1.08,0,0,1,2.13.31l-.77,5.34a1.07,1.07,0,0,1-1.22.91,1,1,0,0,1-.69-.39A1.09,1.09,0,0,1,1792.7,250.69Zm-11.45-20.31a1.08,1.08,0,0,1,1.46-.43c1.57.85,3.15,1.79,4.71,2.8a1.08,1.08,0,0,1-1.18,1.81c-1.51-1-3-1.89-4.55-2.71a.91.91,0,0,1-.33-.28A1.07,1.07,0,0,1,1781.25,230.38Zm9.13,5.72a1.07,1.07,0,0,1,1.51-.21c1.38,1,2.78,2.16,4.15,3.33l.45.39-.1.72a1.08,1.08,0,0,1-2.06.27q-1.86-1.57-3.74-3a1.14,1.14,0,0,1-.19-.19A1.08,1.08,0,0,1,1790.38,236.1Z"/><path class="cls-77" d="M1791.52,257.2s-11,21.21-27.47,14.79-31.44-17-39.06-13.68c0,0,29-36.62,66.81-9.54Z"/><path class="cls-78" d="M1834.85,282.82s-2.86,23.3-10.27,26.19c-7,2.75-60-2-65.11-2.48a.45.45,0,0,1-.4-.45h0a6,6,0,0,1,2.53-4.83c7.57-5.38,30.3-21.25,38.72-23.84C1810.48,274.27,1834.85,282.82,1834.85,282.82Z"/><path class="cls-2" d="M1778.49,305.05a.53.53,0,0,0,.39.2c.29,0,29.32,2.13,41.85,2.55a5.62,5.62,0,0,0,5.26-3.18,83.75,83.75,0,0,0,5.89-16,.54.54,0,0,0-1.05-.25,82.29,82.29,0,0,1-5.81,15.78,4.56,4.56,0,0,1-4.26,2.57c-12.51-.42-41.51-2.52-41.8-2.54a.54.54,0,0,0-.58.5A.53.53,0,0,0,1778.49,305.05Z"/><path class="cls-79" d="M1835.55,228.31S1833.3,205,1826,201.86c-7-2.93-60,.46-65.16.8a.44.44,0,0,0-.41.43h0a6,6,0,0,0,2.41,4.9c7.42,5.57,29.74,22,38.09,24.84C1811,236.22,1835.55,228.31,1835.55,228.31Z"/><path class="cls-2" d="M1779.78,205.31a.55.55,0,0,0,.45.2c.29,0,29.34-1.36,41.86-1.46a4.56,4.56,0,0,1,4.19,2.68,82.9,82.9,0,0,1,5.4,15.92.53.53,0,0,0,.64.42.54.54,0,0,0,.41-.64,81.54,81.54,0,0,0-5.47-16.14,5.64,5.64,0,0,0-5.18-3.32c-12.53.1-41.61,1.45-41.9,1.47a.54.54,0,0,0-.4.87Z"/><path class="cls-80" d="M1913.67,283.54a121.24,121.24,0,0,1-37.44,5.54c-43.41-.44-75.24-8.26-84.23-10.73a4.62,4.62,0,0,1-3.24-3.4,81.09,81.09,0,0,1,.2-38.71,6.68,6.68,0,0,1,5-4.88c10.53-2.51,41.64-8.89,83.17-8.24a121.13,121.13,0,0,1,37,6.43C1919.85,251.14,1916.33,271.9,1913.67,283.54Z"/><path class="cls-81" d="M1914.12,229.55a125.54,125.54,0,0,1,44.28,25.94,2.25,2.25,0,0,1,0,3.34,125.66,125.66,0,0,1-44.69,24.71C1916.33,271.9,1919.85,251.14,1914.12,229.55Z"/><path class="cls-3" d="M1879.79,234.33c-11.24-.14-20.48,9.52-20.64,21.59s8.83,22,20.08,22.11,20.48-9.52,20.64-21.59S1891,234.48,1879.79,234.33Z"/><path class="cls-82" d="M1880.31,238.17c-9-.12-16.32,7.58-16.44,17.19s7,17.51,16,17.62,16.32-7.58,16.45-17.2S1889.27,238.28,1880.31,238.17Z"/><path class="cls-3" d="M1883,267.81a.55.55,0,0,0,.57.18,13.61,13.61,0,0,0,9.52-13,14,14,0,0,0-.64-4.42.54.54,0,0,0-.68-.36.55.55,0,0,0-.35.68A13.06,13.06,0,0,1,1892,255a12.51,12.51,0,0,1-8.74,11.92.54.54,0,0,0-.37.67A.5.5,0,0,0,1883,267.81Z"/><path class="cls-3" d="M1838.79,241.22c-7.43-.1-13.54,6.28-13.64,14.26s5.83,14.51,13.26,14.6,13.53-6.29,13.64-14.26S1846.21,241.31,1838.79,241.22Z"/><path class="cls-83" d="M1839.13,243.75c-5.92-.08-10.78,5-10.87,11.36s4.65,11.56,10.57,11.64,10.78-5,10.87-11.36S1845.05,243.83,1839.13,243.75Z"/><path class="cls-3" d="M1840.73,263.44a.53.53,0,0,0,.57.19,9.18,9.18,0,0,0,6.42-8.73,9.35,9.35,0,0,0-.43-3,.54.54,0,0,0-.68-.35.54.54,0,0,0-.35.67,8.3,8.3,0,0,1-5.26,10.35.54.54,0,0,0-.37.67A.4.4,0,0,0,1840.73,263.44Z"/><path class="cls-31" d="M1672.14,272l-7.07,1.74a1.24,1.24,0,1,1-.59-2.4l.08,0,6.9-1.72.09,0a1.25,1.25,0,1,1,.6,2.42Z"/><path class="cls-31" d="M1657.89,275l-7.23.78a1.21,1.21,0,0,1-.26-2.4h.07l7.08-.79h.08a1.22,1.22,0,0,1,.27,2.43Z"/><path class="cls-31" d="M1643.4,276.1l-7.25-.06a1.18,1.18,0,1,1,0-2.36h.06l7.13,0h.07a1.2,1.2,0,0,1,0,2.39Z"/><path class="cls-31" d="M1628.91,275.62l-7.21-.76a1.16,1.16,0,1,1,.24-2.3h0l7.11.72h.06a1.17,1.17,0,0,1-.24,2.32Z"/><path class="cls-31" d="M1614.53,273.79l-7.12-1.35a1.13,1.13,0,1,1,.42-2.22h0l7,1.31h0a1.14,1.14,0,0,1-.42,2.24Z"/><path class="cls-31" d="M1600.36,270.84l-7-1.84a1.11,1.11,0,0,1,.56-2.14h0l6.93,1.8h0a1.11,1.11,0,0,1,.8,1.36,1.13,1.13,0,0,1-1.36.8Z"/><path class="cls-31" d="M1586.43,266.94l-6.87-2.25a1.07,1.07,0,1,1,.67-2h0l6.82,2.2h0a1.09,1.09,0,0,1,.7,1.37,1.08,1.08,0,0,1-1.37.7Z"/><path class="cls-31" d="M1572.75,262.27l-6.74-2.6a1,1,0,0,1,.75-2h0l6.71,2.55h0a1.06,1.06,0,0,1,.62,1.37,1.07,1.07,0,0,1-1.38.62Z"/><path class="cls-31" d="M1559.33,256.93l-6.62-2.89a1,1,0,0,1,.82-1.88h0l6.59,2.84h0a1,1,0,1,1-.83,1.91Z"/><path class="cls-31" d="M1546.15,251l-6.49-3.15a1,1,0,1,1,.86-1.79h0l6.47,3.11h0a1,1,0,1,1-.87,1.82Z"/><path class="cls-31" d="M1533.21,244.62l-6.38-3.37a1,1,0,0,1,.9-1.72h0l6.36,3.33h0a1,1,0,1,1-.91,1.75Z"/><path class="cls-31" d="M1520.5,237.78l-6.28-3.56a1,1,0,0,1-.35-1.29.93.93,0,0,1,1.28-.35h0l6.27,3.53h0a1,1,0,1,1-.94,1.66Z"/><path class="cls-31" d="M1508,230.57l-6.18-3.73a.94.94,0,0,1-.32-1.28.93.93,0,0,1,1.28-.31h0L1509,229h0a.93.93,0,0,1-1,1.6Z"/><path class="cls-31" d="M1495.69,223l-6.08-3.89a.93.93,0,1,1,1-1.56h0l6.07,3.87h0a.93.93,0,0,1-1,1.56Z"/><path class="cls-31" d="M1483.58,215.18l-6-4a.92.92,0,1,1,1-1.52h0l6,4h0a.92.92,0,0,1-1,1.53Z"/><path class="cls-31" d="M1471.67,207l-5.88-4.17a.91.91,0,1,1,1-1.49h0l5.86,4.15h0a.91.91,0,0,1-1,1.49Z"/><path class="cls-31" d="M1459.88,198.84l-6.14-3.65,0,0a.91.91,0,0,1,.92-1.56l6.24,3.7a.91.91,0,1,1-.92,1.56h0Z"/><path class="cls-31" d="M1447.37,192l-6.55-2.84,0,0a.89.89,0,1,1,.71-1.64l6.66,2.87a.91.91,0,0,1,.47,1.18.89.89,0,0,1-1.18.47h0Z"/><path class="cls-31" d="M1434.1,186.7l-6.87-2,0,0a.89.89,0,0,1-.61-1.1.88.88,0,0,1,1.1-.6l7,2a.89.89,0,0,1-.49,1.72h0Z"/><path class="cls-31" d="M1420.26,183.17l-7.06-1.09h0a.9.9,0,0,1-.74-1,.88.88,0,0,1,1-.73l7.17,1.11a.88.88,0,0,1-.27,1.74h-.06Z"/><path class="cls-31" d="M1406.09,181.43l-7.14-.2h-.06a.87.87,0,1,1,0-1.74l7.25.19a.88.88,0,0,1,0,1.75h-.05Z"/><path class="cls-31" d="M1391.81,181.49l-7.11.71h0a.87.87,0,0,1-.18-1.73l7.22-.73a.87.87,0,0,1,.17,1.74h0Z"/><path class="cls-31" d="M1377.65,183.36l-7,1.61h0a.86.86,0,1,1-.39-1.67l7.07-1.64a.86.86,0,0,1,.39,1.68h-.06Z"/><path class="cls-31" d="M1363.85,187l-6.7,2.48h-.06a.85.85,0,0,1-.59-1.59l6.8-2.53a.86.86,0,0,1,.6,1.61h0Z"/><path class="cls-31" d="M1350.62,192.4l-6.29,3.37,0,0a.84.84,0,1,1-.8-1.48l6.4-3.44a.85.85,0,1,1,.8,1.5h0Z"/><path class="cls-31" d="M1338.29,199.57l-5.78,4.2,0,0a.84.84,0,0,1-1-1.35l5.86-4.27a.85.85,0,0,1,1.18.19.84.84,0,0,1-.19,1.17h0Z"/><path class="cls-31" d="M1327,208.32l-5.23,4.87,0,0a.83.83,0,0,1-1.13-1.21l5.3-4.94a.83.83,0,0,1,1.18,0,.84.84,0,0,1,0,1.18h0Z"/><path class="cls-31" d="M1316.82,218.36l-4.64,5.44,0,0a.82.82,0,0,1-1.16.09.82.82,0,0,1-.1-1.16l4.7-5.51a.84.84,0,0,1,1.17-.1.83.83,0,0,1,.09,1.17h0Z"/><path class="cls-31" d="M1307.85,229.49l-4,5.94,0,0a.82.82,0,0,1-1.36-.91l4-6a.81.81,0,0,1,1.13-.23.82.82,0,0,1,.23,1.14h0Z"/><path class="cls-31" d="M1300.24,241.59,1297,248l0,.05a.82.82,0,0,1-1.09.35.8.8,0,0,1-.36-1.08l3.28-6.48a.8.8,0,0,1,1.09-.35.81.81,0,0,1,.36,1.09h0Z"/><path class="cls-31" d="M1294.2,254.54l-2.34,6.75,0,0a.8.8,0,0,1-1,.5.8.8,0,0,1-.49-1l2.37-6.86a.82.82,0,0,1,1-.5.81.81,0,0,1,.49,1h0Z"/><path class="cls-31" d="M1290,268.19l-1.28,7v.06a.8.8,0,0,1-.93.64.79.79,0,0,1-.64-.92l1.3-7.15a.8.8,0,0,1,.93-.64.79.79,0,0,1,.64.92h0Z"/><path class="cls-31" d="M1288.05,282.3l0,7.12v.08a.8.8,0,0,1-.8.78.79.79,0,0,1-.78-.79l0-7.27a.79.79,0,1,1,1.58,0h0Z"/><path class="cls-31" d="M1288.64,296.52l1.33,7,0,.07a.78.78,0,1,1-1.53.3l-1.37-7.15a.78.78,0,0,1,1.54-.29h0Z"/><path class="cls-31" d="M1292,310.33l2.73,6.57,0,.08a.77.77,0,0,1-1.43.59l-2.79-6.72a.78.78,0,1,1,1.43-.6h0Z"/><path class="cls-31" d="M1298.2,323.07a37.13,37.13,0,0,0,4.48,5.44.75.75,0,0,1,0,1.08.77.77,0,0,1-1.08,0,37.73,37.73,0,0,1-4.68-5.66.77.77,0,1,1,1.27-.87Z"/><path class="cls-31" d="M1308.18,332.88a30.39,30.39,0,0,0,6.33,3,.76.76,0,0,1-.49,1.43,31.66,31.66,0,0,1-6.65-3.16.76.76,0,1,1,.81-1.29Z"/><path class="cls-31" d="M1321.36,337.39a33,33,0,0,0,7,0,.75.75,0,0,1,.17,1.5,34.73,34.73,0,0,1-7.35,0,.75.75,0,0,1,.15-1.5Z"/><path class="cls-31" d="M1335.29,335.9a38.9,38.9,0,0,0,6.51-2.71.75.75,0,0,1,1,.31.75.75,0,0,1-.32,1,40,40,0,0,1-6.76,2.82.73.73,0,0,1-.93-.49.75.75,0,0,1,.49-.94Z"/><path class="cls-31" d="M1347.75,329.37a42.71,42.71,0,0,0,5.22-4.76.74.74,0,0,1,1,0,.75.75,0,0,1,0,1.05,44.23,44.23,0,0,1-5.4,4.93.74.74,0,1,1-.9-1.18Z"/><path class="cls-31" d="M1357.34,319.05l1.79-3.05c.63-1,1.11-2.09,1.64-3.15l0,0a.73.73,0,0,1,1-.33.72.72,0,0,1,.32,1,34.46,34.46,0,0,1-1.68,3.25l-1.85,3.15a.73.73,0,1,1-1.26-.74h0Z"/><path class="cls-31" d="M1363.24,306.21a40.9,40.9,0,0,0,1.34-6.94.72.72,0,0,1,.79-.65.74.74,0,0,1,.65.8,42.85,42.85,0,0,1-1.38,7.19.73.73,0,0,1-.9.5.72.72,0,0,1-.5-.89Z"/><path class="cls-31" d="M1364.63,292.22a36.26,36.26,0,0,0-1.31-6.92.72.72,0,0,1,1.37-.41,37.65,37.65,0,0,1,1.37,7.2.73.73,0,0,1-.65.79.72.72,0,0,1-.78-.66Z"/><path class="cls-31" d="M1360.71,278.74a40.08,40.08,0,0,0-3.74-6,.71.71,0,0,1,1.14-.85,42.61,42.61,0,0,1,3.87,6.2.71.71,0,1,1-1.27.65Z"/><path class="cls-31" d="M1352.3,267.41a51.63,51.63,0,0,0-5.41-4.59.7.7,0,1,1,.83-1.13,51.09,51.09,0,0,1,5.57,4.72.7.7,0,1,1-1,1Z"/><path class="cls-31" d="M1340.92,259a59,59,0,0,0-6.41-3.09.7.7,0,0,1-.38-.91.71.71,0,0,1,.91-.38,66.92,66.92,0,0,1,6.56,3.15.7.7,0,0,1-.68,1.23Z"/><path class="cls-31" d="M1327.78,253.56c-2.27-.66-4.63-1.09-6.94-1.65h-.06a.7.7,0,0,1,.33-1.37h0c2.35.57,4.71,1,7,1.7a.69.69,0,0,1,.48.86.68.68,0,0,1-.85.47Z"/><path class="cls-31" d="M1313.78,250.76l-7.12-.68h0a.74.74,0,1,1,.14-1.48h0l7.21.73a.73.73,0,0,1-.14,1.45Z"/><path class="cls-31" d="M1299.51,249.83l-7.15.18h0a.79.79,0,1,1,0-1.57h0l7.24-.14a.77.77,0,0,1,0,1.53Z"/><path class="cls-31" d="M1285.23,250.58l-7.09,1h-.05a.83.83,0,0,1-.22-1.64h0l7.18-.94a.82.82,0,0,1,.9.7.8.8,0,0,1-.69.9Z"/><path class="cls-31" d="M1271.11,252.89l-6.95,1.72h0a.88.88,0,0,1-1-.63.87.87,0,0,1,.64-1.05h0l7-1.7a.84.84,0,0,1,.4,1.64Z"/><path class="cls-31" d="M1257.32,256.69l-6.72,2.44,0,0a.9.9,0,0,1-.62-1.7h0l6.82-2.43a.88.88,0,1,1,.6,1.66Z"/><path class="cls-31" d="M1244,261.94l-6.4,3.18-.05,0a.94.94,0,1,1-.84-1.69h0l6.52-3.2a.91.91,0,0,1,1.23.42.93.93,0,0,1-.41,1.24Z"/><path class="cls-31" d="M1231.45,268.69l-6,3.94,0,0a1,1,0,0,1-1.37-.28,1,1,0,0,1,.28-1.36h0l6.06-4a1,1,0,1,1,1.06,1.61Z"/><path class="cls-31" d="M1219.77,276.9l-5.52,4.55,0,0a1,1,0,1,1-1.31-1.58h0l5.61-4.58a1,1,0,0,1,1.41.15,1,1,0,0,1-.14,1.4Z"/><path class="cls-31" d="M1208.94,286.25l-5.11,5,0,0a1.06,1.06,0,1,1-1.49-1.52h0l5.2-5a1,1,0,0,1,1.47,0,1.05,1.05,0,0,1,0,1.48Z"/><path class="cls-31" d="M1198.91,296.45l-4.75,5.37,0,0a1.1,1.1,0,0,1-1.65-1.47h0l4.82-5.39a1.08,1.08,0,1,1,1.62,1.44Z"/><path class="cls-31" d="M1189.59,307.33l-4.41,5.65,0,0a1.14,1.14,0,1,1-1.8-1.4h0l4.47-5.68a1.13,1.13,0,0,1,1.77,1.39Z"/><path class="cls-31" d="M1180.94,318.76l-4.09,5.88,0,0a1.18,1.18,0,1,1-1.94-1.34h0l4.15-5.92a1.16,1.16,0,0,1,1.9,1.33Z"/><path class="cls-31" d="M1172.91,330.64l-3.78,6.09v0a1.22,1.22,0,1,1-2.07-1.28h0l3.84-6.13a1.2,1.2,0,0,1,2,1.27Z"/><path class="cls-31" d="M1165.51,342.91l-3.47,6.28,0,0a1.25,1.25,0,1,1-2.19-1.21h0l3.54-6.3a1.23,1.23,0,1,1,2.15,1.2Z"/><path class="cls-31" d="M1158.72,355.54l-3.16,6.44v0a1.29,1.29,0,0,1-2.32-1.14h0l3.22-6.48a1.27,1.27,0,0,1,2.28,1.12Z"/><path class="cls-31" d="M1152.57,368.5l-2.82,6.59v0a1.33,1.33,0,1,1-2.44-1.05h0l2.88-6.64a1.31,1.31,0,0,1,2.41,1Z"/><path class="cls-31" d="M1147.12,381.75l-2.45,6.73v0a1.37,1.37,0,0,1-2.57-.93h0l2.51-6.79a1.35,1.35,0,0,1,2.53.92Z"/><path class="cls-31" d="M1142.44,395.28l-2,6.87,0,.05a1.4,1.4,0,0,1-2.69-.79h0l2.07-7a1.38,1.38,0,1,1,2.65.78Z"/><path class="cls-31" d="M1138.69,409.08l-1.46,7v.05a1.44,1.44,0,0,1-2.82-.59c.49-2.37,1-4.73,1.52-7.1a1.42,1.42,0,1,1,2.78.6Z"/><path class="cls-31" d="M1136.06,423.1l-.84,7.09v.06a1.43,1.43,0,0,1-1.59,1.25,1.41,1.41,0,0,1-1.24-1.58l.84-7.22a1.43,1.43,0,0,1,2.84.33h0Z"/><path class="cls-31" d="M1134.74,437.3l-.12,7.13v.08a1.42,1.42,0,0,1-1.44,1.38,1.39,1.39,0,0,1-1.38-1.43l.1-7.28a1.42,1.42,0,0,1,2.84.05h0Z"/><path class="cls-31" d="M1134.88,451.55l.66,7.09v.08a1.4,1.4,0,0,1-2.78.26l-.69-7.25a1.4,1.4,0,1,1,2.79-.26h0Z"/><path class="cls-31" d="M1136.59,465.68l1.46,7,0,.08a1.38,1.38,0,0,1-2.71.57l-1.5-7.12a1.39,1.39,0,0,1,2.72-.58h0Z"/><path class="cls-31" d="M1139.91,479.52l2.24,6.75,0,.08a1.37,1.37,0,0,1-2.6.86l-2.31-6.9a1.38,1.38,0,0,1,2.61-.87h0Z"/><path class="cls-31" d="M1144.78,492.9l3,6.47,0,.06a1.36,1.36,0,0,1-2.46,1.14l-3-6.6a1.36,1.36,0,1,1,2.46-1.14h0Z"/><path class="cls-31" d="M1151.08,505.67l3.65,6.13,0,.06a1.34,1.34,0,1,1-2.3,1.37l-3.72-6.24a1.35,1.35,0,0,1,2.31-1.38h0Z"/><path class="cls-31" d="M1158.66,517.76l4.21,5.76,0,.05a1.32,1.32,0,1,1-2.14,1.56l-4.29-5.85a1.33,1.33,0,0,1,2.15-1.58h0Z"/><path class="cls-31" d="M1167.33,529.1l4.68,5.4,0,0a1.31,1.31,0,0,1-.14,1.85,1.29,1.29,0,0,1-1.84-.13l-4.77-5.47a1.32,1.32,0,0,1,2-1.73h0Z"/><path class="cls-31" d="M1176.9,539.72l5.07,5,0,0a1.3,1.3,0,0,1-1.83,1.84l-5.15-5.09a1.3,1.3,0,1,1,1.84-1.85h0Z"/><path class="cls-31" d="M1187.22,549.62l5.39,4.71,0,0a1.28,1.28,0,1,1-1.68,1.94l-5.47-4.75a1.29,1.29,0,0,1,1.69-1.94h0Z"/><path class="cls-31" d="M1198.15,558.87l5.66,4.39,0,0a1.27,1.27,0,1,1-1.55,2l-5.72-4.42a1.28,1.28,0,1,1,1.56-2h0Z"/><path class="cls-31" d="M1209.58,567.51l5.88,4.11,0,0a1.25,1.25,0,1,1-1.43,2.05l-5.94-4.13a1.25,1.25,0,0,1-.31-1.75,1.26,1.26,0,0,1,1.75-.32h0Z"/><path class="cls-31" d="M1221.43,575.62l6,4a1.24,1.24,0,1,1-1.37,2.07l-6-4a1.25,1.25,0,0,1,1.37-2.08Z"/><path class="cls-31" d="M1233.46,583.54l6,3.94a1.22,1.22,0,1,1-1.33,2l-6-3.92a1.23,1.23,0,0,1,1.34-2.07Z"/><path class="cls-31" d="M1245.51,591.42l6,3.94a1.2,1.2,0,0,1,.35,1.67,1.22,1.22,0,0,1-1.68.36l-6-3.93a1.22,1.22,0,0,1,1.33-2.05Z"/><path class="cls-31" d="M1257.56,599.31l6,4a1.19,1.19,0,1,1-1.32,2l-6-4a1.2,1.2,0,1,1,1.32-2Z"/><path class="cls-31" d="M1269.54,607.3l6,4a1.18,1.18,0,1,1-1.33,2h0l-6-4h0a1.19,1.19,0,0,1,1.33-2Z"/><path class="cls-31" d="M1281.43,615.44l5.9,4.15a1.17,1.17,0,1,1-1.35,1.91h0l-5.88-4.13h0a1.17,1.17,0,1,1,1.35-1.92Z"/><path class="cls-31" d="M1293.17,623.8l5.8,4.29a1.16,1.16,0,0,1-1.37,1.86h0l-5.78-4.26h0a1.16,1.16,0,0,1,1.37-1.87Z"/><path class="cls-31" d="M1304.71,632.45l5.69,4.45a1.14,1.14,0,0,1-1.41,1.8h0l-5.67-4.42h0a1.15,1.15,0,0,1,1.41-1.81Z"/><path class="cls-31" d="M1316,641.42l5.57,4.58a1.12,1.12,0,1,1-1.43,1.73h0l-5.55-4.55h0a1.13,1.13,0,0,1,1.43-1.75Z"/><path class="cls-31" d="M1327.09,650.65l5.45,4.74a1.12,1.12,0,0,1-1.47,1.68h0l-5.42-4.71h0a1.12,1.12,0,1,1,1.46-1.69Z"/><path class="cls-31" d="M1337.89,660.24l5.26,5a1.1,1.1,0,0,1-1.51,1.6v0l-5.23-4.91h0a1.1,1.1,0,1,1,1.51-1.61Z"/><path class="cls-31" d="M1348.29,670.27l5,5.21a1.09,1.09,0,1,1-1.57,1.51v0l-5-5.16,0,0a1.09,1.09,0,0,1,1.57-1.51Z"/><path class="cls-31" d="M1358.15,680.84l4.68,5.52a1.07,1.07,0,1,1-1.63,1.39l0,0-4.64-5.45,0,0a1.08,1.08,0,0,1,1.64-1.4Z"/><path class="cls-31" d="M1367.32,692.05l4.26,5.85a1.07,1.07,0,0,1-.24,1.48,1.05,1.05,0,0,1-1.47-.23l0,0-4.21-5.78,0,0a1.06,1.06,0,1,1,1.72-1.25Z"/><path class="cls-31" d="M1375.58,703.94l3.72,6.22a1,1,0,0,1-1.79,1.07l0,0-3.68-6.13,0,0a1,1,0,0,1,1.8-1.08Z"/><path class="cls-31" d="M1382.7,716.56l3,6.59a1,1,0,0,1-1.84.85l0,0-3-6.46,0,0a1,1,0,0,1,.5-1.38,1,1,0,0,1,1.37.5Z"/><path class="cls-31" d="M1388.41,729.89l2.25,6.9a1,1,0,1,1-1.85.61l0-.06-2.25-6.77,0-.05a1,1,0,0,1,1.89-.63Z"/><path class="cls-31" d="M1392.48,743.81l1.37,7.13a.93.93,0,0,1-1.83.36l0-.06-1.38-7v-.06a1,1,0,0,1,1.87-.37Z"/><path class="cls-31" d="M1394.76,758.14l.44,7.24a.89.89,0,1,1-1.78.12v-.06l-.47-7.12v-.06a.92.92,0,1,1,1.83-.12Z"/><path class="cls-31" d="M1395.15,772.65l-.52,7.22a.86.86,0,0,1-1.71-.12v0l.49-7.13v-.05a.87.87,0,1,1,1.74.12Z"/><path class="cls-31" d="M1393.76,787.05l-1.18,7.14a.8.8,0,0,1-.94.67.81.81,0,0,1-.67-.93v0l1.12-7.08v0a.84.84,0,0,1,1.65.27Z"/><path class="cls-31" d="M1391.09,801.27l-1.84,7a.77.77,0,0,1-1.5-.39v0l1.78-6.94v0a.8.8,0,0,1,1.54.4Z"/><path class="cls-31" d="M1387,815.17l-2.73,6.73a.73.73,0,0,1-1.36-.55l0-.06,2.65-6.63,0,0a.75.75,0,1,1,1.4.56Z"/><path class="cls-31" d="M1380.94,828.36a50.18,50.18,0,0,1-4.15,6,.71.71,0,0,1-1,.1.7.7,0,0,1-.1-1,47.51,47.51,0,0,0,4-5.85.71.71,0,0,1,1-.26.72.72,0,0,1,.26,1Z"/><path class="cls-31" d="M1371.58,839.54a23.86,23.86,0,0,1-6.42,3.65.66.66,0,0,1-.46-1.23,22.61,22.61,0,0,0,6-3.48.68.68,0,0,1,1,.11.67.67,0,0,1-.11.95Z"/></g></svg>