<svg id="_ÎÓÈ_1" data-name="‘ÎÓÈ_1" xmlns="http://www.w3.org/2000/svg" viewBox="0 0 2500 2000"><defs><style>.cls-1{fill:#ebf2f9;}.cls-2{fill:#d5e5fb;}.cls-3{fill:#e2eefd;}.cls-4{fill:#b9cbf7;opacity:0.7;}.cls-5,.cls-6{fill:#9db0f4;}.cls-5{opacity:0.3;}.cls-7{fill:#afcdfb;}.cls-8{fill:#aec3ff;}.cls-9{fill:#819dea;}.cls-10{fill:#c5d7ff;}.cls-11{fill:#a8d29f;}.cls-12{fill:#d36d1a;}.cls-13{fill:#f49540;}.cls-14{fill:#ffa255;}.cls-15,.cls-16{fill:#f8fcff;}.cls-16{opacity:0.5;}.cls-17{fill:#545453;}.cls-18,.cls-26{fill:#2f2d2c;}.cls-19{fill:#060633;}.cls-20{fill:#131375;}.cls-21{fill:#f99746;}.cls-22{fill:#656563;}.cls-23{fill:#99f;}.cls-24{fill:#ed975d;}.cls-25{fill:#ffb27d;}.cls-26{stroke:#e0dfd8;}.cls-26,.cls-32{stroke-miterlimit:10;}.cls-27{fill:#37387a;}.cls-28{fill:#3b4988;}.cls-29{fill:#7a96e5;}.cls-30{fill:#233862;}.cls-31{fill:#e0dfd8;}.cls-32{fill:#e0e2e1;stroke:#2f2d2c;}.cls-33{fill:#2e3552;}</style></defs><path class="cls-1" d="M2253.94,1559.28c0,1.52,0,3,0,4.55,0,.57,0,1.15,0,1.72,0,.12,0,.24,0,.35,0,1.66-.06,3.32-.1,5-.05,1.94-.12,3.87-.2,5.78-.05,1.52-.12,3-.2,4.56,0,.57,0,1.14-.09,1.72-.08,1.5-.15,3-.25,4.49,0,.42-.05.84-.08,1.27-.08,1.19-.16,2.38-.25,3.57,0,.45-.07.89-.1,1.34-.07,1-.15,1.94-.24,2.91-.18,2.42-.4,4.84-.63,7.26-.07.69-.14,1.4-.22,2.09q-.8,8.12-1.88,16.08c-.21,1.68-.44,3.35-.68,5-.16,1.12-.32,2.24-.49,3.36-.23,1.5-.45,3-.7,4.47s-.44,2.85-.68,4.27-.51,3.09-.78,4.64c-.23,1.27-.45,2.54-.69,3.8q-.51,2.88-1.07,5.76c-.12.65-.25,1.3-.37,2l-.75,3.75q-.57,2.82-1.18,5.64c-.18.87-.37,1.76-.57,2.63s-.39,1.81-.59,2.72c-.33,1.47-.65,3-1,4.4-2.38,10.39-5,20.46-7.72,30.12-.76,2.7-1.54,5.36-2.31,8l-.39,1.33c-.37,1.22-.74,2.43-1.1,3.63l-.33,1.09c-.89,2.9-1.8,5.77-2.69,8.58q-1.09,3.36-2.17,6.64c-.49,1.43-1,2.84-1.43,4.23s-.95,2.79-1.43,4.15-1,2.74-1.42,4.08c-.25.68-.48,1.34-.72,2-.8,2.23-1.6,4.43-2.38,6.58-.39,1.06-.79,2.11-1.18,3.15-1.31,3.49-2.61,6.86-3.87,10.11-.35.88-.7,1.75-1,2.61-3.16,7.93-6.19,15.15-9,21.57-.23.5-.45,1-.66,1.5l-.76,1.68-1.17,2.63q-1.28,2.82-2.45,5.37l-1.72,3.68c-.41.86-.8,1.7-1.19,2.5l-.81,1.69c-.55,1.12-1.06,2.19-1.55,3.18l-1.14,2.31c-1.34,2.7-2.44,4.84-3.24,6.38-.16.29-.31.56-.43.81-.29.56-.54,1-.72,1.34-.3.54-.44.81-.44.81l-178.5-.15-37.79,0-854-.67-225.43-.18-450.45-.36s-.27-.27-.77-.82-.91-1-1.56-1.68L435,1821l-.18-.19-1.31-1.49-1-1.11c-2.36-2.73-5.36-6.31-8.85-10.73-.66-.83-1.33-1.7-2-2.58-.95-1.22-1.94-2.5-2.95-3.84l-1.08-1.44c-4.14-5.51-8.73-11.92-13.63-19.21-.33-.5-.68-1-1-1.52-6.15-9.21-12.76-19.79-19.56-31.72-.76-1.33-1.51-2.68-2.27-4s-1.52-2.73-2.28-4.12q-2.6-4.71-5.18-9.67c-.58-1.1-1.15-2.21-1.73-3.34s-1.05-2-1.58-3.09c-2.46-4.87-4.94-9.91-7.4-15.13-.46-1-.92-2-1.38-3q-4.31-9.22-8.51-19.17l-1.68-4c-.45-1.08-.89-2.16-1.34-3.26-3.33-8.17-6.6-16.68-9.75-25.53-.57-1.59-1.13-3.2-1.69-4.81q-1.8-5.16-3.53-10.46c-.48-1.45-.95-2.9-1.42-4.37-.54-1.68-1.08-3.37-1.6-5.07s-1.05-3.38-1.56-5.08a.43.43,0,0,0-.05-.13c-.5-1.7-1-3.4-1.51-5.12-.42-1.43-.83-2.86-1.24-4.29-.16-.55-.31-1.1-.47-1.66-.44-1.54-.86-3.09-1.29-4.65-.38-1.39-.76-2.78-1.13-4.2-.45-1.65-.88-3.31-1.31-5-.67-2.59-1.33-5.19-2-7.83-.55-2.21-1.09-4.44-1.6-6.69-.28-1.15-.54-2.31-.81-3.46-.65-2.88-1.3-5.79-1.92-8.72-.23-1.08-.46-2.17-.68-3.26q-1.43-6.78-2.71-13.75c-.3-1.55-.58-3.1-.86-4.66s-.54-3.12-.82-4.7-.53-3.15-.8-4.74c-1-6.32-2-12.77-2.89-19.31-1.09-8.17-2.07-16.52-2.91-25l-.48-5.12-.45-5.15c-.28-3.45-.55-6.92-.78-10.41q-.54-7.87-.91-15.91c-.08-1.78-.16-3.57-.22-5.38q-.4-10.39-.51-21.07-.08-8.6,0-17.35c0-1.72.05-3.44.09-5.17s.07-3.44.12-5.18c.1-3.46.21-7,.36-10.46h0q.31-7.68.79-15.47c0-.25,0-.49.05-.75q.3-4.87.67-9.79c0-.51.07-1,.11-1.53q.58-7.69,1.34-15.52c.35-3.66.73-7.36,1.15-11.06q.3-2.79.64-5.59t.67-5.61q1.41-11.34,3.17-22.95.39-2.69.84-5.39c1.12-7,2.32-14.16,3.66-21.36.21-1.18.43-2.36.66-3.55.28-1.5.57-3,.86-4.51s.62-3.18.94-4.78q2.75-13.77,6-27.88c.25-1.09.51-2.18.76-3.26q.69-2.94,1.41-5.91,1.51-6.16,3.11-12.41c.42-1.64.85-3.3,1.28-5,.36-1.37.73-2.74,1.1-4.12q.71-2.68,1.46-5.42c.35-1.31.72-2.62,1.08-3.93.42-1.51.84-3,1.27-4.52s.86-3,1.3-4.54.87-3,1.32-4.55c.26-.9.52-1.8.79-2.7q5.41-18.31,11.75-37.12.81-2.4,1.63-4.8c.39-1.16.8-2.32,1.2-3.48.34-1,.68-2,1-3,.65-1.85,1.3-3.72,2-5.58q.87-2.46,1.77-5,4.1-11.39,8.55-22.94,7.05-18.29,13.3-36.23,6.11-17.52,11.49-34.7,3.79-12.06,7.26-23.95c120.6-414.1-44.91-687.35,295.87-809.28,366.16-131,526.16,159,817.37,109.72,276.37-46.74,577.19,74.75,580.24,296.11a255.85,255.85,0,0,1-2.11,36.52q-3,23.23-6.27,46.64c-13.94,100.64-30,202.79-29.9,301.12.07,126.59,26.78,246.82,118.83,349.25q5.33,5.92,10.23,12c.57.69,1.13,1.38,1.68,2.09.13.16.25.3.37.46.56.7,1.13,1.42,1.68,2.14,1.56,2,3.07,4,4.56,6,.74,1,1.48,2,2.19,3,1.67,2.3,3.31,4.62,4.89,7,.71,1,1.42,2.09,2.12,3.14.12.17.22.33.33.5l2,3c.73,1.12,1.43,2.24,2.14,3.37s1.4,2.25,2.08,3.39q1.69,2.77,3.32,5.58c.41.71.81,1.41,1.2,2.12q5.17,9.1,9.61,18.36c.33.67.65,1.36,1,2q1.07,2.24,2.08,4.49,1.32,2.91,2.56,5.83c.44,1,.86,2,1.28,3s.85,2.07,1.26,3.11q2.25,5.6,4.26,11.22c.4,1.11.78,2.22,1.16,3.32.33.93.64,1.86,1,2.8.2.61.41,1.21.61,1.82q1,3,1.92,6.08c.71,2.3,1.38,4.62,2,6.94q2,7.23,3.72,14.51c.27,1.15.54,2.32.79,3.47.14.61.27,1.2.39,1.8.18.81.35,1.6.52,2.41q.57,2.76,1.11,5.53c.13.72.27,1.44.4,2.15.17.86.33,1.74.47,2.6s.36,2,.53,3,.33,2,.49,3l.36,2.33h0c.19,1.25.38,2.5.56,3.75s.32,2.36.48,3.54c0,.15.05.3.07.46.14,1.16.29,2.34.43,3.5q.46,3.75.84,7.49.57,5.63,1,11.23c.1,1.33.19,2.65.27,4,.07,1.16.14,2.33.2,3.49s.11,2.21.17,3.32c.18,3.85.29,7.71.35,11.55,0,1,0,2,.05,3C2253.93,1556.35,2253.94,1557.82,2253.94,1559.28Z"/><path class="cls-2" d="M2253.94,1559.28c0,1.51,0,3,0,4.55,0,.57,0,1.15,0,1.72,0,.11,0,.24,0,.35,0,1.65-.06,3.31-.1,5-.05,1.94-.12,3.86-.19,5.78-.06,1.52-.13,3-.21,4.55,0,.57,0,1.15-.09,1.73-.07,1.5-.15,3-.25,4.49,0,.41-.05.84-.08,1.26-.08,1.2-.16,2.39-.25,3.57,0,.45-.06.9-.1,1.35-.07,1-.14,1.94-.23,2.91-.19,2.42-.41,4.84-.64,7.25l-.21,2.1q-.81,8.12-1.89,16.08c-.21,1.68-.44,3.34-.68,5-.15,1.12-.32,2.24-.49,3.36-.23,1.5-.45,3-.69,4.48s-.45,2.84-.69,4.27-.51,3.09-.78,4.63c-.23,1.28-.45,2.54-.69,3.81-.34,1.91-.7,3.84-1.07,5.75-.12.65-.25,1.3-.37,2l-.75,3.75q-.57,2.82-1.18,5.65c-.17.87-.37,1.75-.57,2.63s-.39,1.81-.59,2.72c-.32,1.46-.65,2.94-1,4.4-2.38,10.39-5,20.45-7.72,30.12-.76,2.7-1.54,5.36-2.31,8l-.39,1.32c-.37,1.22-.74,2.43-1.1,3.64l-.33,1.09c-.89,2.9-1.78,5.76-2.69,8.57-.73,2.24-1.44,4.46-2.17,6.64-.48,1.44-.95,2.85-1.42,4.24s-1,2.78-1.44,4.15-1,2.73-1.42,4.07c-.25.69-.48,1.35-.72,2-.8,2.23-1.6,4.42-2.38,6.57-.39,1.07-.79,2.12-1.18,3.16-1.31,3.48-2.61,6.85-3.87,10.11-.35.87-.69,1.75-1,2.61-3.16,7.93-6.19,15.15-9,21.56q-.34.76-.66,1.5c-.26.58-.51,1.13-.75,1.68l-1.18,2.64q-1.28,2.82-2.45,5.37c-.6,1.28-1.17,2.5-1.71,3.67-.42.86-.81,1.7-1.2,2.51-.27.58-.54,1.14-.81,1.69-.55,1.12-1.06,2.18-1.54,3.18l-1.15,2.31q-1.29,2.58-2.26,4.48c-.37.7-.69,1.34-1,1.9-.16.29-.31.56-.43.81-.29.55-.54,1-.71,1.34l-178.95.66-37.79.14v-4l-854,3.2-225.43.84v-3.88l-451.22,1.69c-.38-.4-.91-1-1.56-1.68L435,1821l-.18-.19c-.4-.46-.83-1-1.31-1.49-.3-.35-.62-.73-1-1.11-2.36-2.73-5.36-6.32-8.84-10.74-.66-.83-1.34-1.69-2-2.57-.95-1.22-1.94-2.5-2.94-3.84l-1.09-1.45c-4.14-5.51-8.73-11.91-13.63-19.2l-1-1.52c-6.15-9.22-12.76-19.8-19.56-31.72-.76-1.32-1.51-2.67-2.27-4s-1.52-2.74-2.28-4.12q-2.6-4.71-5.18-9.68c-.58-1.1-1.15-2.2-1.73-3.34s-1.05-2-1.58-3.09c-2.46-4.87-4.94-9.9-7.4-15.12l-1.38-3q-4.29-9.24-8.51-19.18c-.56-1.33-1.12-2.66-1.68-4l-1.34-3.26q-5-12.25-9.75-25.52c-.57-1.59-1.13-3.21-1.69-4.82q-1.8-5.16-3.53-10.46c-.48-1.44-.95-2.9-1.42-4.36-.54-1.68-1.08-3.37-1.6-5.07s-1-3.39-1.56-5.09a.84.84,0,0,0,0-.12c-.51-1.7-1-3.4-1.52-5.13-.42-1.42-.82-2.85-1.24-4.29-.16-.55-.31-1.09-.47-1.65-.44-1.55-.86-3.09-1.29-4.65-.38-1.39-.76-2.79-1.13-4.2-.44-1.66-.88-3.31-1.31-5q-1-3.88-2-7.83-.82-3.33-1.6-6.7c-.28-1.15-.54-2.3-.8-3.46-.65-2.87-1.3-5.78-1.93-8.72-.22-1.07-.46-2.17-.68-3.26q-1.41-6.78-2.71-13.74c-.29-1.55-.57-3.11-.85-4.66s-.55-3.13-.83-4.7-.53-3.15-.8-4.74q-1.58-9.51-2.89-19.31-1.65-12.27-2.91-25c-.15-1.7-.32-3.4-.48-5.11s-.3-3.43-.45-5.15c-.28-3.45-.55-6.92-.78-10.42-.37-5.25-.67-10.54-.91-15.91-.08-1.78-.15-3.57-.22-5.37q-.42-10.39-.51-21.07-.09-8.6,0-17.36c0-1.71.05-3.44.09-5.16s.08-3.45.12-5.18c.1-3.46.21-7,.36-10.46h0q.3-7.68.79-15.48c0-.24,0-.49.05-.75.2-3.24.41-6.5.67-9.78,0-.52.07-1,.11-1.54.39-5.14.84-10.3,1.35-15.52q.51-5.49,1.14-11.06c.2-1.86.41-3.71.64-5.58s.43-3.73.67-5.61q1.41-11.34,3.17-23,.4-2.69.84-5.38,1.68-10.56,3.66-21.37c.21-1.17.43-2.36.66-3.55.28-1.5.57-3,.86-4.51s.62-3.18.94-4.78q2.75-13.77,6-27.88c.25-1.08.51-2.17.77-3.26.45-2,.92-3.93,1.41-5.91q1.49-6.16,3.1-12.4c.42-1.65.85-3.31,1.29-5,.35-1.37.72-2.75,1.09-4.12.47-1.8,1-3.61,1.46-5.42.36-1.31.73-2.62,1.08-3.93.42-1.51.84-3,1.27-4.53s.86-3,1.3-4.53.87-3,1.32-4.56c.26-.89.53-1.79.79-2.7q5.41-18.3,11.75-37.11l1.63-4.81,1.2-3.48,1-3c.65-1.84,1.3-3.71,2-5.57.59-1.65,1.17-3.29,1.77-5q4.1-11.39,8.56-22.94,7-18.3,13.29-36.24l11.5-34.69q3.79-12.06,7.25-23.95h88.9v116.73h83.72v43H618.4v-24.95h43.18v-99h21.51V995.39h3.24v46.21h51.61V955h5v86.61h34.12v-1.21h0v-11h0V1019h0v-17.31h0V990.64h0V973.33h0V962.28h0V945h0V933h0V915.72h0v-15.2h0v-17.3h0V871.75h10.17v-13h1.63v13h75.34v-13h1.62v13h13.75v90.53l9.67.07v-.07h-.08V945h.08V933h-.08V915.72h.08v-11.9h-.08v-17.3h.08v0h91.36v0h15.7c.81.46,1.62.91,2.43,1.38v98.8h66.79v129.74h53.94V876.5h11.74V859.73h2.11V876.5H1176V859.73h2.1V876.5h60.33V859.73h2.12V876.5h38V859.73h2.12V876.5h15.59v224h59.63v-36.22l70.32.32v-58.7h14.16V994.26h1.87v11.61h65.15V994.26h1.87v11.62h13.1v116.73H1606v43h46.54v-24.95h43.15v-99h21.53V995.39h3.25v46.21h51.58V955h5.07v86.61h34.13v-1.21h-.06v-11h.06V1019h-.06v-17.31h.06V990.64h-.06V973.33h.06V962.28h-.06V945h.06V933h-.06V915.72h.06v-15.2h-.06v-17.3h.06V871.75h10.17v-13h1.63v13h75.32v-13H1900v13h13.74v90.53l9.54.07h.14v-.07h-.08V945h.08V933h-.08V915.72h.08v-11.9h-.08v-17.3h.08v0h91.35v0h15.7l2.43,1.38v98.8h21.53c.07,119.89,24,234.07,104.77,332.83q6.75,8.28,14.06,16.41,5.33,5.93,10.23,12c.58.7,1.14,1.39,1.68,2.09l.37.46c.56.71,1.14,1.43,1.68,2.14,1.56,2,3.07,4,4.56,6,.74,1,1.48,2,2.2,3,1.66,2.31,3.3,4.63,4.88,7l2.12,3.15.33.49c.67,1,1.33,2,2,3.06s1.44,2.24,2.14,3.37,1.4,2.25,2.08,3.38q1.69,2.79,3.32,5.59c.41.7.81,1.41,1.21,2.11q5.16,9.11,9.6,18.37c.33.67.65,1.35,1,2,.7,1.49,1.4,3,2.07,4.49q1.32,2.91,2.56,5.84c.44,1,.86,2,1.28,3s.85,2.07,1.26,3.12c1.5,3.72,2.93,7.46,4.26,11.22.4,1.1.78,2.21,1.16,3.32.33.93.64,1.86,1,2.8.21.6.41,1.21.61,1.81q1,3,1.92,6.08c.71,2.31,1.38,4.63,2,7q2,7.23,3.72,14.51c.27,1.15.54,2.31.79,3.47.14.6.27,1.2.4,1.8.18.81.34,1.6.51,2.41.38,1.83.75,3.68,1.11,5.53.13.71.27,1.43.4,2.15s.33,1.73.47,2.6.36,2,.53,3,.33,2,.49,3c.13.78.24,1.55.36,2.33h0c.19,1.25.38,2.49.56,3.75s.32,2.36.48,3.54a3.25,3.25,0,0,1,.07.45c.14,1.17.29,2.34.44,3.51.3,2.5.58,5,.84,7.49.39,3.74.7,7.49,1,11.23.1,1.32.19,2.64.27,4,.08,1.17.14,2.33.2,3.5s.11,2.2.17,3.31c.18,3.85.29,7.72.36,11.56,0,1,0,2,0,3C2253.93,1556.35,2253.94,1557.81,2253.94,1559.28Z"/><rect class="cls-3" x="1161.41" y="876.51" width="134.78" height="37.96"/><rect class="cls-3" x="1811.42" y="871.75" width="62.89" height="23.06"/><rect class="cls-3" x="1811.42" y="907.24" width="62.89" height="23.06"/><rect class="cls-3" x="1811.42" y="943.47" width="62.89" height="23.06"/><rect class="cls-3" x="1811.42" y="980.28" width="62.89" height="23.06"/><rect class="cls-3" x="1811.42" y="1015.79" width="62.89" height="23.06"/><rect class="cls-3" x="1811.42" y="1054.88" width="62.89" height="23.06"/><rect class="cls-3" x="1811.42" y="1090.36" width="62.89" height="23.06"/><rect class="cls-3" x="1811.42" y="1126.59" width="62.89" height="23.06"/><rect class="cls-3" x="1811.42" y="1163.4" width="62.89" height="23.06"/><rect class="cls-3" x="1811.42" y="1198.91" width="62.89" height="23.06"/><rect class="cls-3" x="776.48" y="871.75" width="67.39" height="23.06"/><rect class="cls-3" x="776.48" y="907.24" width="67.39" height="23.06"/><rect class="cls-3" x="776.48" y="943.47" width="67.39" height="23.06"/><rect class="cls-3" x="776.48" y="980.28" width="67.39" height="23.06"/><rect class="cls-3" x="776.48" y="1015.79" width="67.39" height="23.06"/><rect class="cls-3" x="776.48" y="1054.88" width="67.39" height="23.06"/><rect class="cls-3" x="776.48" y="1090.36" width="67.39" height="23.06"/><rect class="cls-3" x="776.48" y="1126.59" width="67.39" height="23.06"/><rect class="cls-3" x="776.48" y="1163.4" width="67.39" height="23.06"/><rect class="cls-3" x="776.48" y="1198.91" width="67.39" height="23.06"/><rect class="cls-3" x="890.6" y="886.87" width="76.59" height="23.06"/><rect class="cls-3" x="890.6" y="922.36" width="76.59" height="23.06"/><rect class="cls-3" x="890.6" y="958.59" width="76.59" height="23.06"/><rect class="cls-3" x="890.6" y="995.4" width="76.59" height="23.06"/><rect class="cls-3" x="890.6" y="1030.91" width="76.59" height="23.06"/><rect class="cls-3" x="890.6" y="1067.93" width="76.59" height="23.06"/><rect class="cls-3" x="890.6" y="1103.42" width="76.59" height="23.06"/><rect class="cls-3" x="890.6" y="1139.65" width="76.59" height="23.06"/><rect class="cls-3" x="890.6" y="1176.46" width="76.59" height="23.06"/><rect class="cls-3" x="890.6" y="1211.97" width="76.59" height="23.06"/><path class="cls-4" d="M2253.94,1559.28c0,1.51,0,3,0,4.55,0,.57,0,1.15,0,1.72,0,.11,0,.24,0,.35,0,1.65-.06,3.31-.1,5-.05,1.94-.12,3.86-.19,5.78-.06,1.52-.13,3-.21,4.55,0,.57,0,1.15-.09,1.73-.07,1.5-.15,3-.25,4.49,0,.41-.05.84-.08,1.26-.08,1.2-.16,2.39-.25,3.57,0,.45-.06.9-.1,1.35-.07,1-.14,1.94-.23,2.91-.19,2.42-.41,4.84-.64,7.25l-.21,2.1q-.81,8.12-1.89,16.08c-.21,1.68-.44,3.34-.68,5-.15,1.12-.32,2.24-.49,3.36-.23,1.5-.45,3-.69,4.48s-.45,2.84-.69,4.27-.51,3.09-.78,4.63c-.23,1.28-.45,2.54-.69,3.81-.34,1.91-.7,3.84-1.07,5.75-.12.65-.25,1.3-.37,2l-.75,3.75q-.57,2.82-1.18,5.65c-.17.87-.37,1.75-.57,2.63s-.39,1.81-.59,2.72c-.32,1.46-.65,2.94-1,4.4-2.38,10.39-5,20.45-7.72,30.12-.76,2.7-1.54,5.36-2.31,8l-.39,1.32c-.37,1.22-.74,2.43-1.1,3.64l-.33,1.09c-.89,2.9-1.78,5.76-2.69,8.57-.73,2.24-1.44,4.46-2.17,6.64-.48,1.44-.95,2.85-1.42,4.24s-1,2.78-1.44,4.15-1,2.73-1.42,4.07c-.25.69-.48,1.35-.72,2-.8,2.23-1.6,4.42-2.38,6.57-.39,1.07-.79,2.12-1.18,3.16-1.31,3.48-2.61,6.85-3.87,10.11-.35.87-.69,1.75-1,2.61-3.16,7.93-6.19,15.15-9,21.56q-.34.76-.66,1.5c-.26.58-.51,1.13-.75,1.68l-1.18,2.64q-1.28,2.82-2.45,5.37c-.6,1.28-1.17,2.5-1.71,3.67-.42.86-.81,1.7-1.2,2.51-.27.58-.54,1.14-.81,1.69-.55,1.12-1.06,2.18-1.54,3.18l-1.15,2.31q-1.29,2.58-2.26,4.48H2030.11c-61.83-86.62-16.22-206.29,61.21-262.75,53.74-39.19-11.66-94.56-5.22-157.5,3.73-36.5,33.66-62.65,73.11-81.46q6.75,8.28,14.06,16.41,5.33,5.93,10.23,12c.58.7,1.14,1.39,1.68,2.09l.37.46c.56.71,1.14,1.43,1.68,2.14,1.56,2,3.07,4,4.56,6,.74,1,1.48,2,2.2,3,1.66,2.31,3.3,4.63,4.88,7l2.12,3.15.33.49c.67,1,1.33,2,2,3.06s1.44,2.24,2.14,3.37,1.4,2.25,2.08,3.38q1.69,2.79,3.32,5.59c.41.7.81,1.41,1.21,2.11q5.16,9.11,9.6,18.37c.33.67.65,1.35,1,2,.7,1.49,1.4,3,2.07,4.49q1.32,2.91,2.56,5.84c.44,1,.86,2,1.28,3s.85,2.07,1.26,3.12c1.5,3.72,2.93,7.46,4.26,11.22.4,1.1.78,2.21,1.16,3.32.33.93.64,1.86,1,2.8.21.6.41,1.21.61,1.81q1,3,1.92,6.08c.71,2.31,1.38,4.63,2,7q2,7.23,3.72,14.51c.27,1.15.54,2.31.79,3.47.14.6.27,1.2.4,1.8.18.81.34,1.6.51,2.41.38,1.83.75,3.68,1.11,5.53.13.71.27,1.43.4,2.15s.33,1.73.47,2.6.36,2,.53,3,.33,2,.49,3c.13.78.24,1.55.36,2.33h0c.19,1.25.38,2.49.56,3.75s.32,2.36.48,3.54a3.25,3.25,0,0,1,.07.45c.14,1.17.29,2.34.44,3.51.3,2.5.58,5,.84,7.49.39,3.74.7,7.49,1,11.23.1,1.32.19,2.64.27,4,.08,1.17.14,2.33.2,3.5s.11,2.2.17,3.31c.18,3.85.29,7.72.36,11.56,0,1,0,2,0,3C2253.93,1556.35,2253.94,1557.81,2253.94,1559.28Z"/><path class="cls-5" d="M1477.5,1822.21H430.63c-19.95-24-73.33-96.06-104.63-212.36a700.59,700.59,0,0,1-23.25-155.95c25.55-.46,257.45-1.5,356.25,113.74,104.63,122.06,396.92,18,476.54,87.52s145.7,131.24,221.92,114.07S1477.5,1822.21,1477.5,1822.21Z"/><path class="cls-6" d="M881.62,1276.6h-5.13l0-.4,1.55-13.7a.88.88,0,0,1,.87-.78h.16a1.44,1.44,0,0,1,.77.35,1.41,1.41,0,0,1,.44.88Z"/><path class="cls-7" d="M877,1273.49h-.18l1.28-11a.88.88,0,0,1,.87-.78h.16a.86.86,0,0,1,.14.13,1.31,1.31,0,0,1,.36.92l.08,7.91A2.78,2.78,0,0,1,877,1273.49Z"/><rect class="cls-6" x="874.99" y="1337.58" width="9.91" height="437.43"/><rect class="cls-8" x="874.99" y="1337.58" width="4.57" height="437.43"/><rect class="cls-6" x="864.17" y="1705.21" width="31.55" height="115.74"/><rect class="cls-8" x="864.17" y="1705.21" width="18.81" height="115.74"/><path class="cls-6" d="M897.19,1283.2c0,5.41-8.12,9.79-18.14,9.79-.76,0-1.51,0-2.25-.08-8.95-.6-15.88-4.71-15.88-9.71s6.93-9.1,15.88-9.7c.74,0,1.49-.08,2.25-.08C889.07,1273.42,897.19,1277.8,897.19,1283.2Z"/><path class="cls-8" d="M887.8,1283.2c0,4.36-4.53,8.1-11,9.71-8.95-.6-15.88-4.71-15.88-9.71s6.93-9.1,15.88-9.7C883.27,1275.11,887.8,1278.85,887.8,1283.2Z"/><polygon class="cls-8" points="895.68 1346.2 864.13 1346.2 853.01 1292.64 905.1 1292.64 895.68 1346.2"/><rect class="cls-6" x="850.19" y="1288.61" width="57.73" height="5.14"/><rect class="cls-8" x="850.19" y="1288.61" width="36.29" height="5.14"/><path class="cls-9" d="M869.34,1705.21H889.5l-3-9a1.94,1.94,0,0,0-1.84-1.33h-9.45a2.53,2.53,0,0,0-2.34,1.56Z"/><polygon class="cls-10" points="856.73 1295.25 901.23 1295.25 892.54 1343.4 866.99 1343.4 856.73 1295.25"/><polygon class="cls-6" points="904.23 1288.61 853.88 1288.61 858 1282.73 900.32 1282.73 904.23 1288.61"/><polygon class="cls-8" points="891.83 1288.61 853.88 1288.61 858 1282.73 887.92 1282.73 891.83 1288.61"/><path class="cls-6" d="M1956.54,1008.9h-7.67l.07-.6,2.31-20.45a1.31,1.31,0,0,1,1.3-1.15h.24a2.14,2.14,0,0,1,1.14.52,2.06,2.06,0,0,1,.65,1.32Z"/><path class="cls-7" d="M1949.61,1004.26h-.27l1.91-16.42a1.31,1.31,0,0,1,1.3-1.15h.24l.2.2a2,2,0,0,1,.55,1.36l.11,11.8A4.15,4.15,0,0,1,1949.61,1004.26Z"/><rect class="cls-6" x="1946.64" y="1099.86" width="14.78" height="652.56"/><rect class="cls-8" x="1946.64" y="1099.86" width="6.82" height="652.56"/><rect class="cls-6" x="1930.49" y="1648.29" width="47.07" height="172.66"/><rect class="cls-8" x="1930.49" y="1648.29" width="28.05" height="172.66"/><path class="cls-6" d="M1979.75,1018.75c0,8.06-12.11,14.59-27,14.59-1.14,0-2.26,0-3.36-.11-13.35-.89-23.69-7-23.69-14.48s10.34-13.59,23.69-14.48q1.65-.12,3.36-.12C1967.64,1004.15,1979.75,1010.69,1979.75,1018.75Z"/><path class="cls-8" d="M1965.75,1018.75c0,6.49-6.76,12.07-16.41,14.48-13.35-.89-23.69-7-23.69-14.48s10.34-13.59,23.69-14.48C1959,1006.67,1965.75,1012.25,1965.75,1018.75Z"/><polygon class="cls-8" points="1977.51 1112.73 1930.44 1112.73 1913.84 1032.83 1991.56 1032.83 1977.51 1112.73"/><rect class="cls-6" x="1909.65" y="1026.8" width="86.11" height="7.66"/><rect class="cls-8" x="1909.65" y="1026.8" width="54.13" height="7.66"/><path class="cls-9" d="M1938.2,1648.29h30.08l-4.4-13.35a2.89,2.89,0,0,0-2.74-2H1947a3.76,3.76,0,0,0-3.48,2.34Z"/><polygon class="cls-10" points="1919.4 1036.72 1985.78 1036.72 1972.82 1108.54 1934.7 1108.54 1919.4 1036.72"/><polygon class="cls-6" points="1990.26 1026.81 1915.15 1026.81 1921.3 1018.05 1984.42 1018.05 1990.26 1026.81"/><polygon class="cls-8" points="1971.76 1026.81 1915.15 1026.81 1921.3 1018.05 1965.92 1018.05 1971.76 1026.81"/><path class="cls-11" d="M742.3,1820.86l-307.47-.08c-8.63-9.71-31.53-37.25-55.92-81.79,20.26-1.62,44.45-.53,63.74,9.31,41.28,21,35.87,49,87,38.78s93.28-14.57,116.18,0,39.69,8.77,68.17,8.68C737.58,1795.68,741.61,1814.45,742.3,1820.86Z"/><polygon class="cls-12" points="779.49 1736.22 491.14 1736.22 477.81 1668.44 765.64 1668.44 779.49 1736.22"/><polygon class="cls-13" points="784.42 1736.22 496.06 1736.22 482.74 1668.44 770.57 1668.44 784.42 1736.22"/><path class="cls-12" d="M491.13,1736.22h85.11a0,0,0,0,1,0,0v8.3a0,0,0,0,1,0,0h-78.8a6.31,6.31,0,0,1-6.31-6.31v-2A0,0,0,0,1,491.13,1736.22Z"/><rect class="cls-14" x="575.61" y="1736.22" width="261.88" height="8.3"/><path class="cls-14" d="M508.35,1744.51l-4.94,19.42v0l-14.61,57.5a1.7,1.7,0,0,1-1.64,1.28,2.36,2.36,0,0,1-2.31-2.81l13-67.07,1.63-8.34Z"/><path class="cls-12" d="M503.41,1763.93c.48-9.94-5.53-11.08-5.53-11.08l1.63-8.34h8.84Z"/><path class="cls-14" d="M570.9,1744.51,566,1763.93v0l-14.61,57.5a1.7,1.7,0,0,1-1.64,1.28,2.36,2.36,0,0,1-2.31-2.81l13-67.07,1.63-8.34Z"/><path class="cls-12" d="M566,1763.93c.48-9.94-5.53-11.08-5.53-11.08l1.63-8.34h8.84Z"/><path class="cls-14" d="M813.6,1744.51l4.93,19.42v0l14.62,57.5a1.69,1.69,0,0,0,1.63,1.28,2.36,2.36,0,0,0,2.32-2.81l-13-67.07-1.62-8.34Z"/><path class="cls-12" d="M818.53,1763.93c-.47-9.94,5.53-11.08,5.53-11.08l-1.62-8.34H813.6Z"/><path class="cls-14" d="M751.05,1744.51l4.93,19.42v0l14.62,57.5a1.69,1.69,0,0,0,1.63,1.28,2.36,2.36,0,0,0,2.32-2.81l-13-67.07-1.62-8.34Z"/><path class="cls-12" d="M756,1763.93c-.47-9.94,5.53-11.08,5.53-11.08l-1.62-8.34h-8.84Z"/><path class="cls-11" d="M617.35,1480.43a93,93,0,0,1-40.3,12.07c-65.45,4.08-88.16,28.42-141.14,80-31.24,30.35-75.48,34.55-109.91,34.71-25.25-92.2-36.14-212.69-3.57-359.54,13.4,9.31,27.19,19.53,41.47,29,36,24.14,75.08,43.77,117.84,33.35,43-10.44,76.09-9.82,102.06-1.44,33.15,10.43,54.83,33.13,70.37,61C675.66,1407.81,657,1457.72,617.35,1480.43Z"/><path class="cls-15" d="M1689.43,430.78a29.34,29.34,0,1,1,29.34,29.34A29.34,29.34,0,0,1,1689.43,430.78Z"/><path class="cls-15" d="M563.85,396.17S593.4,348.68,664.06,354c0,0,102.6-79.16,212-10.56,0,0,116.29-17,202.42,14.72,57.42,21.14,76.38,43.33,76.38,43.33Z"/><path class="cls-15" d="M590.72,725.49s15.61-32,52.94-28.48c0,0,54.2-53.42,112-7.12,0,0,61.43-11.47,106.93,9.93,30.33,14.27,40.35,29.23,40.35,29.23Z"/><path class="cls-16" d="M916.91,518.22s19.33-31.06,65.55-27.61c0,0,67.1-51.77,138.66-6.91,0,0,76.06-11.11,132.39,9.63,37.56,13.83,50,28.34,50,28.34Z"/><path class="cls-16" d="M2090.61,638.94q-3,23.23-6.27,46.64l-484.85-4.33s41.25-66.31,139.9-58.94c0,0,143.23-110.5,296-14.73,0,0,22.69-3.32,57.37-5.16A255.85,255.85,0,0,1,2090.61,638.94Z"/><path class="cls-17" d="M1694.47,1782.15s-14.75-53.48,25.45-105.5,108.36-38,108.36-38,9.5,14.65-9.33,26.23-84.42-11.62-100.94,102.32C1718,1767.16,1710.11,1790.72,1694.47,1782.15Z"/><path class="cls-17" d="M1184.37,1012.59a24.24,24.24,0,1,1,24.24,24.24A24.24,24.24,0,0,1,1184.37,1012.59Z"/><path class="cls-6" d="M1771.3,1750.38a34,34,0,1,1,34,34A34,34,0,0,1,1771.3,1750.38Z"/><circle class="cls-6" cx="1069.42" cy="1724.42" r="52.07"/><rect class="cls-18" x="815.68" y="1327.42" width="608.3" height="20.78" transform="translate(-357.56 2265.75) rotate(-82.2)"/><polygon class="cls-17" points="1100.11 1055.91 1100.11 1032.62 1206.05 1009.45 1213.02 1029.03 1100.11 1055.91"/><path class="cls-19" d="M1071.12,1823.24a97,97,0,1,1,97-97A97.06,97.06,0,0,1,1071.12,1823.24Zm0-174.29a77.34,77.34,0,1,0,77.34,77.34A77.43,77.43,0,0,0,1071.12,1649Z"/><path class="cls-19" d="M1805.32,1821.23a70.85,70.85,0,1,1,70.85-70.85A70.93,70.93,0,0,1,1805.32,1821.23Zm0-126.12a55.27,55.27,0,1,0,55.26,55.27A55.33,55.33,0,0,0,1805.32,1695.11Z"/><rect class="cls-18" x="1203.88" y="1752.24" width="512.5" height="38.74" rx="15.63"/><path class="cls-20" d="M1706.34,1791.2a7.79,7.79,0,0,1-2.46-15.18l99-33a7.79,7.79,0,1,1,4.93,14.78l-99,33A7.88,7.88,0,0,1,1706.34,1791.2Z"/><polygon class="cls-18" points="1097.94 1487.71 1263.81 1753.07 1305.93 1753.07 1106.74 1438.4 1097.94 1487.71"/><path class="cls-19" d="M1107.39,1641.16l-15.21-4.64-15.88,52.13a38.34,38.34,0,0,1-39.88,27l-50.36-4.25-1.33,15.85,50.52,4.26a67.42,67.42,0,0,1,51.14,30.87l26.73,41.84,13.4-8.56-25.82-40.42a76.52,76.52,0,0,1-8.72-63.51Z"/><path class="cls-19" d="M1828.13,1696.1l-9.89-3L1807.92,1727a24.89,24.89,0,0,1-25.91,17.55l-32.72-2.76-.87,10.3,32.83,2.77a43.79,43.79,0,0,1,33.23,20.06l17.37,27.18,8.7-5.56-16.77-26.26a49.73,49.73,0,0,1-5.67-41.27Z"/><path class="cls-21" d="M1796.1,1749.12a7.8,7.8,0,1,1,7.8,7.79A7.8,7.8,0,0,1,1796.1,1749.12Z"/><path class="cls-21" d="M1061.62,1724.42a7.8,7.8,0,1,1,7.8,7.79A7.8,7.8,0,0,1,1061.62,1724.42Z"/><path class="cls-22" d="M1010,1623.93s45.45-31.81,107.93-11.36,72.14,89.35,72.14,89.35-10.61,13.86-27.83,0-17.34-83.44-130.23-60.83C1032,1641.09,1007.17,1641.54,1010,1623.93Z"/><path class="cls-23" d="M1442,433.31s-78.47,126.18-78.47,160.43,25,73.63,25,73.63l79.4-65.92,39.51-70.89Z"/><path class="cls-24" d="M1504,618.39s-26.48,47.74-73.82,39.24c0,0-14-21-17.39-37.86-.43-2.07-.85-4.08-1.26-6-4-18.94-6.69-29.47-6.69-29.47l0,0c1.84-1.23,61.8-40.81,62.18-38.57C1476,597.3,1504,618.39,1504,618.39Z"/><path class="cls-25" d="M1384.19,587.23S1457,611.6,1471.48,566s33.63-73.13-12.24-90.62-60.48-3-69,11.06S1365.62,579.71,1384.19,587.23Z"/><path class="cls-26" d="M1301.62,1753h120a11.26,11.26,0,0,0,2.54-.74c8-4,5.5-34.68,4.54-44.15-.18-1.75-.31-2.78-.31-2.78s-42.19-33.74-48-7.91c-.19.81-.4,1.6-.62,2.38h0c-7.33,24.17-40.06,35.15-59,38.21C1306.33,1740.41,1302.58,1748.83,1301.62,1753Z"/><path class="cls-26" d="M1536.46,1753h120a11.38,11.38,0,0,0,2.55-.74c8-4,5.5-34.68,4.54-44.15-.19-1.75-.32-2.78-.32-2.78s-42.18-33.74-48-7.91c-.18.81-.39,1.6-.62,2.38h0c-7.32,24.17-40.06,35.15-59,38.21C1541.17,1740.41,1537.42,1748.83,1536.46,1753Z"/><path class="cls-27" d="M1325.8,1061.23s6.41,79.93,13.94,176c10.23,130.51,22.54,290.84,23.76,321.21,2.1,52.74,16.25,141.38,16.25,141.38s8.52,14,48.61,5.53c0,0,41.52-118.64,51.72-246.06q.24-3.13.47-6.3c9.49-129.71,24.25-402.85,24.25-402.85Z"/><path class="cls-28" d="M1325.8,1061.23s6.41,79.93,13.94,176l140.34,222.06q.24-3.13.47-6.3c9.49-129.71,24.25-402.85,24.25-402.85Z"/><path class="cls-27" d="M1355.06,1070.72s78.68,301.32,154.61,437.36,103,196.59,103,196.59,46.53,12.56,50.48.7c0,0-39.77-323.79-70.59-399.52-16-39.22-23.41-159.71-25-197.68s-28.27-89.65-28.27-89.65Z"/><path class="cls-23" d="M1329.14,1188.12c146,72.24,305.82,48.86,305.5,43.89-.27-5.44-60.83-327.54-81.8-421.49-19.53-87.48-45.93-164.13-70.37-181.64-3.21-2.2-22.44,7.68-40.12,16.85-16.32,8.45-32.81,9.68-48.45,6.85a114.1,114.1,0,0,0-12.61,22c-9.81,24-61.08,187.58-61.76,215.9,0,1.68-.06,3.37-.09,5-.18,8.19-.33,16.41-.46,24.58C1318.85,929.4,1327.51,1187.32,1329.14,1188.12Z"/><path class="cls-29" d="M1323.68,1065.26c143.6-80.53,129.38-265.9,129.38-265.9L1319,920.08c-.13,9.32-.22,18.59-.24,27.75,0,6.88,0,13.7.09,20.4l0,.89c-.18,2.5-.13,5.21-.07,7.7C1318.86,988.05,1323.54,1055,1323.68,1065.26Z"/><path class="cls-25" d="M1178.91,1010c-7.14-12.36-1.56-17.73-1.56-17.73s118.58-87.1,127.94-96,55.9-153.43,55.9-153.43,16.28-58.57,50.37-64c29.62-4.75,49.52,10.45,62.32,27.94a62.83,62.83,0,0,1,2.08,70.75c-31.1,48.9-93.79,146-111.72,162.31-39.92,36.41-168.56,80.2-168.56,80.2S1184.51,1019.7,1178.91,1010Z"/><path class="cls-30" d="M1467.76,578.46c1,.75,16.52,7.15,52.43-50.47,5.64-9,10.77-29.26,1.35-48.41s-47.46-37.05-79.58-46.27-41.66,8.45-51.07,26.23C1381,478.2,1356.2,492,1356.2,492c26.74,18.35,62.77-1,74.19,3.76s13.87,23.71,14.2,29.74,1.23,11.08,16.52,7.14,4.75,21.58,1.92,26.39C1463,559.05,1459.78,572.24,1467.76,578.46Z"/><path class="cls-23" d="M1442,433.31s40.14,68.62,41.43,97.95-89.49,121.32-89.49,121.32,77.83,20.43,109.86,0c0,0,74.07-103.18,74.07-122S1534.45,434.42,1442,433.31Z"/><path class="cls-29" d="M1371.12,1058.43s70.47,11.5,114.73,5.06l-1,70.81-56.37,21.59-57.37-31.81Z"/><path class="cls-25" d="M1177.08,992.26s-45.44,2.3-54.53,10.82-27,24.72-13.47,27.58l32.62-7.13c16.66,3.93,22.69,13,33.3,7.34l22.21-11.81Z"/><path class="cls-17" d="M1068.26,1041a24.24,24.24,0,1,1,24.24,24.24A24.24,24.24,0,0,1,1068.26,1041Z"/><path class="cls-18" d="M1725.22,870.38a50,50,0,0,1-1.33,9.22c-9.52,36.39-132.68,63.87-146.48,50.7a52.2,52.2,0,0,1-8-10.52c-35.07-57.65-79.54-267.57-62-255.13,0,0,32.73-10.22,59.6-12.77l4.75-.37h.16c8.51-.51,16.14-.07,21.54,1.93,22.9,8.5,41.19,68.3,41.19,68.3s18.86-2.67,35.68-.61c2.07.24,4.11.57,6.08,1h0c5.15,1.08,9.83,2.73,13.33,5.23C1704.11,737.6,1727.7,831,1725.22,870.38Z"/><path class="cls-31" d="M1522.91,661.66s-42.24-40.35-112.93-26l-16.08,16.89s71-17.06,110.06,20.26Z"/><path class="cls-31" d="M1400.12,853.85s42.22,75,157.5,37.75l11.81,28.18s-137.06,39-183.34-36.5Z"/><path class="cls-23" d="M1415.3,667.37s-29.26-3.34-40,23.93c-7.71,19.47-24.94,111-63.83,177.73-15.59,26.74-75,78.93-99.69,97.89,0,0,9,29,28.36,36.7,0,0,93.67,9.5,155.21-60.56,17.61-19.88,122.32-190.48,100.73-225.7S1415.3,667.37,1415.3,667.37Z"/><path class="cls-31" d="M1571.91,651.5c-4.18,4-12.37,14.76-9.65,35.2a186.39,186.39,0,0,0,12.55,47.24l-3,1.42a189.4,189.4,0,0,1-12.82-48.2c-2.43-18.24,3.33-29.43,8.06-35.28Z"/><path class="cls-31" d="M1691,871.24l-3.21,1c-1.4-4.48-34.11-110-31.86-129.48a27.33,27.33,0,0,1,14.35-21.66c2.07.24,4.11.57,6.08,1a24.28,24.28,0,0,0-17.1,21.08C1657.13,761.92,1690.7,870.14,1691,871.24Z"/><path class="cls-31" d="M1544.18,824.74l29.1,82.5s40.32,1.21,65-15.64l-26.87-84.77S1589,824,1544.18,824.74Z"/><path d="M1725.22,870.38a50,50,0,0,1-1.33,9.22c-9.52,36.39-132.68,63.87-146.48,50.7a52.2,52.2,0,0,1-8-10.52C1570.54,919.74,1640.45,917.31,1725.22,870.38Z"/><path class="cls-32" d="M1544.18,824.74l8.55,24.24,38.48,2.63,27.64-21.15-7.49-23.63S1568,815.78,1544.18,824.74Z"/><path class="cls-20" d="M1585.42,844.33a2.43,2.43,0,1,1,2.43,2.43A2.42,2.42,0,0,1,1585.42,844.33Z"/><rect class="cls-33" x="333.79" y="1820.86" width="1943.05" height="7.71" rx="2.69"/></svg>