<svg id="_лой_1" data-name="‘лой_1" xmlns="http://www.w3.org/2000/svg" viewBox="0 0 3200 2000"><defs><style>.cls-1{fill:#ebf3fa;}.cls-2,.cls-3,.cls-4{fill:#80b4ff;}.cls-2{opacity:0.2;}.cls-3{opacity:0.4;}.cls-5{fill:#afcdfb;}.cls-6{fill:#bfe2a8;}.cls-11,.cls-7{fill:#f8fcff;}.cls-7{opacity:0.8;}.cls-8{fill:#daed8e;}.cls-9{fill:#a36f4b;}.cls-10{fill:#d8a987;}.cls-12{fill:#509b67;}.cls-13{fill:#82b378;}.cls-14{fill:#fff;}.cls-15{fill:#f99746;}.cls-16{fill:#af5919;}.cls-17{fill:#163560;}.cls-18{fill:#1c468a;}.cls-19{fill:#ed7d2b;}.cls-20{fill:#ffb27d;}.cls-21{fill:#fca56b;}.cls-22{fill:#29589b;}.cls-23{fill:#edc5a2;}.cls-24{fill:#f9ddbf;}</style></defs><path class="cls-1" d="M3026.16,1622.72a203.11,203.11,0,0,1-200.65,171.36l-575.56-.26-504.33-.24h-15.14l-108,0h-13.93l-103,0h-17.62l-143.57-.06-25.31,0-117.09-.06h-31.84l-201.8-.1H933.07l-155.89-.07H743.94L503.57,1793a209.72,209.72,0,0,1-184.86-110.74c-15.57-29.14-32.36-63.27-48.63-101.4-26-61.05-50.76-132.38-67-210.05-13-62.1-20.68-128.25-19.32-196.44q.34-18.36,1.61-36.93,1.11-16.1,2.93-32.31a701.66,701.66,0,0,1,19.89-105,685,685,0,0,1,48.74-127.91c25.24-50.49,57.93-100.53,99.43-149.35A882.94,882.94,0,0,1,431.46,645c497.43-457.51,980-265.05,1048.89-265.05,332.34,0,252-209.78,620.05-241.87,778.31-67.88,662.54,649.08,662.53,649.11s-11.5,39.44-15,54.11q-7.18,29.58-11.12,56.1c-.2,1.34-.4,2.69-.59,4-.74,5.14-1.39,10.17-1.92,15.14-4,35.37-3.78,66.75-.15,95,6.77,52.82,25.37,94.58,50.19,130.69,16.56,24.11,35.9,45.68,56.34,66.32q8.59,8.68,17.43,17.2,11.38,11,22.94,21.91c10.24,9.73,20.5,19.49,30.56,29.46q3.24,3.18,6.45,6.43,5.52,5.55,10.91,11.22a484,484,0,0,1,41.76,49.32c2.81,3.81,5.52,7.69,8.18,11.63q4.68,7,9.05,14.23a307.19,307.19,0,0,1,24.26,49.78C3032.1,1472.3,3039.73,1537.14,3026.16,1622.72Z"/><path class="cls-2" d="M1627,1360.08,1418.81,1483.9,561.65,1355.31,183.71,1174.39q.34-18.36,1.61-36.93,1.11-16.1,2.93-32.31a701.66,701.66,0,0,1,19.89-105,685,685,0,0,1,48.74-127.91s254.63-105.72,304.77-74,193.4,225.15,257.86,215.6,112.22-94.64,198.18,27.89,133.71,166.2,212.5,119.3,119.38-113.76,186.23-73.17S1627,1360.08,1627,1360.08Z"/><path class="cls-3" d="M2840.64,1208.51c-189.06,63.49-789.51,262.35-931.07,274.37-168.63,14.32-192.3-125.19-192.3-125.19s188.62-272.19,212.5-267.41,89,111.72,114.09,93.81,130-382,170.11-385.82c37.6-3.58,92.65,82.86,108.25,68.54,8.68-8,47.8-89.73,88.15-160.74,32.2-56.69,65.2-106.53,84.07-106.45s44.78,41.13,72,93.16v0c46,87.81,95.95,206.92,123.66,213.4,13.67,3.2,29.68-1.76,46.65-8.85-.2,1.34-.4,2.69-.59,4-.74,5.14-1.39,10.17-1.92,15.14-4,35.37-3.78,66.75-.15,95,6.77,52.82,25.37,94.58,50.19,130.69C2800.86,1166.3,2820.2,1187.87,2840.64,1208.51Z"/><path class="cls-3" d="M1909.56,1362.78s68-123.18,78.79-103.48,41.18,29.49,55.51,8.48,188.41-209.62,192.69-162.77-67.35,163.38-38.7,168.68,186.23-152.27,241.74-120,118.18-26.86,177.27-25.07,57.33,138.07,57.33,138.07l-478.13,146.64L1970.44,1424,1863,1411.5Z"/><path class="cls-4" d="M2881,1247.62s-777.08,161.94-858.16,157.49c0,0,57.34-57,129-59.36s102.66-70,186.23-78,133.71,9.93,168.33-8,74-105.06,155.2-102.67c69.63,2.06,96.22.59,122.72-14.94,21.2,30.87,47,57.59,73.77,83.52Q2869.46,1236.72,2881,1247.62Z"/><path class="cls-5" d="M1330.05,1332.9,185.33,1137.54a.6.6,0,0,0,0-.08q1.11-16.1,2.93-32.31a701.66,701.66,0,0,1,19.89-105s122.07-24.58,181.17,0,53.72,64,100.28,69.35,88.77.89,123.79,28.75,87.55,47.75,140.87,44.57,167.13-15.92,211.71,19.9,132.91,113.8,209.31,112.61,118.77,19.14,131.32,37C1318.74,1329.64,1329.41,1332.73,1330.05,1332.9Z"/><path class="cls-6" d="M3032.64,1559a545.14,545.14,0,0,1-6.48,63.72,203.11,203.11,0,0,1-200.65,171.36l-575.56-.26-504.33-.24h-15.14l-108,0h-13.93l-103,0h-17.62l-143.57-.06-25.31,0-117.09-.06h-31.84l-201.8-.1H933.07l-164.77-.07H743.94L503.57,1793a209.72,209.72,0,0,1-184.86-110.74C278.2,1606.46,229.5,1497,203,1370.83c-5.36-25.54-9.81-51.75-13.09-78.51a822.62,822.62,0,0,1-5.69-135.56q1.11-25.63,4-51.61c112.7-1.53,410.4,7.23,764.7,119.84,452.75,143.91,870.37,236.4,1174.82,161.18,253.23-62.56,567.73-140,753.24-138.55,10.24,9.73,20.5,19.49,30.56,29.46q3.24,3.18,6.45,6.43,5.52,5.55,10.91,11.22a484,484,0,0,1,41.76,49.32c2.81,3.81,5.52,7.69,8.18,11.63q4.68,7,9.05,14.23a307.19,307.19,0,0,1,24.26,49.78C3026.82,1458.38,3034.83,1503.69,3032.64,1559Z"/><path class="cls-7" d="M1537,643.62s35-64.41,118.63-57.25c0,0,121.43-107.36,250.92-14.32,0,0,137.65-23,239.6,20,68,28.68,90.41,58.77,90.41,58.77Z"/><path class="cls-7" d="M1070.65,793.24s29.63-45.31,100.48-40.28c0,0,102.86-75.52,212.54-10.07,0,0,116.6-16.21,202.95,14,57.57,20.18,76.59,41.34,76.59,41.34Z"/><path class="cls-7" d="M703.07,587.41s21.11-45.31,71.57-40.28c0,0,73.26-75.51,151.39-10.06,0,0,83.05-16.22,144.55,14,41,20.17,54.55,41.33,54.55,41.33Z"/><path class="cls-8" d="M1411.12,1383.53s-444.37-50.48-624.24-115.75-192.94-46.09-149.4-11.52,294.65,116.29,190.59,125.58-291.35-18-361.93,54.21-181.46,137.15,0,151.17,711.36-85.53,711.36-85.53Z"/><path class="cls-9" d="M1901.11,1305.17s64.47,155.19,71.63,160,33.52,10.82,35.31,18,43,102.06,43,102.06l-157.57,30.44-125.35-73.41Z"/><path class="cls-10" d="M2825.51,1794.08l-475.45-.21-100.11,0-504.33-.24h-15.14l-108,0h-13.93l-103,0h-17.62l-143.57-.06-25.31,0-117.09-.06h-31.84l-201.8-.1H933.07l-164.77-.07H743.94L503.57,1793a209.81,209.81,0,0,1-87.5-19.14c128.59-59.88,520.19-239.23,830.83-349.33,377.25-133.71,592.14-205.34,654.21-119.38s-164.74,267.41-40.59,272.19,422.61-33.43,534.83-11.94c112,21.44,100.33,64.3,131.15,66.84h.17c31,2.39,269.81-14.32,298.46,28.65S2825.51,1794.08,2825.51,1794.08Z"/><path class="cls-7" d="M2566.46,692.78v0s-41.37-32.3-50.92-42-21.49,13.71-28.66,23.74-8-21.17-8-30.72-68.56,62.31-68.56,62.31v0c32.2-56.69,65.2-106.53,84.07-106.45S2539.22,640.75,2566.46,692.78Z"/><path class="cls-11" d="M2152.23,909.45s48.93-129.56,74.4-125.59,60.28,62.75,60.28,62.75-35.41-30.31-42-20.17-7.76,30.2-19.1,20.17-18.5-11.46-24.47,0S2152.23,909.45,2152.23,909.45Z"/><path class="cls-12" d="M894.72,1651.37c-31,38.21-222.05,50.14-216.08,77.6,4.79,22,93.09,37.87,98.54,64.18H743.94L503.57,1793a209.72,209.72,0,0,1-184.86-110.74c-15.57-29.14-32.36-63.27-48.63-101.4,0,0,81.46-82.05,282-50s228.36-51.14,322.33-25.2,118.19,3.84,152.81,25.2S895.92,1588.1,878,1604.81,925.76,1613.17,894.72,1651.37Z"/><path class="cls-12" d="M374.58,1539.41s-41-98.11-2.22-119.48-4.36,84.24,12.21,123.42C392.77,1562.75,374.58,1539.41,374.58,1539.41Z"/><path class="cls-12" d="M355.68,1563.48s-50.52-62-27-86.12,14.72,62,35,86.75C373.81,1576.35,355.68,1563.48,355.68,1563.48Z"/><path class="cls-12" d="M392.88,1557.84s-4.78-97.38,35.78-104-30.39,71.54-28.31,110.49C401.38,1583.58,392.88,1557.84,392.88,1557.84Z"/><path class="cls-13" d="M534.5,1656.09s-5.58-58.75,15.75-63.8-4.69,61.18-4.69,61.18Z"/><path class="cls-13" d="M550.42,1657.57s22.85-46.21,43.35-39.77-32.72,43.11-32.72,43.11Z"/><path class="cls-13" d="M506.34,1659.33s23.08-12.73,43-9.55,23.08,6.37,31.84,9.55,19.5,9.55,14.72,12.34-44.57-2.39-54.12,0S482.23,1668.06,506.34,1659.33Z"/><path class="cls-13" d="M958.67,1739s26.78-124.73,64.08-95.48S980.52,1701.53,958.67,1739Z"/><path class="cls-13" d="M947.71,1745.83s-12.24-90.63,12.52-95.06S948,1718.4,947.71,1745.83Z"/><path class="cls-13" d="M922.48,1738.69s21.39-10.38,37-9.42,57.46,5.92,53.63,14.2-45.76,1.12-56.38,2.47S911,1746.52,922.48,1738.69Z"/><path class="cls-12" d="M2367.47,1650.67s-.79-43,19.1-50.54S2369.46,1639.53,2367.47,1650.67Z"/><path class="cls-12" d="M2383.45,1644.55s15.19-54.37,43.07-56.39S2390.15,1631.28,2383.45,1644.55Z"/><path class="cls-12" d="M521.15,1458.61c8,3.24,36.6.62,37.53-1.66s-17.78-24.08-25.79-27.33a15.64,15.64,0,1,0-11.74,29Z"/><path class="cls-12" d="M593.3,1472.26c-4.5,7.38-6.53,36-4.42,37.31s26.63-13.66,31.13-21a15.64,15.64,0,1,0-26.71-16.28Z"/><path class="cls-12" d="M554.75,1528.33c8.23,2.63,36.55-2.17,37.3-4.52s-19.56-22.65-27.79-25.28a15.64,15.64,0,1,0-9.51,29.8Z"/><path class="cls-12" d="M596.41,1556.06c0-.65-3.2-65.5-38.7-99l.75-.8c35.84,33.79,39,99.07,39,99.73Z"/><path class="cls-12" d="M823.34,1405.25c-7.77,5.16-38.61,8.55-40.08,6.34s13.62-29.32,21.4-34.48a16.89,16.89,0,0,1,18.68,28.14Z"/><path class="cls-12" d="M749.93,1435.27c6.34,6.83,14.67,36.72,12.72,38.53s-31.14-8.71-37.48-15.55a16.89,16.89,0,1,1,24.76-23Z"/><path class="cls-12" d="M802.82,1486.29c-8.15,4.55-39.15,5.59-40.45,3.26s15.81-28.19,24-32.75a16.89,16.89,0,0,1,16.49,29.49Z"/><path class="cls-12" d="M764.71,1524.62c-.11-.7-10.75-70,19.6-113.09l-1-.69c-30.63,43.49-19.91,113.27-19.8,114Z"/><path class="cls-12" d="M669.77,1561.61l-2.28-.36c-9-116.08-44.41-199.37-44.91-200.5l2.07-.9C625.15,1361,660.85,1444.84,669.77,1561.61Z"/><path class="cls-14" d="M598.53,1349.06c4.37,5,24.84,12.92,26.25,11.67s-3.95-22.54-8.32-27.49a12,12,0,1,0-17.93,15.82Z"/><path class="cls-14" d="M629.9,1331.8c-3.95,5.3-7.54,27-6,28.09s21.25-8.5,25.2-13.8a12,12,0,0,0-19.18-14.29Z"/><path class="cls-14" d="M653.44,1354.84c-6.37-1.74-27.85,2.85-28.35,4.67s15.69,16.67,22.06,18.41a12,12,0,1,0,6.29-23.08Z"/><path class="cls-14" d="M638.93,1383.57c-.64-6.58-12.54-25-14.42-24.85s-10,20.57-9.39,27.15a12,12,0,0,0,23.81-2.3Z"/><path class="cls-14" d="M606.35,1382.16c5.85-3.08,18.45-21.07,17.57-22.74s-22.84-1.51-28.69,1.56a12,12,0,0,0,11.12,21.18Z"/><path class="cls-15" d="M620,1358.8a3.94,3.94,0,1,1,3.27,4.51A3.94,3.94,0,0,1,620,1358.8Z"/><path class="cls-12" d="M669.12,1442.93c-6.5,8-13.52,41.53-11.23,43.38s33.67-11.85,40.17-19.84a18.65,18.65,0,1,0-28.94-23.54Z"/><path class="cls-12" d="M878.29,1569.25l2.28-.37c9-116.07,44.42-199.37,44.92-200.5l-2.08-.89C922.92,1368.63,887.21,1452.48,878.29,1569.25Z"/><path class="cls-14" d="M949.53,1356.7c-4.37,5-24.84,12.92-26.25,11.67s4-22.55,8.32-27.5a12,12,0,1,1,17.93,15.83Z"/><path class="cls-14" d="M918.17,1339.44c3.94,5.29,7.53,27,6,28.09s-21.26-8.5-25.2-13.8a12,12,0,1,1,19.18-14.29Z"/><path class="cls-14" d="M894.62,1362.48c6.37-1.74,27.85,2.85,28.35,4.67s-15.69,16.67-22.06,18.4a12,12,0,0,1-6.29-23.07Z"/><path class="cls-14" d="M909.13,1391.2c.64-6.57,12.54-25,14.42-24.85s10,20.58,9.39,27.15a12,12,0,1,1-23.81-2.3Z"/><path class="cls-14" d="M941.71,1389.79c-5.84-3.07-18.44-21.06-17.57-22.73s22.84-1.52,28.69,1.55a12,12,0,1,1-11.12,21.18Z"/><path class="cls-15" d="M928,1366.44a3.94,3.94,0,1,0-3.27,4.51A3.94,3.94,0,0,0,928,1366.44Z"/><path class="cls-12" d="M878.94,1450.57c6.5,8,13.52,41.52,11.24,43.38S856.5,1482.1,850,1474.11a18.65,18.65,0,0,1,28.94-23.54Z"/><path class="cls-12" d="M2183.37,1533.73c10.48,4.62,48.52,2.3,49.84-.69s-22.6-32.65-33.09-37.28a20.75,20.75,0,0,0-16.75,38Z"/><path class="cls-12" d="M2278.49,1554.75c-6.26,9.6-10.11,47.51-7.37,49.29s35.87-17,42.13-26.62a20.75,20.75,0,0,0-34.76-22.67Z"/><path class="cls-12" d="M2225.1,1627.53c10.81,3.82,48.55-1.39,49.64-4.47s-25-30.84-35.82-34.65a20.74,20.74,0,1,0-13.82,39.12Z"/><path class="cls-12" d="M2279.21,1666c0-.87-1.57-87-47.29-132.81l1-1c46.14,46.26,47.71,132.95,47.72,133.82Z"/><path class="cls-12" d="M2349.71,1668.55l-2-.31c-7.85-101.59-38.88-174.49-39.31-175.48l1.81-.78C2310.66,1493,2341.91,1566.36,2349.71,1668.55Z"/><path class="cls-14" d="M2287.36,1482.54c3.83,4.33,21.74,11.3,23,10.21s-3.46-19.73-7.28-24.06a10.47,10.47,0,0,0-15.7,13.85Z"/><path class="cls-14" d="M2314.81,1467.43c-3.45,4.64-6.59,23.6-5.26,24.59s18.6-7.44,22-12.08a10.47,10.47,0,1,0-16.79-12.51Z"/><path class="cls-14" d="M2335.42,1487.59c-5.58-1.51-24.38,2.5-24.81,4.09s13.73,14.59,19.31,16.11a10.47,10.47,0,1,0,5.5-20.2Z"/><path class="cls-14" d="M2322.72,1512.74c-.56-5.76-11-21.91-12.62-21.75s-8.77,18-8.22,23.76a10.47,10.47,0,0,0,20.84-2Z"/><path class="cls-14" d="M2294.21,1511.5c5.12-2.69,16.14-18.43,15.37-19.89s-20-1.33-25.1,1.36a10.46,10.46,0,0,0,9.73,18.53Z"/><path class="cls-15" d="M2306.18,1491.06a3.45,3.45,0,1,1,2.86,4A3.44,3.44,0,0,1,2306.18,1491.06Z"/><path class="cls-12" d="M2349.14,1564.69c-5.69,7-11.83,36.34-9.83,38s29.47-10.37,35.16-17.36a16.32,16.32,0,0,0-25.33-20.6Z"/><path class="cls-12" d="M2825.51,1794.08l-475.45-.21c2.4-22.66,45.44-34.11,41.45-56.47-5.12-28.65-216.93-39.4-131.93-76,83.49-35.9,260.58-29.43,266.92-29.19h.17c31,2.39,269.81-14.32,298.46,28.65S2825.51,1794.08,2825.51,1794.08Z"/><path class="cls-16" d="M1416,1533.74s2.92,45.58,11.74,46.21c1.18.09,44.73,0,44.73,0l55.6-.44s-.39-13.4-16.65-16.2-43.49-14.15-53.38-35.61C1447.62,1505.11,1416,1533.74,1416,1533.74Z"/><path class="cls-16" d="M1698.93,1495.11s8.49,44.87,17.32,44.42c1.18-.06,44.39-5.49,44.39-5.49l55.13-7.25s-2-13.25-18.51-14-44.89-8.72-57.34-28.81C1726.83,1462.82,1698.93,1495.11,1698.93,1495.11Z"/><path class="cls-17" d="M1600.34,1043.45s-14.34,93-68.23,258.25S1471,1538.43,1471,1538.43l-58.2-1.51s-.89-180.43,23.93-263.51,4.74-299.31,4.74-299.31Z"/><path class="cls-18" d="M1616.13,959s79.23,160,99.38,286.66,36,242.55,36,242.55-19.47,7.16-56,10.32c0,0-61.74-183.9-68.29-229.7s-190.54-228.9-176.18-274.09S1616.13,959,1616.13,959Z"/><path class="cls-19" d="M1501.33,650.36s-81.82,78.55-85.74,110.89,39.7,82.82,39.7,82.82Z"/><path class="cls-20" d="M1515.38,651.06l31,20.22,44.71-8.43c-.63-3.61-3.62-18.57-6.33-32.11-.17-.8-.33-1.6-.49-2.38-2.32-11.53-4.33-21.43-4.33-21.43l-41.81-18.34-15.59-6.84c0,.25,1.24,12.8,1.4,14.63C1526.91,628.92,1515.38,651.06,1515.38,651.06Z"/><path class="cls-19" d="M1579.56,640.68c-.86-.36-53.88-15.88-59.64-14s-9.13,13.06-9.13,13.06l86.71,19.4S1590.65,645.32,1579.56,640.68Z"/><path class="cls-15" d="M1437.66,996.5c9.07,41,158.55,45.49,197,8.22,4.37-4.25,4.55-24,2.84-50.56-3.35-51.95-13.9-130.08-14.39-170-.24-19.28-2.94-39-6.5-56.9a463.42,463.42,0,0,0-19.11-68.08s-73.06-23.44-86.71-19.4C1445,659.25,1428.59,955.55,1437.66,996.5Z"/><path class="cls-19" d="M1637.5,954.16c-3.35-51.95-5.16-137.73-5.65-177.66-.24-19.28-11.68-31.35-15.24-49.25l-43.94-7.66S1530.11,895.07,1637.5,954.16Z"/><path class="cls-17" d="M1558.65,892.7s49.76-43.48,68.37-71l14.06,9.5s-39.23,65.66-76.73,83S1558.65,892.7,1558.65,892.7Z"/><path class="cls-21" d="M1527.06,597c9.2,15.52,43.41,28.88,57.68,33.79-.17-.8-.33-1.6-.49-2.38-2.32-11.53-4.33-21.43-4.33-21.43l-41.81-18.34C1528.88,588.49,1523.26,590.56,1527.06,597Z"/><path class="cls-20" d="M1594.11,602.44s-63.46,30.66-81.94-9.16-39.13-62.67.6-83.93,54.72-9.74,64.13,2S1610.14,593.43,1594.11,602.44Z"/><path class="cls-17" d="M1573.69,507.77s3,49.09-7.37,48.48-19.66-.82-16,13.57,20,29.18-10.45,36.36-86.75-65.86-80.51-82.2C1477.35,476.82,1601.17,449.42,1573.69,507.77Z"/><path class="cls-17" d="M1471.5,822.1s-7.59.92-8.28,8.06-5.49,94.06-1.14,96.36,22.41,1.37,23.46,0,5-96.76,2.33-102.51C1487.87,824,1479.06,820.59,1471.5,822.1Z"/><path class="cls-20" d="M1637.93,921.26s10.48,7.78,12.68,16.21c3.57,13.66,1.29,26.44-12.11,31.57-4.94,1.9-5.62-9.84-9.28-14.88s-16.73-7.84-13.74-15.51l8.84-22.69Z"/><path class="cls-20" d="M1620.49,925.79s-8.29,9.11-9.14,15-1.2,14.93-1.39,18.8,1.76,7.07,5.34.77,6.66-14.69,9.09-14.68S1620.49,925.79,1620.49,925.79Z"/><path class="cls-15" d="M1563.07,648.81s52,9.2,92.18,68.09,55,96.55,47.69,117.82-43.9,87.22-51.28,96.15c-6.32,7.63-24.64,7.09-36.62,1.93,0,0,23.22-98.13,13.88-108.73-4-4.53-55.49-48-63.64-26.94C1551.79,832,1563.07,648.81,1563.07,648.81Z"/><path class="cls-17" d="M1607.52,668.85s-8.53-15.06-28.74-18.07-32.42,20.5-32.42,20.5l15.11,5.74s9.72-17.85,18.51-17.85A43.16,43.16,0,0,1,1607.52,668.85Z"/><path class="cls-17" d="M1574.77,741.05s-21-.28-48-.91c-47.42-1.09-113.16-3.22-114.85-6.66-2.64-5.41.87-65.58,17.08-69.93a38.43,38.43,0,0,1,5.94-.93c26.18-2.51,106.2,2.24,124.67,8.18C1579.81,677.32,1574.77,741.05,1574.77,741.05Z"/><path class="cls-18" d="M1526.76,740.14c-47.42-1.09-113.16-3.22-114.85-6.66-2.64-5.41.87-65.58,17.08-69.93a38.43,38.43,0,0,1,5.94-.93c31,1.34,65.3,4.54,76.59,8.18C1530.32,676.86,1527.29,732.34,1526.76,740.14Z"/><path class="cls-18" d="M1574.77,741.05s-162.43-16.14-190.56-6.75-28.13,201-19.34,214.21,168.36,25.43,191,18.43S1574.77,741.05,1574.77,741.05Z"/><path class="cls-17" d="M1526.79,736.82s-22.24,2-24.28,17.85-16.08,208.48-3.35,213.58,65.7,3,68.78,0,14.54-214.46,6.83-227.2C1574.77,741.05,1548.94,733.48,1526.79,736.82Z"/><path class="cls-17" d="M1426.07,684.31s-5.18,26.73,1.5,30.8,22.94,5.23,27,.46,3.16-30.72,3.16-30.72Z"/><path class="cls-22" d="M1426.07,684.31s2.27,10.81,14.94,11a17.44,17.44,0,0,0,16.7-10.49S1440.51,677.07,1426.07,684.31Z"/><path class="cls-15" d="M1438.72,691.12a2.36,2.36,0,1,1,2.32,2.4A2.36,2.36,0,0,1,1438.72,691.12Z"/><path class="cls-17" d="M1473.91,687.56s-6.88,26.34-.47,30.84,22.55,6.68,26.89,2.18,5.12-30.45,5.12-30.45Z"/><path class="cls-22" d="M1473.91,687.56s1.57,10.94,14.2,12a17.42,17.42,0,0,0,17.34-9.39S1488.79,681.27,1473.91,687.56Z"/><path class="cls-15" d="M1486.1,695.17a2.36,2.36,0,0,1,4.71.38,2.36,2.36,0,1,1-4.71-.38Z"/><path class="cls-17" d="M1381.13,756.87s-7,24.83-3.07,31.32,93.18,10.88,98.89,5.6,6.6-33.84,6.6-33.84Z"/><path class="cls-22" d="M1381.13,756.87s12.2,15.38,43,15.82,59.4-12.74,59.4-12.74S1411.46,747.2,1381.13,756.87Z"/><circle class="cls-15" cx="1422.01" cy="766.87" r="2.64"/><path class="cls-22" d="M1459.12,821.08s-73.7-3.14-78,0-5.93,104.68-2.63,109.63,77.8,7.25,77.8,7.25Z"/><path class="cls-8" d="M3032.64,1559c-45.16-2.2-113.13-5.69-171.7-9.5-97.89-6.37-54.91-36.61-9.55-79.6s-140.87-19.09-279.35-9.5-346.21,4.74-272.22-55.19,611.75-128.13,611.75-128.13q3.24,3.18,6.45,6.43,5.52,5.55,10.91,11.22a484,484,0,0,1,41.76,49.32c2.81,3.81,5.52,7.69,8.18,11.63q4.68,7,9.05,14.23a307.19,307.19,0,0,1,24.26,49.78C3026.82,1458.38,3034.83,1503.69,3032.64,1559Z"/><path class="cls-13" d="M441.2,1231.15c-45.49,0-119,2.39-96.58,16.71s41.54,35.82-34.87,38.2c-75.53,2.37-118.83,6.18-119.81,6.26a822.62,822.62,0,0,1-5.69-135.56s70.75-20.16,113.73,0,73.85,4,107.28,25.44,103.86,23.88,118.19,35.82S486.69,1231.15,441.2,1231.15Z"/><path class="cls-23" d="M2198.78,1722.12l3.35-56.94s-28.65-23.84-32.75-25.48-65.94-11.1-65.94-11.1l2.67,53.48,19.37,38.86Z"/><path class="cls-24" d="M2057.91,1720.24s-4-41.46-1.87-46,40.95-47,47.4-45.65,42,14.58,48.21,19.6,20.68,44.26,20.44,48.34l-1.48,25.12Z"/><path class="cls-23" d="M2103,1735.45l.44-24.45a11.93,11.93,0,0,0-4.75-9.76c-6.61-5-17.85-13.32-20-14.07-1.92-.68-20.54-2.93-34.22-4.52a12,12,0,0,0-13.29,13l2,22.13a11.92,11.92,0,0,0,1.43,4.68l10.7,19.44a12,12,0,0,0,10.77,6.19l35.22-.87A12,12,0,0,0,2103,1735.45Z"/><path class="cls-24" d="M2010,1749.44a12,12,0,0,1-12.22-10.57c-1.07-9.07-2.24-20.85-1.38-22.89,1.43-3.4,38.82-33.77,43.6-33s21.21,7.46,25.94,11,16.54,31.92,16.48,34.93l-.12,7.1a12,12,0,0,1-11.63,11.74Z"/><path class="cls-23" d="M1116.74,1588.21l-.37-20.67a10.1,10.1,0,0,1,4-8.26c5.59-4.21,15.1-11.26,16.9-11.89,1.62-.58,17.36-2.48,28.93-3.82a10.11,10.11,0,0,1,11.24,11l-1.7,18.71a10.3,10.3,0,0,1-1.21,4l-9,16.43a10.13,10.13,0,0,1-9.11,5.24l-29.78-.74A10.12,10.12,0,0,1,1116.74,1588.21Z"/><path class="cls-24" d="M1195.41,1600.05a10.11,10.11,0,0,0,10.33-8.94c.91-7.68,1.89-17.64,1.17-19.36-1.21-2.88-32.83-28.55-36.87-27.9s-17.94,6.31-21.94,9.27-14,27-13.94,29.55l.11,6a10.12,10.12,0,0,0,9.83,9.93Z"/><path class="cls-23" d="M1032.2,1603.41l-.2-11.24a5.46,5.46,0,0,1,2.18-4.49c3-2.29,8.21-6.13,9.19-6.47s9.44-1.35,15.74-2.08a5.51,5.51,0,0,1,6.11,6l-.93,10.18a5.44,5.44,0,0,1-.66,2.15l-4.92,8.94a5.5,5.5,0,0,1-5,2.85l-16.2-.4A5.5,5.5,0,0,1,1032.2,1603.41Z"/><path class="cls-24" d="M1075,1609.84a5.5,5.5,0,0,0,5.62-4.86c.49-4.17,1-9.59.63-10.53-.66-1.56-17.85-15.52-20-15.17s-9.75,3.43-11.93,5-7.6,14.68-7.58,16.06l.06,3.27a5.51,5.51,0,0,0,5.35,5.4Z"/><path class="cls-23" d="M1871.77,1639.94l-.2-11.23a5.46,5.46,0,0,1,2.18-4.5c3-2.29,8.21-6.12,9.19-6.47s9.44-1.34,15.73-2.07a5.5,5.5,0,0,1,6.12,6l-.93,10.17a5.49,5.49,0,0,1-.66,2.16l-4.92,8.94a5.5,5.5,0,0,1-5,2.85l-16.2-.4A5.51,5.51,0,0,1,1871.77,1639.94Z"/><path class="cls-24" d="M1914.54,1646.38a5.5,5.5,0,0,0,5.62-4.86c.5-4.17,1-9.59.64-10.53-.66-1.56-17.85-15.52-20-15.17s-9.75,3.43-11.93,5-7.6,14.69-7.58,16.07l.06,3.26a5.5,5.5,0,0,0,5.35,5.4Z"/><path class="cls-23" d="M806.33,1758.38l-.2-11.23a5.52,5.52,0,0,1,2.18-4.5c3-2.28,8.21-6.12,9.19-6.47s9.45-1.34,15.74-2.07a5.49,5.49,0,0,1,6.11,6l-.93,10.18a5.49,5.49,0,0,1-.66,2.15l-4.92,8.94a5.5,5.5,0,0,1-5,2.85l-16.19-.4A5.51,5.51,0,0,1,806.33,1758.38Z"/><path class="cls-24" d="M849.11,1764.82a5.51,5.51,0,0,0,5.62-4.86c.49-4.17,1-9.59.63-10.53-.66-1.56-17.85-15.52-20.05-15.17s-9.75,3.43-11.93,5-7.6,14.69-7.58,16.07l.06,3.26a5.52,5.52,0,0,0,5.35,5.41Z"/><path class="cls-23" d="M1065.38,1570.6l-.14-7.83a3.83,3.83,0,0,1,1.52-3.13,69.91,69.91,0,0,1,6.4-4.51c.62-.21,6.58-.93,11-1.44a3.83,3.83,0,0,1,4.26,4.15l-.64,7.09a4,4,0,0,1-.46,1.5l-3.43,6.22a3.83,3.83,0,0,1-3.45,2l-11.28-.28A3.84,3.84,0,0,1,1065.38,1570.6Z"/><path class="cls-24" d="M1095.18,1575.08a3.83,3.83,0,0,0,3.91-3.39c.34-2.9.72-6.68.44-7.33-.45-1.09-12.43-10.81-14-10.57a33.31,33.31,0,0,0-8.31,3.52c-1.51,1.12-5.3,10.22-5.28,11.19l0,2.27a3.83,3.83,0,0,0,3.72,3.76Z"/></svg>